M48
;DRILL file {KiCad 5.0.0-rc1-44a33f2~62~ubuntu17.10.1} date Tue Apr 10 00:15:40 2018
;FORMAT={3:3/ absolute / metric / suppress trailing zeros}
FMAT,2
METRIC,LZ
T1C1.000
%
G90
G05
M71
T1
X088392Y-0762
X088392Y-07874
X088392Y-08128
X088392Y-08382
X088392Y-08636
X075692Y-0762
X075692Y-07874
X075692Y-08128
X075692Y-08382
X075692Y-08636
X093472Y-0762
X093472Y-07874
X093472Y-08128
X093472Y-08382
X093472Y-08636
X090932Y-0889
X090932Y-09144
X090932Y-09398
X090932Y-09652
X090932Y-09906
X090932Y-0762
X090932Y-07874
X090932Y-08128
X090932Y-08382
X090932Y-08636
X088392Y-0889
X088392Y-09144
X088392Y-09398
X088392Y-09652
X088392Y-09906
X093472Y-0889
X093472Y-09144
X093472Y-09398
X093472Y-09652
X093472Y-09906
X106172Y-0762
X106172Y-07874
X106172Y-08128
X106172Y-08382
X106172Y-08636
X098552Y-0762
X098552Y-07874
X098552Y-08128
X098552Y-08382
X098552Y-08636
X103632Y-1016
X103632Y-10414
X103632Y-10668
X103632Y-10922
X103632Y-11176
X080772Y-0762
X080772Y-07874
X080772Y-08128
X080772Y-08382
X080772Y-08636
X078232Y-0889
X078232Y-09144
X078232Y-09398
X078232Y-09652
X078232Y-09906
X098552Y-0889
X098552Y-09144
X098552Y-09398
X098552Y-09652
X098552Y-09906
X103632Y-0762
X103632Y-07874
X103632Y-08128
X103632Y-08382
X103632Y-08636
X080772Y-0889
X080772Y-09144
X080772Y-09398
X080772Y-09652
X080772Y-09906
X083312Y-0762
X083312Y-07874
X083312Y-08128
X083312Y-08382
X083312Y-08636
X085852Y-0762
X085852Y-07874
X085852Y-08128
X085852Y-08382
X085852Y-08636
X078232Y-1143
X078232Y-11684
X078232Y-11938
X078232Y-12192
X078232Y-12446
X078232Y-1016
X078232Y-10414
X078232Y-10668
X078232Y-10922
X078232Y-11176
X096012Y-0889
X096012Y-09144
X096012Y-09398
X096012Y-09652
X096012Y-09906
X098552Y-1016
X098552Y-10414
X098552Y-10668
X098552Y-10922
X098552Y-11176
X106172Y-1143
X106172Y-11684
X106172Y-11938
X106172Y-12192
X106172Y-12446
X096012Y-1143
X096012Y-11684
X096012Y-11938
X096012Y-12192
X096012Y-12446
X085852Y-0889
X085852Y-09144
X085852Y-09398
X085852Y-09652
X085852Y-09906
X090932Y-1143
X090932Y-11684
X090932Y-11938
X090932Y-12192
X090932Y-12446
X078232Y-0762
X078232Y-07874
X078232Y-08128
X078232Y-08382
X078232Y-08636
X106172Y-1016
X106172Y-10414
X106172Y-10668
X106172Y-10922
X106172Y-11176
X088392Y-1143
X088392Y-11684
X088392Y-11938
X088392Y-12192
X088392Y-12446
X093472Y-1016
X093472Y-10414
X093472Y-10668
X093472Y-10922
X093472Y-11176
X103632Y-0889
X103632Y-09144
X103632Y-09398
X103632Y-09652
X103632Y-09906
X101092Y-0762
X101092Y-07874
X101092Y-08128
X101092Y-08382
X101092Y-08636
X106172Y-0889
X106172Y-09144
X106172Y-09398
X106172Y-09652
X106172Y-09906
X101092Y-0889
X101092Y-09144
X101092Y-09398
X101092Y-09652
X101092Y-09906
X098552Y-1143
X098552Y-11684
X098552Y-11938
X098552Y-12192
X098552Y-12446
X088392Y-1016
X088392Y-10414
X088392Y-10668
X088392Y-10922
X088392Y-11176
X080772Y-1143
X080772Y-11684
X080772Y-11938
X080772Y-12192
X080772Y-12446
X090932Y-1016
X090932Y-10414
X090932Y-10668
X090932Y-10922
X090932Y-11176
X103632Y-1143
X103632Y-11684
X103632Y-11938
X103632Y-12192
X103632Y-12446
X083312Y-1016
X083312Y-10414
X083312Y-10668
X083312Y-10922
X083312Y-11176
X083312Y-0889
X083312Y-09144
X083312Y-09398
X083312Y-09652
X083312Y-09906
X083312Y-1143
X083312Y-11684
X083312Y-11938
X083312Y-12192
X083312Y-12446
X085852Y-1143
X085852Y-11684
X085852Y-11938
X085852Y-12192
X085852Y-12446
X096012Y-0762
X096012Y-07874
X096012Y-08128
X096012Y-08382
X096012Y-08636
X093472Y-1143
X093472Y-11684
X093472Y-11938
X093472Y-12192
X093472Y-12446
X116332Y-0762
X116332Y-07874
X116332Y-08128
X116332Y-08382
X116332Y-08636
X116332Y-0889
X116332Y-09144
X116332Y-09398
X116332Y-09652
X116332Y-09906
X116332Y-1016
X116332Y-10414
X116332Y-10668
X116332Y-10922
X116332Y-11176
X116332Y-1143
X116332Y-11684
X116332Y-11938
X116332Y-12192
X116332Y-12446
X085852Y-1016
X085852Y-10414
X085852Y-10668
X085852Y-10922
X085852Y-11176
X080772Y-1016
X080772Y-10414
X080772Y-10668
X080772Y-10922
X080772Y-11176
X113792Y-0762
X113792Y-07874
X113792Y-08128
X113792Y-08382
X113792Y-08636
X113792Y-0889
X113792Y-09144
X113792Y-09398
X113792Y-09652
X113792Y-09906
X113792Y-1016
X113792Y-10414
X113792Y-10668
X113792Y-10922
X113792Y-11176
X113792Y-1143
X113792Y-11684
X113792Y-11938
X113792Y-12192
X113792Y-12446
X101092Y-1143
X101092Y-11684
X101092Y-11938
X101092Y-12192
X101092Y-12446
X075692Y-1016
X075692Y-10414
X075692Y-10668
X075692Y-10922
X075692Y-11176
X123952Y-0762
X123952Y-07874
X123952Y-08128
X123952Y-08382
X123952Y-08636
X123952Y-0889
X123952Y-09144
X123952Y-09398
X123952Y-09652
X123952Y-09906
X123952Y-1016
X123952Y-10414
X123952Y-10668
X123952Y-10922
X123952Y-11176
X123952Y-1143
X123952Y-11684
X123952Y-11938
X123952Y-12192
X123952Y-12446
X126492Y-0762
X126492Y-07874
X126492Y-08128
X126492Y-08382
X126492Y-08636
X126492Y-0889
X126492Y-09144
X126492Y-09398
X126492Y-09652
X126492Y-09906
X126492Y-1016
X126492Y-10414
X126492Y-10668
X126492Y-10922
X126492Y-11176
X126492Y-1143
X126492Y-11684
X126492Y-11938
X126492Y-12192
X126492Y-12446
X096012Y-1016
X096012Y-10414
X096012Y-10668
X096012Y-10922
X096012Y-11176
X075692Y-0889
X075692Y-09144
X075692Y-09398
X075692Y-09652
X075692Y-09906
X075692Y-1143
X075692Y-11684
X075692Y-11938
X075692Y-12192
X075692Y-12446
X101092Y-1016
X101092Y-10414
X101092Y-10668
X101092Y-10922
X101092Y-11176
T0
M30
