G04 #@! TF.GenerationSoftware,KiCad,Pcbnew,5.0.0-rc1-44a33f2~62~ubuntu17.10.1*
G04 #@! TF.CreationDate,2018-04-10T00:15:36+09:00*
G04 #@! TF.ProjectId,RaspiUniversalHat,5261737069556E6976657273616C4861,rev?*
G04 #@! TF.SameCoordinates,Original*
G04 #@! TF.FileFunction,Copper,L1,Top,Signal*
G04 #@! TF.FilePolarity,Positive*
%FSLAX46Y46*%
G04 Gerber Fmt 4.6, Leading zero omitted, Abs format (unit mm)*
G04 Created by KiCad (PCBNEW 5.0.0-rc1-44a33f2~62~ubuntu17.10.1) date Tue Apr 10 00:15:36 2018*
%MOMM*%
%LPD*%
G01*
G04 APERTURE LIST*
%ADD10O,1.700000X1.700000*%
%ADD11R,1.700000X1.700000*%
%ADD12C,0.250000*%
%ADD13C,0.254000*%
G04 APERTURE END LIST*
D10*
X80772000Y-114300000D03*
X80772000Y-116840000D03*
X80772000Y-119380000D03*
X80772000Y-121920000D03*
X80772000Y-124460000D03*
D11*
X123952000Y-76200000D03*
D10*
X126492000Y-76200000D03*
X123952000Y-78740000D03*
X126492000Y-78740000D03*
X123952000Y-81280000D03*
X126492000Y-81280000D03*
X123952000Y-83820000D03*
X126492000Y-83820000D03*
X123952000Y-86360000D03*
X126492000Y-86360000D03*
X123952000Y-88900000D03*
X126492000Y-88900000D03*
X123952000Y-91440000D03*
X126492000Y-91440000D03*
X123952000Y-93980000D03*
X126492000Y-93980000D03*
X123952000Y-96520000D03*
X126492000Y-96520000D03*
X123952000Y-99060000D03*
X126492000Y-99060000D03*
X123952000Y-101600000D03*
X126492000Y-101600000D03*
X123952000Y-104140000D03*
X126492000Y-104140000D03*
X123952000Y-106680000D03*
X126492000Y-106680000D03*
X123952000Y-109220000D03*
X126492000Y-109220000D03*
X123952000Y-111760000D03*
X126492000Y-111760000D03*
X123952000Y-114300000D03*
X126492000Y-114300000D03*
X123952000Y-116840000D03*
X126492000Y-116840000D03*
X123952000Y-119380000D03*
X126492000Y-119380000D03*
X123952000Y-121920000D03*
X126492000Y-121920000D03*
X123952000Y-124460000D03*
X126492000Y-124460000D03*
X93472000Y-124460000D03*
X93472000Y-121920000D03*
X93472000Y-119380000D03*
X93472000Y-116840000D03*
X93472000Y-114300000D03*
X101092000Y-76200000D03*
X101092000Y-78740000D03*
X101092000Y-81280000D03*
X101092000Y-83820000D03*
X101092000Y-86360000D03*
X90932000Y-114300000D03*
X90932000Y-116840000D03*
X90932000Y-119380000D03*
X90932000Y-121920000D03*
X90932000Y-124460000D03*
X75692000Y-86360000D03*
X75692000Y-83820000D03*
X75692000Y-81280000D03*
X75692000Y-78740000D03*
X75692000Y-76200000D03*
X98552000Y-86360000D03*
X98552000Y-83820000D03*
X98552000Y-81280000D03*
X98552000Y-78740000D03*
X98552000Y-76200000D03*
X96012000Y-76200000D03*
X96012000Y-78740000D03*
X96012000Y-81280000D03*
X96012000Y-83820000D03*
X96012000Y-86360000D03*
X98552000Y-124460000D03*
X98552000Y-121920000D03*
X98552000Y-119380000D03*
X98552000Y-116840000D03*
X98552000Y-114300000D03*
X93472000Y-86360000D03*
X93472000Y-83820000D03*
X93472000Y-81280000D03*
X93472000Y-78740000D03*
X93472000Y-76200000D03*
X75692000Y-114300000D03*
X75692000Y-116840000D03*
X75692000Y-119380000D03*
X75692000Y-121920000D03*
X75692000Y-124460000D03*
X96012000Y-124460000D03*
X96012000Y-121920000D03*
X96012000Y-119380000D03*
X96012000Y-116840000D03*
X96012000Y-114300000D03*
X90932000Y-86360000D03*
X90932000Y-83820000D03*
X90932000Y-81280000D03*
X90932000Y-78740000D03*
X90932000Y-76200000D03*
X88392000Y-76200000D03*
X88392000Y-78740000D03*
X88392000Y-81280000D03*
X88392000Y-83820000D03*
X88392000Y-86360000D03*
X85852000Y-86360000D03*
X85852000Y-83820000D03*
X85852000Y-81280000D03*
X85852000Y-78740000D03*
X85852000Y-76200000D03*
X83312000Y-76200000D03*
X83312000Y-78740000D03*
X83312000Y-81280000D03*
X83312000Y-83820000D03*
X83312000Y-86360000D03*
X85852000Y-124460000D03*
X85852000Y-121920000D03*
X85852000Y-119380000D03*
X85852000Y-116840000D03*
X85852000Y-114300000D03*
X75692000Y-88900000D03*
X75692000Y-91440000D03*
X75692000Y-93980000D03*
X75692000Y-96520000D03*
X75692000Y-99060000D03*
X78232000Y-99060000D03*
X78232000Y-96520000D03*
X78232000Y-93980000D03*
X78232000Y-91440000D03*
X78232000Y-88900000D03*
X78232000Y-114300000D03*
X78232000Y-116840000D03*
X78232000Y-119380000D03*
X78232000Y-121920000D03*
X78232000Y-124460000D03*
X83312000Y-114300000D03*
X83312000Y-116840000D03*
X83312000Y-119380000D03*
X83312000Y-121920000D03*
X83312000Y-124460000D03*
X103632000Y-114300000D03*
X103632000Y-116840000D03*
X103632000Y-119380000D03*
X103632000Y-121920000D03*
X103632000Y-124460000D03*
X75692000Y-101600000D03*
X75692000Y-104140000D03*
X75692000Y-106680000D03*
X75692000Y-109220000D03*
X75692000Y-111760000D03*
X101092000Y-124460000D03*
X101092000Y-121920000D03*
X101092000Y-119380000D03*
X101092000Y-116840000D03*
X101092000Y-114300000D03*
X83312000Y-88900000D03*
X83312000Y-91440000D03*
X83312000Y-93980000D03*
X83312000Y-96520000D03*
X83312000Y-99060000D03*
X106172000Y-124460000D03*
X106172000Y-121920000D03*
X106172000Y-119380000D03*
X106172000Y-116840000D03*
X106172000Y-114300000D03*
X80772000Y-101600000D03*
X80772000Y-104140000D03*
X80772000Y-106680000D03*
X80772000Y-109220000D03*
X80772000Y-111760000D03*
X88392000Y-124460000D03*
X88392000Y-121920000D03*
X88392000Y-119380000D03*
X88392000Y-116840000D03*
X88392000Y-114300000D03*
X85852000Y-88900000D03*
X85852000Y-91440000D03*
X85852000Y-93980000D03*
X85852000Y-96520000D03*
X85852000Y-99060000D03*
X101092000Y-88900000D03*
X101092000Y-91440000D03*
X101092000Y-93980000D03*
X101092000Y-96520000D03*
X101092000Y-99060000D03*
X93472000Y-101600000D03*
X93472000Y-104140000D03*
X93472000Y-106680000D03*
X93472000Y-109220000D03*
X93472000Y-111760000D03*
X78232000Y-111760000D03*
X78232000Y-109220000D03*
X78232000Y-106680000D03*
X78232000Y-104140000D03*
X78232000Y-101600000D03*
X80772000Y-76200000D03*
X80772000Y-78740000D03*
X80772000Y-81280000D03*
X80772000Y-83820000D03*
X80772000Y-86360000D03*
X103632000Y-99060000D03*
X103632000Y-96520000D03*
X103632000Y-93980000D03*
X103632000Y-91440000D03*
X103632000Y-88900000D03*
X78232000Y-76200000D03*
X78232000Y-78740000D03*
X78232000Y-81280000D03*
X78232000Y-83820000D03*
X78232000Y-86360000D03*
X83312000Y-111760000D03*
X83312000Y-109220000D03*
X83312000Y-106680000D03*
X83312000Y-104140000D03*
X83312000Y-101600000D03*
X90932000Y-101600000D03*
X90932000Y-104140000D03*
X90932000Y-106680000D03*
X90932000Y-109220000D03*
X90932000Y-111760000D03*
X106172000Y-99060000D03*
X106172000Y-96520000D03*
X106172000Y-93980000D03*
X106172000Y-91440000D03*
X106172000Y-88900000D03*
X96012000Y-111760000D03*
X96012000Y-109220000D03*
X96012000Y-106680000D03*
X96012000Y-104140000D03*
X96012000Y-101600000D03*
X85852000Y-111760000D03*
X85852000Y-109220000D03*
X85852000Y-106680000D03*
X85852000Y-104140000D03*
X85852000Y-101600000D03*
X93472000Y-88900000D03*
X93472000Y-91440000D03*
X93472000Y-93980000D03*
X93472000Y-96520000D03*
X93472000Y-99060000D03*
X90932000Y-99060000D03*
X90932000Y-96520000D03*
X90932000Y-93980000D03*
X90932000Y-91440000D03*
X90932000Y-88900000D03*
X101092000Y-101600000D03*
X101092000Y-104140000D03*
X101092000Y-106680000D03*
X101092000Y-109220000D03*
X101092000Y-111760000D03*
X96012000Y-99060000D03*
X96012000Y-96520000D03*
X96012000Y-93980000D03*
X96012000Y-91440000D03*
X96012000Y-88900000D03*
X88392000Y-111760000D03*
X88392000Y-109220000D03*
X88392000Y-106680000D03*
X88392000Y-104140000D03*
X88392000Y-101600000D03*
X106172000Y-111760000D03*
X106172000Y-109220000D03*
X106172000Y-106680000D03*
X106172000Y-104140000D03*
X106172000Y-101600000D03*
X98552000Y-111760000D03*
X98552000Y-109220000D03*
X98552000Y-106680000D03*
X98552000Y-104140000D03*
X98552000Y-101600000D03*
X98552000Y-99060000D03*
X98552000Y-96520000D03*
X98552000Y-93980000D03*
X98552000Y-91440000D03*
X98552000Y-88900000D03*
X80772000Y-88900000D03*
X80772000Y-91440000D03*
X80772000Y-93980000D03*
X80772000Y-96520000D03*
X80772000Y-99060000D03*
X103632000Y-111760000D03*
X103632000Y-109220000D03*
X103632000Y-106680000D03*
X103632000Y-104140000D03*
X103632000Y-101600000D03*
X88392000Y-88900000D03*
X88392000Y-91440000D03*
X88392000Y-93980000D03*
X88392000Y-96520000D03*
X88392000Y-99060000D03*
D11*
X113792000Y-76200000D03*
D10*
X113792000Y-78740000D03*
X113792000Y-81280000D03*
X113792000Y-83820000D03*
X113792000Y-86360000D03*
X113792000Y-88900000D03*
X113792000Y-91440000D03*
X113792000Y-93980000D03*
X113792000Y-96520000D03*
X113792000Y-99060000D03*
X113792000Y-101600000D03*
X113792000Y-104140000D03*
X113792000Y-106680000D03*
X113792000Y-109220000D03*
X113792000Y-111760000D03*
X113792000Y-114300000D03*
X113792000Y-116840000D03*
X113792000Y-119380000D03*
X113792000Y-121920000D03*
X113792000Y-124460000D03*
X116332000Y-124460000D03*
X116332000Y-121920000D03*
X116332000Y-119380000D03*
X116332000Y-116840000D03*
X116332000Y-114300000D03*
X116332000Y-111760000D03*
X116332000Y-109220000D03*
X116332000Y-106680000D03*
X116332000Y-104140000D03*
X116332000Y-101600000D03*
X116332000Y-99060000D03*
X116332000Y-96520000D03*
X116332000Y-93980000D03*
X116332000Y-91440000D03*
X116332000Y-88900000D03*
X116332000Y-86360000D03*
X116332000Y-83820000D03*
X116332000Y-81280000D03*
X116332000Y-78740000D03*
D11*
X116332000Y-76200000D03*
D10*
X106172000Y-76200000D03*
X106172000Y-78740000D03*
X106172000Y-81280000D03*
X106172000Y-83820000D03*
X106172000Y-86360000D03*
X103632000Y-76200000D03*
X103632000Y-78740000D03*
X103632000Y-81280000D03*
X103632000Y-83820000D03*
X103632000Y-86360000D03*
D12*
X121601400Y-120744700D02*
X122776700Y-121920000D01*
X115775300Y-120744700D02*
X121601400Y-120744700D01*
X114967300Y-121552700D02*
X115775300Y-120744700D01*
X114967300Y-121920000D02*
X114967300Y-121552700D01*
X113792000Y-121920000D02*
X114967300Y-121920000D01*
X123952000Y-121920000D02*
X122776700Y-121920000D01*
X113792000Y-96520000D02*
X113792000Y-95344700D01*
X123952000Y-96520000D02*
X122776700Y-96520000D01*
X113792000Y-76200000D02*
X113792000Y-77375300D01*
X121601400Y-95344700D02*
X122776700Y-96520000D01*
X115775400Y-95344700D02*
X121601400Y-95344700D01*
X115023700Y-94593000D02*
X115775400Y-95344700D01*
X114272000Y-95344700D02*
X115023700Y-94593000D01*
X113792000Y-95344700D02*
X114272000Y-95344700D01*
X123952000Y-76200000D02*
X122776700Y-76200000D01*
X119020000Y-79956700D02*
X122776700Y-76200000D01*
X115023700Y-79956700D02*
X119020000Y-79956700D01*
X115023700Y-94593000D02*
X115023700Y-79956700D01*
X114096000Y-77375300D02*
X113792000Y-77375300D01*
X115023700Y-78303000D02*
X114096000Y-77375300D01*
X115023700Y-79956700D02*
X115023700Y-78303000D01*
X121601400Y-97884700D02*
X122776700Y-99060000D01*
X115775300Y-97884700D02*
X121601400Y-97884700D01*
X114967300Y-98692700D02*
X115775300Y-97884700D01*
X114967300Y-99060000D02*
X114967300Y-98692700D01*
X113792000Y-99060000D02*
X114967300Y-99060000D01*
X123952000Y-99060000D02*
X122776700Y-99060000D01*
X121601400Y-102964700D02*
X122776700Y-104140000D01*
X115775300Y-102964700D02*
X121601400Y-102964700D01*
X114967300Y-103772700D02*
X115775300Y-102964700D01*
X114967300Y-104140000D02*
X114967300Y-103772700D01*
X113792000Y-104140000D02*
X114967300Y-104140000D01*
X123952000Y-104140000D02*
X122776700Y-104140000D01*
X121601400Y-110584700D02*
X122776700Y-111760000D01*
X115775300Y-110584700D02*
X121601400Y-110584700D01*
X114967300Y-111392700D02*
X115775300Y-110584700D01*
X114967300Y-111760000D02*
X114967300Y-111392700D01*
X113792000Y-111760000D02*
X114967300Y-111760000D01*
X123952000Y-111760000D02*
X122776700Y-111760000D01*
X121601400Y-115664700D02*
X122776700Y-116840000D01*
X115775300Y-115664700D02*
X121601400Y-115664700D01*
X114967300Y-116472700D02*
X115775300Y-115664700D01*
X114967300Y-116840000D02*
X114967300Y-116472700D01*
X113792000Y-116840000D02*
X114967300Y-116840000D01*
X123952000Y-116840000D02*
X122776700Y-116840000D01*
X116332000Y-76200000D02*
X116332000Y-78740000D01*
X126492000Y-78740000D02*
X126492000Y-76200000D01*
X106172000Y-86360000D02*
X106172000Y-83820000D01*
X106172000Y-83820000D02*
X106172000Y-81280000D01*
X106172000Y-81280000D02*
X106172000Y-78740000D01*
X106172000Y-78740000D02*
X106172000Y-76200000D01*
X103632000Y-86360000D02*
X103632000Y-83820000D01*
X103632000Y-83820000D02*
X103632000Y-81280000D01*
X103632000Y-81280000D02*
X103632000Y-78740000D01*
X103632000Y-78740000D02*
X103632000Y-76200000D01*
X93472000Y-114300000D02*
X93472000Y-116840000D01*
X93472000Y-116840000D02*
X93472000Y-119380000D01*
X93472000Y-119380000D02*
X93472000Y-121920000D01*
X93472000Y-121920000D02*
X93472000Y-124460000D01*
X101092000Y-86360000D02*
X101092000Y-83820000D01*
X101092000Y-83820000D02*
X101092000Y-81280000D01*
X101092000Y-81280000D02*
X101092000Y-78740000D01*
X101092000Y-78740000D02*
X101092000Y-76200000D01*
X90932000Y-124460000D02*
X90932000Y-121920000D01*
X90932000Y-121920000D02*
X90932000Y-119380000D01*
X90932000Y-119380000D02*
X90932000Y-116840000D01*
X90932000Y-116840000D02*
X90932000Y-114300000D01*
X75692000Y-76200000D02*
X75692000Y-78740000D01*
X75692000Y-78740000D02*
X75692000Y-81280000D01*
X75692000Y-81280000D02*
X75692000Y-83820000D01*
X75692000Y-83820000D02*
X75692000Y-86360000D01*
X98552000Y-76200000D02*
X98552000Y-78740000D01*
X98552000Y-78740000D02*
X98552000Y-81280000D01*
X98552000Y-81280000D02*
X98552000Y-83820000D01*
X98552000Y-83820000D02*
X98552000Y-86360000D01*
X96012000Y-86360000D02*
X96012000Y-83820000D01*
X96012000Y-83820000D02*
X96012000Y-81280000D01*
X96012000Y-81280000D02*
X96012000Y-78740000D01*
X96012000Y-78740000D02*
X96012000Y-76200000D01*
X98552000Y-114300000D02*
X98552000Y-116840000D01*
X98552000Y-116840000D02*
X98552000Y-119380000D01*
X98552000Y-119380000D02*
X98552000Y-121920000D01*
X98552000Y-121920000D02*
X98552000Y-124460000D01*
X93472000Y-76200000D02*
X93472000Y-78740000D01*
X93472000Y-78740000D02*
X93472000Y-81280000D01*
X93472000Y-81280000D02*
X93472000Y-83820000D01*
X93472000Y-83820000D02*
X93472000Y-86360000D01*
X75692000Y-124460000D02*
X75692000Y-121920000D01*
X75692000Y-121920000D02*
X75692000Y-119380000D01*
X75692000Y-119380000D02*
X75692000Y-116840000D01*
X75692000Y-116840000D02*
X75692000Y-114300000D01*
X96012000Y-114300000D02*
X96012000Y-116840000D01*
X96012000Y-116840000D02*
X96012000Y-119380000D01*
X96012000Y-119380000D02*
X96012000Y-121920000D01*
X96012000Y-121920000D02*
X96012000Y-124460000D01*
X80772000Y-124460000D02*
X80772000Y-121920000D01*
X80772000Y-121920000D02*
X80772000Y-119380000D01*
X80772000Y-119380000D02*
X80772000Y-116840000D01*
X80772000Y-116840000D02*
X80772000Y-114300000D01*
X90932000Y-76200000D02*
X90932000Y-78740000D01*
X90932000Y-78740000D02*
X90932000Y-81280000D01*
X90932000Y-81280000D02*
X90932000Y-83820000D01*
X90932000Y-83820000D02*
X90932000Y-86360000D01*
X88392000Y-86360000D02*
X88392000Y-83820000D01*
X88392000Y-83820000D02*
X88392000Y-81280000D01*
X88392000Y-81280000D02*
X88392000Y-78740000D01*
X88392000Y-78740000D02*
X88392000Y-76200000D01*
X85852000Y-76200000D02*
X85852000Y-78740000D01*
X85852000Y-78740000D02*
X85852000Y-81280000D01*
X85852000Y-81280000D02*
X85852000Y-83820000D01*
X85852000Y-83820000D02*
X85852000Y-86360000D01*
X83312000Y-86360000D02*
X83312000Y-83820000D01*
X83312000Y-83820000D02*
X83312000Y-81280000D01*
X83312000Y-81280000D02*
X83312000Y-78740000D01*
X83312000Y-78740000D02*
X83312000Y-76200000D01*
X85852000Y-114300000D02*
X85852000Y-116840000D01*
X85852000Y-116840000D02*
X85852000Y-119380000D01*
X85852000Y-119380000D02*
X85852000Y-121920000D01*
X85852000Y-121920000D02*
X85852000Y-124460000D01*
X75692000Y-99060000D02*
X75692000Y-96520000D01*
X75692000Y-96520000D02*
X75692000Y-93980000D01*
X75692000Y-93980000D02*
X75692000Y-91440000D01*
X75692000Y-91440000D02*
X75692000Y-88900000D01*
X78232000Y-88900000D02*
X78232000Y-91440000D01*
X78232000Y-91440000D02*
X78232000Y-93980000D01*
X78232000Y-93980000D02*
X78232000Y-96520000D01*
X78232000Y-96520000D02*
X78232000Y-99060000D01*
X78232000Y-124460000D02*
X78232000Y-121920000D01*
X78232000Y-121920000D02*
X78232000Y-119380000D01*
X78232000Y-119380000D02*
X78232000Y-116840000D01*
X78232000Y-116840000D02*
X78232000Y-114300000D01*
X83312000Y-124460000D02*
X83312000Y-121920000D01*
X83312000Y-121920000D02*
X83312000Y-119380000D01*
X83312000Y-119380000D02*
X83312000Y-116840000D01*
X83312000Y-116840000D02*
X83312000Y-114300000D01*
X103632000Y-124460000D02*
X103632000Y-121920000D01*
X103632000Y-121920000D02*
X103632000Y-119380000D01*
X103632000Y-119380000D02*
X103632000Y-116840000D01*
X103632000Y-116840000D02*
X103632000Y-114300000D01*
X75692000Y-111760000D02*
X75692000Y-109220000D01*
X75692000Y-109220000D02*
X75692000Y-106680000D01*
X75692000Y-106680000D02*
X75692000Y-104140000D01*
X75692000Y-104140000D02*
X75692000Y-101600000D01*
X101092000Y-114300000D02*
X101092000Y-116840000D01*
X101092000Y-116840000D02*
X101092000Y-119380000D01*
X101092000Y-119380000D02*
X101092000Y-121920000D01*
X101092000Y-121920000D02*
X101092000Y-124460000D01*
X83312000Y-99060000D02*
X83312000Y-96520000D01*
X83312000Y-96520000D02*
X83312000Y-93980000D01*
X83312000Y-93980000D02*
X83312000Y-91440000D01*
X83312000Y-91440000D02*
X83312000Y-88900000D01*
X106172000Y-114300000D02*
X106172000Y-116840000D01*
X106172000Y-116840000D02*
X106172000Y-119380000D01*
X106172000Y-119380000D02*
X106172000Y-121920000D01*
X106172000Y-121920000D02*
X106172000Y-124460000D01*
X80772000Y-111760000D02*
X80772000Y-109220000D01*
X80772000Y-109220000D02*
X80772000Y-106680000D01*
X80772000Y-106680000D02*
X80772000Y-104140000D01*
X80772000Y-104140000D02*
X80772000Y-101600000D01*
X88392000Y-114300000D02*
X88392000Y-116840000D01*
X88392000Y-116840000D02*
X88392000Y-119380000D01*
X88392000Y-119380000D02*
X88392000Y-121920000D01*
X88392000Y-121920000D02*
X88392000Y-124460000D01*
X85852000Y-99060000D02*
X85852000Y-96520000D01*
X85852000Y-96520000D02*
X85852000Y-93980000D01*
X85852000Y-93980000D02*
X85852000Y-91440000D01*
X85852000Y-91440000D02*
X85852000Y-88900000D01*
X101092000Y-99060000D02*
X101092000Y-96520000D01*
X101092000Y-96520000D02*
X101092000Y-93980000D01*
X101092000Y-93980000D02*
X101092000Y-91440000D01*
X101092000Y-91440000D02*
X101092000Y-88900000D01*
X93472000Y-111760000D02*
X93472000Y-109220000D01*
X93472000Y-109220000D02*
X93472000Y-106680000D01*
X93472000Y-106680000D02*
X93472000Y-104140000D01*
X93472000Y-104140000D02*
X93472000Y-101600000D01*
X78232000Y-101600000D02*
X78232000Y-104140000D01*
X78232000Y-104140000D02*
X78232000Y-106680000D01*
X78232000Y-106680000D02*
X78232000Y-109220000D01*
X78232000Y-109220000D02*
X78232000Y-111760000D01*
X80772000Y-86360000D02*
X80772000Y-83820000D01*
X80772000Y-83820000D02*
X80772000Y-81280000D01*
X80772000Y-81280000D02*
X80772000Y-78740000D01*
X80772000Y-78740000D02*
X80772000Y-76200000D01*
X103632000Y-88900000D02*
X103632000Y-91440000D01*
X103632000Y-91440000D02*
X103632000Y-93980000D01*
X103632000Y-93980000D02*
X103632000Y-96520000D01*
X103632000Y-96520000D02*
X103632000Y-99060000D01*
X78232000Y-86360000D02*
X78232000Y-83820000D01*
X78232000Y-83820000D02*
X78232000Y-81280000D01*
X78232000Y-81280000D02*
X78232000Y-78740000D01*
X78232000Y-78740000D02*
X78232000Y-76200000D01*
X83312000Y-101600000D02*
X83312000Y-104140000D01*
X83312000Y-104140000D02*
X83312000Y-106680000D01*
X83312000Y-106680000D02*
X83312000Y-109220000D01*
X83312000Y-109220000D02*
X83312000Y-111760000D01*
X90932000Y-111760000D02*
X90932000Y-109220000D01*
X90932000Y-109220000D02*
X90932000Y-106680000D01*
X90932000Y-106680000D02*
X90932000Y-104140000D01*
X90932000Y-104140000D02*
X90932000Y-101600000D01*
X106172000Y-88900000D02*
X106172000Y-91440000D01*
X106172000Y-91440000D02*
X106172000Y-93980000D01*
X106172000Y-93980000D02*
X106172000Y-96520000D01*
X106172000Y-96520000D02*
X106172000Y-99060000D01*
X96012000Y-101600000D02*
X96012000Y-104140000D01*
X96012000Y-104140000D02*
X96012000Y-106680000D01*
X96012000Y-106680000D02*
X96012000Y-109220000D01*
X96012000Y-109220000D02*
X96012000Y-111760000D01*
X85852000Y-101600000D02*
X85852000Y-104140000D01*
X85852000Y-104140000D02*
X85852000Y-106680000D01*
X85852000Y-106680000D02*
X85852000Y-109220000D01*
X85852000Y-109220000D02*
X85852000Y-111760000D01*
X93472000Y-99060000D02*
X93472000Y-96520000D01*
X93472000Y-96520000D02*
X93472000Y-93980000D01*
X93472000Y-93980000D02*
X93472000Y-91440000D01*
X93472000Y-91440000D02*
X93472000Y-88900000D01*
X90932000Y-88900000D02*
X90932000Y-91440000D01*
X90932000Y-91440000D02*
X90932000Y-93980000D01*
X90932000Y-93980000D02*
X90932000Y-96520000D01*
X90932000Y-96520000D02*
X90932000Y-99060000D01*
X101092000Y-111760000D02*
X101092000Y-109220000D01*
X101092000Y-109220000D02*
X101092000Y-106680000D01*
X101092000Y-106680000D02*
X101092000Y-104140000D01*
X101092000Y-104140000D02*
X101092000Y-101600000D01*
X96012000Y-88900000D02*
X96012000Y-91440000D01*
X96012000Y-91440000D02*
X96012000Y-93980000D01*
X96012000Y-93980000D02*
X96012000Y-96520000D01*
X96012000Y-96520000D02*
X96012000Y-99060000D01*
X88392000Y-101600000D02*
X88392000Y-104140000D01*
X88392000Y-104140000D02*
X88392000Y-106680000D01*
X88392000Y-106680000D02*
X88392000Y-109220000D01*
X88392000Y-109220000D02*
X88392000Y-111760000D01*
X106172000Y-101600000D02*
X106172000Y-104140000D01*
X106172000Y-104140000D02*
X106172000Y-106680000D01*
X106172000Y-106680000D02*
X106172000Y-109220000D01*
X106172000Y-109220000D02*
X106172000Y-111760000D01*
X98552000Y-101600000D02*
X98552000Y-104140000D01*
X98552000Y-104140000D02*
X98552000Y-106680000D01*
X98552000Y-106680000D02*
X98552000Y-109220000D01*
X98552000Y-109220000D02*
X98552000Y-111760000D01*
X98552000Y-88900000D02*
X98552000Y-91440000D01*
X98552000Y-91440000D02*
X98552000Y-93980000D01*
X98552000Y-93980000D02*
X98552000Y-96520000D01*
X98552000Y-96520000D02*
X98552000Y-99060000D01*
X80772000Y-99060000D02*
X80772000Y-96520000D01*
X80772000Y-96520000D02*
X80772000Y-93980000D01*
X80772000Y-93980000D02*
X80772000Y-91440000D01*
X80772000Y-91440000D02*
X80772000Y-88900000D01*
X103632000Y-101600000D02*
X103632000Y-104140000D01*
X103632000Y-104140000D02*
X103632000Y-106680000D01*
X103632000Y-106680000D02*
X103632000Y-109220000D01*
X103632000Y-109220000D02*
X103632000Y-111760000D01*
X88392000Y-99060000D02*
X88392000Y-96520000D01*
X88392000Y-96520000D02*
X88392000Y-93980000D01*
X88392000Y-93980000D02*
X88392000Y-91440000D01*
X88392000Y-91440000D02*
X88392000Y-88900000D01*
D13*
G36*
X124980020Y-68289951D02*
X125056532Y-68297993D01*
X125416322Y-68316849D01*
X125734123Y-68367184D01*
X126044918Y-68450462D01*
X126345306Y-68565770D01*
X126631999Y-68711847D01*
X126901853Y-68887093D01*
X127151903Y-69089579D01*
X127379424Y-69317101D01*
X127581910Y-69567151D01*
X127757153Y-69837001D01*
X127903229Y-70123691D01*
X128018541Y-70424090D01*
X128101816Y-70734876D01*
X128152151Y-71052678D01*
X128170000Y-71393254D01*
X128170001Y-129266727D01*
X128152151Y-129607322D01*
X128101816Y-129925124D01*
X128018541Y-130235910D01*
X127903229Y-130536309D01*
X127757153Y-130822999D01*
X127581910Y-131092849D01*
X127379424Y-131342899D01*
X127151903Y-131570421D01*
X126901853Y-131772907D01*
X126631999Y-131948153D01*
X126345306Y-132094230D01*
X126044918Y-132209538D01*
X125734123Y-132292816D01*
X125416322Y-132343151D01*
X125056532Y-132362007D01*
X124980020Y-132370049D01*
X124904979Y-132386000D01*
X76263021Y-132386000D01*
X76187980Y-132370049D01*
X76111468Y-132362007D01*
X75751678Y-132343151D01*
X75433876Y-132292816D01*
X75123090Y-132209541D01*
X74822691Y-132094229D01*
X74536001Y-131948153D01*
X74266151Y-131772910D01*
X74016101Y-131570424D01*
X73788579Y-131342903D01*
X73586093Y-131092853D01*
X73410847Y-130822999D01*
X73264770Y-130536306D01*
X73149462Y-130235918D01*
X73066184Y-129925123D01*
X73015849Y-129607322D01*
X72996993Y-129247532D01*
X72988951Y-129171020D01*
X72973000Y-129095979D01*
X72973000Y-128935159D01*
X74110000Y-128935159D01*
X74110000Y-129724841D01*
X74412199Y-130454412D01*
X74970588Y-131012801D01*
X75700159Y-131315000D01*
X76489841Y-131315000D01*
X77219412Y-131012801D01*
X77777801Y-130454412D01*
X78080000Y-129724841D01*
X78080000Y-128935159D01*
X123110000Y-128935159D01*
X123110000Y-129724841D01*
X123412199Y-130454412D01*
X123970588Y-131012801D01*
X124700159Y-131315000D01*
X125489841Y-131315000D01*
X126219412Y-131012801D01*
X126777801Y-130454412D01*
X127080000Y-129724841D01*
X127080000Y-128935159D01*
X126777801Y-128205588D01*
X126219412Y-127647199D01*
X125489841Y-127345000D01*
X124700159Y-127345000D01*
X123970588Y-127647199D01*
X123412199Y-128205588D01*
X123110000Y-128935159D01*
X78080000Y-128935159D01*
X77777801Y-128205588D01*
X77219412Y-127647199D01*
X76489841Y-127345000D01*
X75700159Y-127345000D01*
X74970588Y-127647199D01*
X74412199Y-128205588D01*
X74110000Y-128935159D01*
X72973000Y-128935159D01*
X72973000Y-76200000D01*
X74177908Y-76200000D01*
X74293161Y-76779418D01*
X74621375Y-77270625D01*
X74919761Y-77470000D01*
X74621375Y-77669375D01*
X74293161Y-78160582D01*
X74177908Y-78740000D01*
X74293161Y-79319418D01*
X74621375Y-79810625D01*
X74919761Y-80010000D01*
X74621375Y-80209375D01*
X74293161Y-80700582D01*
X74177908Y-81280000D01*
X74293161Y-81859418D01*
X74621375Y-82350625D01*
X74919761Y-82550000D01*
X74621375Y-82749375D01*
X74293161Y-83240582D01*
X74177908Y-83820000D01*
X74293161Y-84399418D01*
X74621375Y-84890625D01*
X74919761Y-85090000D01*
X74621375Y-85289375D01*
X74293161Y-85780582D01*
X74177908Y-86360000D01*
X74293161Y-86939418D01*
X74621375Y-87430625D01*
X74919761Y-87630000D01*
X74621375Y-87829375D01*
X74293161Y-88320582D01*
X74177908Y-88900000D01*
X74293161Y-89479418D01*
X74621375Y-89970625D01*
X74919761Y-90170000D01*
X74621375Y-90369375D01*
X74293161Y-90860582D01*
X74177908Y-91440000D01*
X74293161Y-92019418D01*
X74621375Y-92510625D01*
X74919761Y-92710000D01*
X74621375Y-92909375D01*
X74293161Y-93400582D01*
X74177908Y-93980000D01*
X74293161Y-94559418D01*
X74621375Y-95050625D01*
X74919761Y-95250000D01*
X74621375Y-95449375D01*
X74293161Y-95940582D01*
X74177908Y-96520000D01*
X74293161Y-97099418D01*
X74621375Y-97590625D01*
X74919761Y-97790000D01*
X74621375Y-97989375D01*
X74293161Y-98480582D01*
X74177908Y-99060000D01*
X74293161Y-99639418D01*
X74621375Y-100130625D01*
X74919761Y-100330000D01*
X74621375Y-100529375D01*
X74293161Y-101020582D01*
X74177908Y-101600000D01*
X74293161Y-102179418D01*
X74621375Y-102670625D01*
X74919761Y-102870000D01*
X74621375Y-103069375D01*
X74293161Y-103560582D01*
X74177908Y-104140000D01*
X74293161Y-104719418D01*
X74621375Y-105210625D01*
X74919761Y-105410000D01*
X74621375Y-105609375D01*
X74293161Y-106100582D01*
X74177908Y-106680000D01*
X74293161Y-107259418D01*
X74621375Y-107750625D01*
X74919761Y-107950000D01*
X74621375Y-108149375D01*
X74293161Y-108640582D01*
X74177908Y-109220000D01*
X74293161Y-109799418D01*
X74621375Y-110290625D01*
X74919761Y-110490000D01*
X74621375Y-110689375D01*
X74293161Y-111180582D01*
X74177908Y-111760000D01*
X74293161Y-112339418D01*
X74621375Y-112830625D01*
X74919761Y-113030000D01*
X74621375Y-113229375D01*
X74293161Y-113720582D01*
X74177908Y-114300000D01*
X74293161Y-114879418D01*
X74621375Y-115370625D01*
X74919761Y-115570000D01*
X74621375Y-115769375D01*
X74293161Y-116260582D01*
X74177908Y-116840000D01*
X74293161Y-117419418D01*
X74621375Y-117910625D01*
X74919761Y-118110000D01*
X74621375Y-118309375D01*
X74293161Y-118800582D01*
X74177908Y-119380000D01*
X74293161Y-119959418D01*
X74621375Y-120450625D01*
X74919761Y-120650000D01*
X74621375Y-120849375D01*
X74293161Y-121340582D01*
X74177908Y-121920000D01*
X74293161Y-122499418D01*
X74621375Y-122990625D01*
X74919761Y-123190000D01*
X74621375Y-123389375D01*
X74293161Y-123880582D01*
X74177908Y-124460000D01*
X74293161Y-125039418D01*
X74621375Y-125530625D01*
X75112582Y-125858839D01*
X75545744Y-125945000D01*
X75838256Y-125945000D01*
X76271418Y-125858839D01*
X76762625Y-125530625D01*
X76962000Y-125232239D01*
X77161375Y-125530625D01*
X77652582Y-125858839D01*
X78085744Y-125945000D01*
X78378256Y-125945000D01*
X78811418Y-125858839D01*
X79302625Y-125530625D01*
X79502000Y-125232239D01*
X79701375Y-125530625D01*
X80192582Y-125858839D01*
X80625744Y-125945000D01*
X80918256Y-125945000D01*
X81351418Y-125858839D01*
X81842625Y-125530625D01*
X82042000Y-125232239D01*
X82241375Y-125530625D01*
X82732582Y-125858839D01*
X83165744Y-125945000D01*
X83458256Y-125945000D01*
X83891418Y-125858839D01*
X84382625Y-125530625D01*
X84582000Y-125232239D01*
X84781375Y-125530625D01*
X85272582Y-125858839D01*
X85705744Y-125945000D01*
X85998256Y-125945000D01*
X86431418Y-125858839D01*
X86922625Y-125530625D01*
X87122000Y-125232239D01*
X87321375Y-125530625D01*
X87812582Y-125858839D01*
X88245744Y-125945000D01*
X88538256Y-125945000D01*
X88971418Y-125858839D01*
X89462625Y-125530625D01*
X89662000Y-125232239D01*
X89861375Y-125530625D01*
X90352582Y-125858839D01*
X90785744Y-125945000D01*
X91078256Y-125945000D01*
X91511418Y-125858839D01*
X92002625Y-125530625D01*
X92202000Y-125232239D01*
X92401375Y-125530625D01*
X92892582Y-125858839D01*
X93325744Y-125945000D01*
X93618256Y-125945000D01*
X94051418Y-125858839D01*
X94542625Y-125530625D01*
X94742000Y-125232239D01*
X94941375Y-125530625D01*
X95432582Y-125858839D01*
X95865744Y-125945000D01*
X96158256Y-125945000D01*
X96591418Y-125858839D01*
X97082625Y-125530625D01*
X97282000Y-125232239D01*
X97481375Y-125530625D01*
X97972582Y-125858839D01*
X98405744Y-125945000D01*
X98698256Y-125945000D01*
X99131418Y-125858839D01*
X99622625Y-125530625D01*
X99822000Y-125232239D01*
X100021375Y-125530625D01*
X100512582Y-125858839D01*
X100945744Y-125945000D01*
X101238256Y-125945000D01*
X101671418Y-125858839D01*
X102162625Y-125530625D01*
X102362000Y-125232239D01*
X102561375Y-125530625D01*
X103052582Y-125858839D01*
X103485744Y-125945000D01*
X103778256Y-125945000D01*
X104211418Y-125858839D01*
X104702625Y-125530625D01*
X104902000Y-125232239D01*
X105101375Y-125530625D01*
X105592582Y-125858839D01*
X106025744Y-125945000D01*
X106318256Y-125945000D01*
X106751418Y-125858839D01*
X107242625Y-125530625D01*
X107570839Y-125039418D01*
X107615102Y-124816890D01*
X112350524Y-124816890D01*
X112520355Y-125226924D01*
X112910642Y-125655183D01*
X113435108Y-125901486D01*
X113665000Y-125780819D01*
X113665000Y-124587000D01*
X112471845Y-124587000D01*
X112350524Y-124816890D01*
X107615102Y-124816890D01*
X107686092Y-124460000D01*
X107570839Y-123880582D01*
X107242625Y-123389375D01*
X106944239Y-123190000D01*
X107242625Y-122990625D01*
X107570839Y-122499418D01*
X107686092Y-121920000D01*
X107570839Y-121340582D01*
X107242625Y-120849375D01*
X106944239Y-120650000D01*
X107242625Y-120450625D01*
X107570839Y-119959418D01*
X107686092Y-119380000D01*
X107570839Y-118800582D01*
X107242625Y-118309375D01*
X106944239Y-118110000D01*
X107242625Y-117910625D01*
X107570839Y-117419418D01*
X107686092Y-116840000D01*
X107570839Y-116260582D01*
X107242625Y-115769375D01*
X106944239Y-115570000D01*
X107242625Y-115370625D01*
X107570839Y-114879418D01*
X107686092Y-114300000D01*
X107570839Y-113720582D01*
X107242625Y-113229375D01*
X106944239Y-113030000D01*
X107242625Y-112830625D01*
X107570839Y-112339418D01*
X107686092Y-111760000D01*
X107570839Y-111180582D01*
X107242625Y-110689375D01*
X106944239Y-110490000D01*
X107242625Y-110290625D01*
X107570839Y-109799418D01*
X107686092Y-109220000D01*
X107570839Y-108640582D01*
X107242625Y-108149375D01*
X106944239Y-107950000D01*
X107242625Y-107750625D01*
X107570839Y-107259418D01*
X107686092Y-106680000D01*
X107570839Y-106100582D01*
X107242625Y-105609375D01*
X106944239Y-105410000D01*
X107242625Y-105210625D01*
X107570839Y-104719418D01*
X107686092Y-104140000D01*
X107570839Y-103560582D01*
X107242625Y-103069375D01*
X106944239Y-102870000D01*
X107242625Y-102670625D01*
X107570839Y-102179418D01*
X107686092Y-101600000D01*
X107570839Y-101020582D01*
X107242625Y-100529375D01*
X106944239Y-100330000D01*
X107242625Y-100130625D01*
X107570839Y-99639418D01*
X107686092Y-99060000D01*
X107570839Y-98480582D01*
X107242625Y-97989375D01*
X106944239Y-97790000D01*
X107242625Y-97590625D01*
X107570839Y-97099418D01*
X107686092Y-96520000D01*
X107570839Y-95940582D01*
X107242625Y-95449375D01*
X106944239Y-95250000D01*
X107242625Y-95050625D01*
X107570839Y-94559418D01*
X107686092Y-93980000D01*
X107570839Y-93400582D01*
X107242625Y-92909375D01*
X106944239Y-92710000D01*
X107242625Y-92510625D01*
X107570839Y-92019418D01*
X107686092Y-91440000D01*
X107570839Y-90860582D01*
X107242625Y-90369375D01*
X106944239Y-90170000D01*
X107242625Y-89970625D01*
X107570839Y-89479418D01*
X107686092Y-88900000D01*
X107570839Y-88320582D01*
X107242625Y-87829375D01*
X106944239Y-87630000D01*
X107242625Y-87430625D01*
X107570839Y-86939418D01*
X107686092Y-86360000D01*
X107570839Y-85780582D01*
X107242625Y-85289375D01*
X106944239Y-85090000D01*
X107242625Y-84890625D01*
X107570839Y-84399418D01*
X107686092Y-83820000D01*
X107570839Y-83240582D01*
X107242625Y-82749375D01*
X106944239Y-82550000D01*
X107242625Y-82350625D01*
X107570839Y-81859418D01*
X107686092Y-81280000D01*
X107570839Y-80700582D01*
X107242625Y-80209375D01*
X106944239Y-80010000D01*
X107242625Y-79810625D01*
X107570839Y-79319418D01*
X107686092Y-78740000D01*
X112277908Y-78740000D01*
X112393161Y-79319418D01*
X112721375Y-79810625D01*
X113019761Y-80010000D01*
X112721375Y-80209375D01*
X112393161Y-80700582D01*
X112277908Y-81280000D01*
X112393161Y-81859418D01*
X112721375Y-82350625D01*
X113019761Y-82550000D01*
X112721375Y-82749375D01*
X112393161Y-83240582D01*
X112277908Y-83820000D01*
X112393161Y-84399418D01*
X112721375Y-84890625D01*
X113040478Y-85103843D01*
X112910642Y-85164817D01*
X112520355Y-85593076D01*
X112350524Y-86003110D01*
X112471845Y-86233000D01*
X113665000Y-86233000D01*
X113665000Y-86213000D01*
X113919000Y-86213000D01*
X113919000Y-86233000D01*
X113939000Y-86233000D01*
X113939000Y-86487000D01*
X113919000Y-86487000D01*
X113919000Y-86507000D01*
X113665000Y-86507000D01*
X113665000Y-86487000D01*
X112471845Y-86487000D01*
X112350524Y-86716890D01*
X112520355Y-87126924D01*
X112910642Y-87555183D01*
X113040478Y-87616157D01*
X112721375Y-87829375D01*
X112393161Y-88320582D01*
X112277908Y-88900000D01*
X112393161Y-89479418D01*
X112721375Y-89970625D01*
X113019761Y-90170000D01*
X112721375Y-90369375D01*
X112393161Y-90860582D01*
X112277908Y-91440000D01*
X112393161Y-92019418D01*
X112721375Y-92510625D01*
X113019761Y-92710000D01*
X112721375Y-92909375D01*
X112393161Y-93400582D01*
X112277908Y-93980000D01*
X112393161Y-94559418D01*
X112721375Y-95050625D01*
X113019761Y-95250000D01*
X112721375Y-95449375D01*
X112393161Y-95940582D01*
X112277908Y-96520000D01*
X112393161Y-97099418D01*
X112721375Y-97590625D01*
X113019761Y-97790000D01*
X112721375Y-97989375D01*
X112393161Y-98480582D01*
X112277908Y-99060000D01*
X112393161Y-99639418D01*
X112721375Y-100130625D01*
X113019761Y-100330000D01*
X112721375Y-100529375D01*
X112393161Y-101020582D01*
X112277908Y-101600000D01*
X112393161Y-102179418D01*
X112721375Y-102670625D01*
X113019761Y-102870000D01*
X112721375Y-103069375D01*
X112393161Y-103560582D01*
X112277908Y-104140000D01*
X112393161Y-104719418D01*
X112721375Y-105210625D01*
X113040478Y-105423843D01*
X112910642Y-105484817D01*
X112520355Y-105913076D01*
X112350524Y-106323110D01*
X112471845Y-106553000D01*
X113665000Y-106553000D01*
X113665000Y-106533000D01*
X113919000Y-106533000D01*
X113919000Y-106553000D01*
X113939000Y-106553000D01*
X113939000Y-106807000D01*
X113919000Y-106807000D01*
X113919000Y-106827000D01*
X113665000Y-106827000D01*
X113665000Y-106807000D01*
X112471845Y-106807000D01*
X112350524Y-107036890D01*
X112520355Y-107446924D01*
X112910642Y-107875183D01*
X113040478Y-107936157D01*
X112721375Y-108149375D01*
X112393161Y-108640582D01*
X112277908Y-109220000D01*
X112393161Y-109799418D01*
X112721375Y-110290625D01*
X113019761Y-110490000D01*
X112721375Y-110689375D01*
X112393161Y-111180582D01*
X112277908Y-111760000D01*
X112393161Y-112339418D01*
X112721375Y-112830625D01*
X113019761Y-113030000D01*
X112721375Y-113229375D01*
X112393161Y-113720582D01*
X112277908Y-114300000D01*
X112393161Y-114879418D01*
X112721375Y-115370625D01*
X113019761Y-115570000D01*
X112721375Y-115769375D01*
X112393161Y-116260582D01*
X112277908Y-116840000D01*
X112393161Y-117419418D01*
X112721375Y-117910625D01*
X113019761Y-118110000D01*
X112721375Y-118309375D01*
X112393161Y-118800582D01*
X112277908Y-119380000D01*
X112393161Y-119959418D01*
X112721375Y-120450625D01*
X113019761Y-120650000D01*
X112721375Y-120849375D01*
X112393161Y-121340582D01*
X112277908Y-121920000D01*
X112393161Y-122499418D01*
X112721375Y-122990625D01*
X113040478Y-123203843D01*
X112910642Y-123264817D01*
X112520355Y-123693076D01*
X112350524Y-124103110D01*
X112471845Y-124333000D01*
X113665000Y-124333000D01*
X113665000Y-124313000D01*
X113919000Y-124313000D01*
X113919000Y-124333000D01*
X113939000Y-124333000D01*
X113939000Y-124587000D01*
X113919000Y-124587000D01*
X113919000Y-125780819D01*
X114148892Y-125901486D01*
X114673358Y-125655183D01*
X115060647Y-125230214D01*
X115261375Y-125530625D01*
X115752582Y-125858839D01*
X116185744Y-125945000D01*
X116478256Y-125945000D01*
X116911418Y-125858839D01*
X117402625Y-125530625D01*
X117730839Y-125039418D01*
X117775102Y-124816890D01*
X122510524Y-124816890D01*
X122680355Y-125226924D01*
X123070642Y-125655183D01*
X123595108Y-125901486D01*
X123825000Y-125780819D01*
X123825000Y-124587000D01*
X122631845Y-124587000D01*
X122510524Y-124816890D01*
X117775102Y-124816890D01*
X117846092Y-124460000D01*
X117730839Y-123880582D01*
X117402625Y-123389375D01*
X117104239Y-123190000D01*
X117402625Y-122990625D01*
X117730839Y-122499418D01*
X117846092Y-121920000D01*
X117763484Y-121504700D01*
X121286599Y-121504700D01*
X122186371Y-122404473D01*
X122228771Y-122467929D01*
X122480163Y-122635904D01*
X122669526Y-122673571D01*
X122881375Y-122990625D01*
X123200478Y-123203843D01*
X123070642Y-123264817D01*
X122680355Y-123693076D01*
X122510524Y-124103110D01*
X122631845Y-124333000D01*
X123825000Y-124333000D01*
X123825000Y-124313000D01*
X124079000Y-124313000D01*
X124079000Y-124333000D01*
X124099000Y-124333000D01*
X124099000Y-124587000D01*
X124079000Y-124587000D01*
X124079000Y-125780819D01*
X124308892Y-125901486D01*
X124833358Y-125655183D01*
X125220647Y-125230214D01*
X125421375Y-125530625D01*
X125912582Y-125858839D01*
X126345744Y-125945000D01*
X126638256Y-125945000D01*
X127071418Y-125858839D01*
X127562625Y-125530625D01*
X127890839Y-125039418D01*
X128006092Y-124460000D01*
X127890839Y-123880582D01*
X127562625Y-123389375D01*
X127264239Y-123190000D01*
X127562625Y-122990625D01*
X127890839Y-122499418D01*
X128006092Y-121920000D01*
X127890839Y-121340582D01*
X127562625Y-120849375D01*
X127264239Y-120650000D01*
X127562625Y-120450625D01*
X127890839Y-119959418D01*
X128006092Y-119380000D01*
X127890839Y-118800582D01*
X127562625Y-118309375D01*
X127243522Y-118096157D01*
X127373358Y-118035183D01*
X127763645Y-117606924D01*
X127933476Y-117196890D01*
X127812155Y-116967000D01*
X126619000Y-116967000D01*
X126619000Y-116987000D01*
X126365000Y-116987000D01*
X126365000Y-116967000D01*
X126345000Y-116967000D01*
X126345000Y-116713000D01*
X126365000Y-116713000D01*
X126365000Y-116693000D01*
X126619000Y-116693000D01*
X126619000Y-116713000D01*
X127812155Y-116713000D01*
X127933476Y-116483110D01*
X127763645Y-116073076D01*
X127373358Y-115644817D01*
X127243522Y-115583843D01*
X127562625Y-115370625D01*
X127890839Y-114879418D01*
X128006092Y-114300000D01*
X127890839Y-113720582D01*
X127562625Y-113229375D01*
X127243522Y-113016157D01*
X127373358Y-112955183D01*
X127763645Y-112526924D01*
X127933476Y-112116890D01*
X127812155Y-111887000D01*
X126619000Y-111887000D01*
X126619000Y-111907000D01*
X126365000Y-111907000D01*
X126365000Y-111887000D01*
X126345000Y-111887000D01*
X126345000Y-111633000D01*
X126365000Y-111633000D01*
X126365000Y-111613000D01*
X126619000Y-111613000D01*
X126619000Y-111633000D01*
X127812155Y-111633000D01*
X127933476Y-111403110D01*
X127763645Y-110993076D01*
X127373358Y-110564817D01*
X127243522Y-110503843D01*
X127562625Y-110290625D01*
X127890839Y-109799418D01*
X128006092Y-109220000D01*
X127890839Y-108640582D01*
X127562625Y-108149375D01*
X127264239Y-107950000D01*
X127562625Y-107750625D01*
X127890839Y-107259418D01*
X128006092Y-106680000D01*
X127890839Y-106100582D01*
X127562625Y-105609375D01*
X127264239Y-105410000D01*
X127562625Y-105210625D01*
X127890839Y-104719418D01*
X128006092Y-104140000D01*
X127890839Y-103560582D01*
X127562625Y-103069375D01*
X127264239Y-102870000D01*
X127562625Y-102670625D01*
X127890839Y-102179418D01*
X128006092Y-101600000D01*
X127890839Y-101020582D01*
X127562625Y-100529375D01*
X127243522Y-100316157D01*
X127373358Y-100255183D01*
X127763645Y-99826924D01*
X127933476Y-99416890D01*
X127812155Y-99187000D01*
X126619000Y-99187000D01*
X126619000Y-99207000D01*
X126365000Y-99207000D01*
X126365000Y-99187000D01*
X126345000Y-99187000D01*
X126345000Y-98933000D01*
X126365000Y-98933000D01*
X126365000Y-98913000D01*
X126619000Y-98913000D01*
X126619000Y-98933000D01*
X127812155Y-98933000D01*
X127933476Y-98703110D01*
X127763645Y-98293076D01*
X127373358Y-97864817D01*
X127243522Y-97803843D01*
X127562625Y-97590625D01*
X127890839Y-97099418D01*
X128006092Y-96520000D01*
X127890839Y-95940582D01*
X127562625Y-95449375D01*
X127264239Y-95250000D01*
X127562625Y-95050625D01*
X127890839Y-94559418D01*
X128006092Y-93980000D01*
X127890839Y-93400582D01*
X127562625Y-92909375D01*
X127243522Y-92696157D01*
X127373358Y-92635183D01*
X127763645Y-92206924D01*
X127933476Y-91796890D01*
X127812155Y-91567000D01*
X126619000Y-91567000D01*
X126619000Y-91587000D01*
X126365000Y-91587000D01*
X126365000Y-91567000D01*
X126345000Y-91567000D01*
X126345000Y-91313000D01*
X126365000Y-91313000D01*
X126365000Y-91293000D01*
X126619000Y-91293000D01*
X126619000Y-91313000D01*
X127812155Y-91313000D01*
X127933476Y-91083110D01*
X127763645Y-90673076D01*
X127373358Y-90244817D01*
X127243522Y-90183843D01*
X127562625Y-89970625D01*
X127890839Y-89479418D01*
X128006092Y-88900000D01*
X127890839Y-88320582D01*
X127562625Y-87829375D01*
X127264239Y-87630000D01*
X127562625Y-87430625D01*
X127890839Y-86939418D01*
X128006092Y-86360000D01*
X127890839Y-85780582D01*
X127562625Y-85289375D01*
X127264239Y-85090000D01*
X127562625Y-84890625D01*
X127890839Y-84399418D01*
X128006092Y-83820000D01*
X127890839Y-83240582D01*
X127562625Y-82749375D01*
X127243522Y-82536157D01*
X127373358Y-82475183D01*
X127763645Y-82046924D01*
X127933476Y-81636890D01*
X127812155Y-81407000D01*
X126619000Y-81407000D01*
X126619000Y-81427000D01*
X126365000Y-81427000D01*
X126365000Y-81407000D01*
X126345000Y-81407000D01*
X126345000Y-81153000D01*
X126365000Y-81153000D01*
X126365000Y-81133000D01*
X126619000Y-81133000D01*
X126619000Y-81153000D01*
X127812155Y-81153000D01*
X127933476Y-80923110D01*
X127763645Y-80513076D01*
X127373358Y-80084817D01*
X127243522Y-80023843D01*
X127562625Y-79810625D01*
X127890839Y-79319418D01*
X128006092Y-78740000D01*
X127890839Y-78160582D01*
X127562625Y-77669375D01*
X127264239Y-77470000D01*
X127562625Y-77270625D01*
X127890839Y-76779418D01*
X128006092Y-76200000D01*
X127890839Y-75620582D01*
X127562625Y-75129375D01*
X127071418Y-74801161D01*
X126638256Y-74715000D01*
X126345744Y-74715000D01*
X125912582Y-74801161D01*
X125421375Y-75129375D01*
X125409184Y-75147619D01*
X125400157Y-75102235D01*
X125259809Y-74892191D01*
X125049765Y-74751843D01*
X124802000Y-74702560D01*
X123102000Y-74702560D01*
X122854235Y-74751843D01*
X122644191Y-74892191D01*
X122503843Y-75102235D01*
X122454560Y-75350000D01*
X122454560Y-75501203D01*
X122228771Y-75652071D01*
X122186371Y-75715527D01*
X118705199Y-79196700D01*
X117755249Y-79196700D01*
X117846092Y-78740000D01*
X117730839Y-78160582D01*
X117402625Y-77669375D01*
X117384381Y-77657184D01*
X117429765Y-77648157D01*
X117639809Y-77507809D01*
X117780157Y-77297765D01*
X117829440Y-77050000D01*
X117829440Y-75350000D01*
X117780157Y-75102235D01*
X117639809Y-74892191D01*
X117429765Y-74751843D01*
X117182000Y-74702560D01*
X115482000Y-74702560D01*
X115234235Y-74751843D01*
X115062000Y-74866928D01*
X114889765Y-74751843D01*
X114642000Y-74702560D01*
X112942000Y-74702560D01*
X112694235Y-74751843D01*
X112484191Y-74892191D01*
X112343843Y-75102235D01*
X112294560Y-75350000D01*
X112294560Y-77050000D01*
X112343843Y-77297765D01*
X112484191Y-77507809D01*
X112694235Y-77648157D01*
X112739619Y-77657184D01*
X112721375Y-77669375D01*
X112393161Y-78160582D01*
X112277908Y-78740000D01*
X107686092Y-78740000D01*
X107570839Y-78160582D01*
X107242625Y-77669375D01*
X106944239Y-77470000D01*
X107242625Y-77270625D01*
X107570839Y-76779418D01*
X107686092Y-76200000D01*
X107570839Y-75620582D01*
X107242625Y-75129375D01*
X106751418Y-74801161D01*
X106318256Y-74715000D01*
X106025744Y-74715000D01*
X105592582Y-74801161D01*
X105101375Y-75129375D01*
X104902000Y-75427761D01*
X104702625Y-75129375D01*
X104211418Y-74801161D01*
X103778256Y-74715000D01*
X103485744Y-74715000D01*
X103052582Y-74801161D01*
X102561375Y-75129375D01*
X102362000Y-75427761D01*
X102162625Y-75129375D01*
X101671418Y-74801161D01*
X101238256Y-74715000D01*
X100945744Y-74715000D01*
X100512582Y-74801161D01*
X100021375Y-75129375D01*
X99822000Y-75427761D01*
X99622625Y-75129375D01*
X99131418Y-74801161D01*
X98698256Y-74715000D01*
X98405744Y-74715000D01*
X97972582Y-74801161D01*
X97481375Y-75129375D01*
X97282000Y-75427761D01*
X97082625Y-75129375D01*
X96591418Y-74801161D01*
X96158256Y-74715000D01*
X95865744Y-74715000D01*
X95432582Y-74801161D01*
X94941375Y-75129375D01*
X94742000Y-75427761D01*
X94542625Y-75129375D01*
X94051418Y-74801161D01*
X93618256Y-74715000D01*
X93325744Y-74715000D01*
X92892582Y-74801161D01*
X92401375Y-75129375D01*
X92202000Y-75427761D01*
X92002625Y-75129375D01*
X91511418Y-74801161D01*
X91078256Y-74715000D01*
X90785744Y-74715000D01*
X90352582Y-74801161D01*
X89861375Y-75129375D01*
X89662000Y-75427761D01*
X89462625Y-75129375D01*
X88971418Y-74801161D01*
X88538256Y-74715000D01*
X88245744Y-74715000D01*
X87812582Y-74801161D01*
X87321375Y-75129375D01*
X87122000Y-75427761D01*
X86922625Y-75129375D01*
X86431418Y-74801161D01*
X85998256Y-74715000D01*
X85705744Y-74715000D01*
X85272582Y-74801161D01*
X84781375Y-75129375D01*
X84582000Y-75427761D01*
X84382625Y-75129375D01*
X83891418Y-74801161D01*
X83458256Y-74715000D01*
X83165744Y-74715000D01*
X82732582Y-74801161D01*
X82241375Y-75129375D01*
X82042000Y-75427761D01*
X81842625Y-75129375D01*
X81351418Y-74801161D01*
X80918256Y-74715000D01*
X80625744Y-74715000D01*
X80192582Y-74801161D01*
X79701375Y-75129375D01*
X79502000Y-75427761D01*
X79302625Y-75129375D01*
X78811418Y-74801161D01*
X78378256Y-74715000D01*
X78085744Y-74715000D01*
X77652582Y-74801161D01*
X77161375Y-75129375D01*
X76962000Y-75427761D01*
X76762625Y-75129375D01*
X76271418Y-74801161D01*
X75838256Y-74715000D01*
X75545744Y-74715000D01*
X75112582Y-74801161D01*
X74621375Y-75129375D01*
X74293161Y-75620582D01*
X74177908Y-76200000D01*
X72973000Y-76200000D01*
X72973000Y-71564021D01*
X72988951Y-71488980D01*
X72996993Y-71412468D01*
X73015849Y-71052678D01*
X73034462Y-70935159D01*
X74110000Y-70935159D01*
X74110000Y-71724841D01*
X74412199Y-72454412D01*
X74970588Y-73012801D01*
X75700159Y-73315000D01*
X76489841Y-73315000D01*
X77219412Y-73012801D01*
X77777801Y-72454412D01*
X78080000Y-71724841D01*
X78080000Y-70935159D01*
X123110000Y-70935159D01*
X123110000Y-71724841D01*
X123412199Y-72454412D01*
X123970588Y-73012801D01*
X124700159Y-73315000D01*
X125489841Y-73315000D01*
X126219412Y-73012801D01*
X126777801Y-72454412D01*
X127080000Y-71724841D01*
X127080000Y-70935159D01*
X126777801Y-70205588D01*
X126219412Y-69647199D01*
X125489841Y-69345000D01*
X124700159Y-69345000D01*
X123970588Y-69647199D01*
X123412199Y-70205588D01*
X123110000Y-70935159D01*
X78080000Y-70935159D01*
X77777801Y-70205588D01*
X77219412Y-69647199D01*
X76489841Y-69345000D01*
X75700159Y-69345000D01*
X74970588Y-69647199D01*
X74412199Y-70205588D01*
X74110000Y-70935159D01*
X73034462Y-70935159D01*
X73066184Y-70734877D01*
X73149462Y-70424082D01*
X73264770Y-70123694D01*
X73410847Y-69837001D01*
X73586093Y-69567147D01*
X73788579Y-69317097D01*
X74016101Y-69089576D01*
X74266151Y-68887090D01*
X74536001Y-68711847D01*
X74822691Y-68565771D01*
X75123090Y-68450459D01*
X75433876Y-68367184D01*
X75751678Y-68316849D01*
X76111468Y-68297993D01*
X76187980Y-68289951D01*
X76263021Y-68274000D01*
X124904979Y-68274000D01*
X124980020Y-68289951D01*
X124980020Y-68289951D01*
G37*
X124980020Y-68289951D02*
X125056532Y-68297993D01*
X125416322Y-68316849D01*
X125734123Y-68367184D01*
X126044918Y-68450462D01*
X126345306Y-68565770D01*
X126631999Y-68711847D01*
X126901853Y-68887093D01*
X127151903Y-69089579D01*
X127379424Y-69317101D01*
X127581910Y-69567151D01*
X127757153Y-69837001D01*
X127903229Y-70123691D01*
X128018541Y-70424090D01*
X128101816Y-70734876D01*
X128152151Y-71052678D01*
X128170000Y-71393254D01*
X128170001Y-129266727D01*
X128152151Y-129607322D01*
X128101816Y-129925124D01*
X128018541Y-130235910D01*
X127903229Y-130536309D01*
X127757153Y-130822999D01*
X127581910Y-131092849D01*
X127379424Y-131342899D01*
X127151903Y-131570421D01*
X126901853Y-131772907D01*
X126631999Y-131948153D01*
X126345306Y-132094230D01*
X126044918Y-132209538D01*
X125734123Y-132292816D01*
X125416322Y-132343151D01*
X125056532Y-132362007D01*
X124980020Y-132370049D01*
X124904979Y-132386000D01*
X76263021Y-132386000D01*
X76187980Y-132370049D01*
X76111468Y-132362007D01*
X75751678Y-132343151D01*
X75433876Y-132292816D01*
X75123090Y-132209541D01*
X74822691Y-132094229D01*
X74536001Y-131948153D01*
X74266151Y-131772910D01*
X74016101Y-131570424D01*
X73788579Y-131342903D01*
X73586093Y-131092853D01*
X73410847Y-130822999D01*
X73264770Y-130536306D01*
X73149462Y-130235918D01*
X73066184Y-129925123D01*
X73015849Y-129607322D01*
X72996993Y-129247532D01*
X72988951Y-129171020D01*
X72973000Y-129095979D01*
X72973000Y-128935159D01*
X74110000Y-128935159D01*
X74110000Y-129724841D01*
X74412199Y-130454412D01*
X74970588Y-131012801D01*
X75700159Y-131315000D01*
X76489841Y-131315000D01*
X77219412Y-131012801D01*
X77777801Y-130454412D01*
X78080000Y-129724841D01*
X78080000Y-128935159D01*
X123110000Y-128935159D01*
X123110000Y-129724841D01*
X123412199Y-130454412D01*
X123970588Y-131012801D01*
X124700159Y-131315000D01*
X125489841Y-131315000D01*
X126219412Y-131012801D01*
X126777801Y-130454412D01*
X127080000Y-129724841D01*
X127080000Y-128935159D01*
X126777801Y-128205588D01*
X126219412Y-127647199D01*
X125489841Y-127345000D01*
X124700159Y-127345000D01*
X123970588Y-127647199D01*
X123412199Y-128205588D01*
X123110000Y-128935159D01*
X78080000Y-128935159D01*
X77777801Y-128205588D01*
X77219412Y-127647199D01*
X76489841Y-127345000D01*
X75700159Y-127345000D01*
X74970588Y-127647199D01*
X74412199Y-128205588D01*
X74110000Y-128935159D01*
X72973000Y-128935159D01*
X72973000Y-76200000D01*
X74177908Y-76200000D01*
X74293161Y-76779418D01*
X74621375Y-77270625D01*
X74919761Y-77470000D01*
X74621375Y-77669375D01*
X74293161Y-78160582D01*
X74177908Y-78740000D01*
X74293161Y-79319418D01*
X74621375Y-79810625D01*
X74919761Y-80010000D01*
X74621375Y-80209375D01*
X74293161Y-80700582D01*
X74177908Y-81280000D01*
X74293161Y-81859418D01*
X74621375Y-82350625D01*
X74919761Y-82550000D01*
X74621375Y-82749375D01*
X74293161Y-83240582D01*
X74177908Y-83820000D01*
X74293161Y-84399418D01*
X74621375Y-84890625D01*
X74919761Y-85090000D01*
X74621375Y-85289375D01*
X74293161Y-85780582D01*
X74177908Y-86360000D01*
X74293161Y-86939418D01*
X74621375Y-87430625D01*
X74919761Y-87630000D01*
X74621375Y-87829375D01*
X74293161Y-88320582D01*
X74177908Y-88900000D01*
X74293161Y-89479418D01*
X74621375Y-89970625D01*
X74919761Y-90170000D01*
X74621375Y-90369375D01*
X74293161Y-90860582D01*
X74177908Y-91440000D01*
X74293161Y-92019418D01*
X74621375Y-92510625D01*
X74919761Y-92710000D01*
X74621375Y-92909375D01*
X74293161Y-93400582D01*
X74177908Y-93980000D01*
X74293161Y-94559418D01*
X74621375Y-95050625D01*
X74919761Y-95250000D01*
X74621375Y-95449375D01*
X74293161Y-95940582D01*
X74177908Y-96520000D01*
X74293161Y-97099418D01*
X74621375Y-97590625D01*
X74919761Y-97790000D01*
X74621375Y-97989375D01*
X74293161Y-98480582D01*
X74177908Y-99060000D01*
X74293161Y-99639418D01*
X74621375Y-100130625D01*
X74919761Y-100330000D01*
X74621375Y-100529375D01*
X74293161Y-101020582D01*
X74177908Y-101600000D01*
X74293161Y-102179418D01*
X74621375Y-102670625D01*
X74919761Y-102870000D01*
X74621375Y-103069375D01*
X74293161Y-103560582D01*
X74177908Y-104140000D01*
X74293161Y-104719418D01*
X74621375Y-105210625D01*
X74919761Y-105410000D01*
X74621375Y-105609375D01*
X74293161Y-106100582D01*
X74177908Y-106680000D01*
X74293161Y-107259418D01*
X74621375Y-107750625D01*
X74919761Y-107950000D01*
X74621375Y-108149375D01*
X74293161Y-108640582D01*
X74177908Y-109220000D01*
X74293161Y-109799418D01*
X74621375Y-110290625D01*
X74919761Y-110490000D01*
X74621375Y-110689375D01*
X74293161Y-111180582D01*
X74177908Y-111760000D01*
X74293161Y-112339418D01*
X74621375Y-112830625D01*
X74919761Y-113030000D01*
X74621375Y-113229375D01*
X74293161Y-113720582D01*
X74177908Y-114300000D01*
X74293161Y-114879418D01*
X74621375Y-115370625D01*
X74919761Y-115570000D01*
X74621375Y-115769375D01*
X74293161Y-116260582D01*
X74177908Y-116840000D01*
X74293161Y-117419418D01*
X74621375Y-117910625D01*
X74919761Y-118110000D01*
X74621375Y-118309375D01*
X74293161Y-118800582D01*
X74177908Y-119380000D01*
X74293161Y-119959418D01*
X74621375Y-120450625D01*
X74919761Y-120650000D01*
X74621375Y-120849375D01*
X74293161Y-121340582D01*
X74177908Y-121920000D01*
X74293161Y-122499418D01*
X74621375Y-122990625D01*
X74919761Y-123190000D01*
X74621375Y-123389375D01*
X74293161Y-123880582D01*
X74177908Y-124460000D01*
X74293161Y-125039418D01*
X74621375Y-125530625D01*
X75112582Y-125858839D01*
X75545744Y-125945000D01*
X75838256Y-125945000D01*
X76271418Y-125858839D01*
X76762625Y-125530625D01*
X76962000Y-125232239D01*
X77161375Y-125530625D01*
X77652582Y-125858839D01*
X78085744Y-125945000D01*
X78378256Y-125945000D01*
X78811418Y-125858839D01*
X79302625Y-125530625D01*
X79502000Y-125232239D01*
X79701375Y-125530625D01*
X80192582Y-125858839D01*
X80625744Y-125945000D01*
X80918256Y-125945000D01*
X81351418Y-125858839D01*
X81842625Y-125530625D01*
X82042000Y-125232239D01*
X82241375Y-125530625D01*
X82732582Y-125858839D01*
X83165744Y-125945000D01*
X83458256Y-125945000D01*
X83891418Y-125858839D01*
X84382625Y-125530625D01*
X84582000Y-125232239D01*
X84781375Y-125530625D01*
X85272582Y-125858839D01*
X85705744Y-125945000D01*
X85998256Y-125945000D01*
X86431418Y-125858839D01*
X86922625Y-125530625D01*
X87122000Y-125232239D01*
X87321375Y-125530625D01*
X87812582Y-125858839D01*
X88245744Y-125945000D01*
X88538256Y-125945000D01*
X88971418Y-125858839D01*
X89462625Y-125530625D01*
X89662000Y-125232239D01*
X89861375Y-125530625D01*
X90352582Y-125858839D01*
X90785744Y-125945000D01*
X91078256Y-125945000D01*
X91511418Y-125858839D01*
X92002625Y-125530625D01*
X92202000Y-125232239D01*
X92401375Y-125530625D01*
X92892582Y-125858839D01*
X93325744Y-125945000D01*
X93618256Y-125945000D01*
X94051418Y-125858839D01*
X94542625Y-125530625D01*
X94742000Y-125232239D01*
X94941375Y-125530625D01*
X95432582Y-125858839D01*
X95865744Y-125945000D01*
X96158256Y-125945000D01*
X96591418Y-125858839D01*
X97082625Y-125530625D01*
X97282000Y-125232239D01*
X97481375Y-125530625D01*
X97972582Y-125858839D01*
X98405744Y-125945000D01*
X98698256Y-125945000D01*
X99131418Y-125858839D01*
X99622625Y-125530625D01*
X99822000Y-125232239D01*
X100021375Y-125530625D01*
X100512582Y-125858839D01*
X100945744Y-125945000D01*
X101238256Y-125945000D01*
X101671418Y-125858839D01*
X102162625Y-125530625D01*
X102362000Y-125232239D01*
X102561375Y-125530625D01*
X103052582Y-125858839D01*
X103485744Y-125945000D01*
X103778256Y-125945000D01*
X104211418Y-125858839D01*
X104702625Y-125530625D01*
X104902000Y-125232239D01*
X105101375Y-125530625D01*
X105592582Y-125858839D01*
X106025744Y-125945000D01*
X106318256Y-125945000D01*
X106751418Y-125858839D01*
X107242625Y-125530625D01*
X107570839Y-125039418D01*
X107615102Y-124816890D01*
X112350524Y-124816890D01*
X112520355Y-125226924D01*
X112910642Y-125655183D01*
X113435108Y-125901486D01*
X113665000Y-125780819D01*
X113665000Y-124587000D01*
X112471845Y-124587000D01*
X112350524Y-124816890D01*
X107615102Y-124816890D01*
X107686092Y-124460000D01*
X107570839Y-123880582D01*
X107242625Y-123389375D01*
X106944239Y-123190000D01*
X107242625Y-122990625D01*
X107570839Y-122499418D01*
X107686092Y-121920000D01*
X107570839Y-121340582D01*
X107242625Y-120849375D01*
X106944239Y-120650000D01*
X107242625Y-120450625D01*
X107570839Y-119959418D01*
X107686092Y-119380000D01*
X107570839Y-118800582D01*
X107242625Y-118309375D01*
X106944239Y-118110000D01*
X107242625Y-117910625D01*
X107570839Y-117419418D01*
X107686092Y-116840000D01*
X107570839Y-116260582D01*
X107242625Y-115769375D01*
X106944239Y-115570000D01*
X107242625Y-115370625D01*
X107570839Y-114879418D01*
X107686092Y-114300000D01*
X107570839Y-113720582D01*
X107242625Y-113229375D01*
X106944239Y-113030000D01*
X107242625Y-112830625D01*
X107570839Y-112339418D01*
X107686092Y-111760000D01*
X107570839Y-111180582D01*
X107242625Y-110689375D01*
X106944239Y-110490000D01*
X107242625Y-110290625D01*
X107570839Y-109799418D01*
X107686092Y-109220000D01*
X107570839Y-108640582D01*
X107242625Y-108149375D01*
X106944239Y-107950000D01*
X107242625Y-107750625D01*
X107570839Y-107259418D01*
X107686092Y-106680000D01*
X107570839Y-106100582D01*
X107242625Y-105609375D01*
X106944239Y-105410000D01*
X107242625Y-105210625D01*
X107570839Y-104719418D01*
X107686092Y-104140000D01*
X107570839Y-103560582D01*
X107242625Y-103069375D01*
X106944239Y-102870000D01*
X107242625Y-102670625D01*
X107570839Y-102179418D01*
X107686092Y-101600000D01*
X107570839Y-101020582D01*
X107242625Y-100529375D01*
X106944239Y-100330000D01*
X107242625Y-100130625D01*
X107570839Y-99639418D01*
X107686092Y-99060000D01*
X107570839Y-98480582D01*
X107242625Y-97989375D01*
X106944239Y-97790000D01*
X107242625Y-97590625D01*
X107570839Y-97099418D01*
X107686092Y-96520000D01*
X107570839Y-95940582D01*
X107242625Y-95449375D01*
X106944239Y-95250000D01*
X107242625Y-95050625D01*
X107570839Y-94559418D01*
X107686092Y-93980000D01*
X107570839Y-93400582D01*
X107242625Y-92909375D01*
X106944239Y-92710000D01*
X107242625Y-92510625D01*
X107570839Y-92019418D01*
X107686092Y-91440000D01*
X107570839Y-90860582D01*
X107242625Y-90369375D01*
X106944239Y-90170000D01*
X107242625Y-89970625D01*
X107570839Y-89479418D01*
X107686092Y-88900000D01*
X107570839Y-88320582D01*
X107242625Y-87829375D01*
X106944239Y-87630000D01*
X107242625Y-87430625D01*
X107570839Y-86939418D01*
X107686092Y-86360000D01*
X107570839Y-85780582D01*
X107242625Y-85289375D01*
X106944239Y-85090000D01*
X107242625Y-84890625D01*
X107570839Y-84399418D01*
X107686092Y-83820000D01*
X107570839Y-83240582D01*
X107242625Y-82749375D01*
X106944239Y-82550000D01*
X107242625Y-82350625D01*
X107570839Y-81859418D01*
X107686092Y-81280000D01*
X107570839Y-80700582D01*
X107242625Y-80209375D01*
X106944239Y-80010000D01*
X107242625Y-79810625D01*
X107570839Y-79319418D01*
X107686092Y-78740000D01*
X112277908Y-78740000D01*
X112393161Y-79319418D01*
X112721375Y-79810625D01*
X113019761Y-80010000D01*
X112721375Y-80209375D01*
X112393161Y-80700582D01*
X112277908Y-81280000D01*
X112393161Y-81859418D01*
X112721375Y-82350625D01*
X113019761Y-82550000D01*
X112721375Y-82749375D01*
X112393161Y-83240582D01*
X112277908Y-83820000D01*
X112393161Y-84399418D01*
X112721375Y-84890625D01*
X113040478Y-85103843D01*
X112910642Y-85164817D01*
X112520355Y-85593076D01*
X112350524Y-86003110D01*
X112471845Y-86233000D01*
X113665000Y-86233000D01*
X113665000Y-86213000D01*
X113919000Y-86213000D01*
X113919000Y-86233000D01*
X113939000Y-86233000D01*
X113939000Y-86487000D01*
X113919000Y-86487000D01*
X113919000Y-86507000D01*
X113665000Y-86507000D01*
X113665000Y-86487000D01*
X112471845Y-86487000D01*
X112350524Y-86716890D01*
X112520355Y-87126924D01*
X112910642Y-87555183D01*
X113040478Y-87616157D01*
X112721375Y-87829375D01*
X112393161Y-88320582D01*
X112277908Y-88900000D01*
X112393161Y-89479418D01*
X112721375Y-89970625D01*
X113019761Y-90170000D01*
X112721375Y-90369375D01*
X112393161Y-90860582D01*
X112277908Y-91440000D01*
X112393161Y-92019418D01*
X112721375Y-92510625D01*
X113019761Y-92710000D01*
X112721375Y-92909375D01*
X112393161Y-93400582D01*
X112277908Y-93980000D01*
X112393161Y-94559418D01*
X112721375Y-95050625D01*
X113019761Y-95250000D01*
X112721375Y-95449375D01*
X112393161Y-95940582D01*
X112277908Y-96520000D01*
X112393161Y-97099418D01*
X112721375Y-97590625D01*
X113019761Y-97790000D01*
X112721375Y-97989375D01*
X112393161Y-98480582D01*
X112277908Y-99060000D01*
X112393161Y-99639418D01*
X112721375Y-100130625D01*
X113019761Y-100330000D01*
X112721375Y-100529375D01*
X112393161Y-101020582D01*
X112277908Y-101600000D01*
X112393161Y-102179418D01*
X112721375Y-102670625D01*
X113019761Y-102870000D01*
X112721375Y-103069375D01*
X112393161Y-103560582D01*
X112277908Y-104140000D01*
X112393161Y-104719418D01*
X112721375Y-105210625D01*
X113040478Y-105423843D01*
X112910642Y-105484817D01*
X112520355Y-105913076D01*
X112350524Y-106323110D01*
X112471845Y-106553000D01*
X113665000Y-106553000D01*
X113665000Y-106533000D01*
X113919000Y-106533000D01*
X113919000Y-106553000D01*
X113939000Y-106553000D01*
X113939000Y-106807000D01*
X113919000Y-106807000D01*
X113919000Y-106827000D01*
X113665000Y-106827000D01*
X113665000Y-106807000D01*
X112471845Y-106807000D01*
X112350524Y-107036890D01*
X112520355Y-107446924D01*
X112910642Y-107875183D01*
X113040478Y-107936157D01*
X112721375Y-108149375D01*
X112393161Y-108640582D01*
X112277908Y-109220000D01*
X112393161Y-109799418D01*
X112721375Y-110290625D01*
X113019761Y-110490000D01*
X112721375Y-110689375D01*
X112393161Y-111180582D01*
X112277908Y-111760000D01*
X112393161Y-112339418D01*
X112721375Y-112830625D01*
X113019761Y-113030000D01*
X112721375Y-113229375D01*
X112393161Y-113720582D01*
X112277908Y-114300000D01*
X112393161Y-114879418D01*
X112721375Y-115370625D01*
X113019761Y-115570000D01*
X112721375Y-115769375D01*
X112393161Y-116260582D01*
X112277908Y-116840000D01*
X112393161Y-117419418D01*
X112721375Y-117910625D01*
X113019761Y-118110000D01*
X112721375Y-118309375D01*
X112393161Y-118800582D01*
X112277908Y-119380000D01*
X112393161Y-119959418D01*
X112721375Y-120450625D01*
X113019761Y-120650000D01*
X112721375Y-120849375D01*
X112393161Y-121340582D01*
X112277908Y-121920000D01*
X112393161Y-122499418D01*
X112721375Y-122990625D01*
X113040478Y-123203843D01*
X112910642Y-123264817D01*
X112520355Y-123693076D01*
X112350524Y-124103110D01*
X112471845Y-124333000D01*
X113665000Y-124333000D01*
X113665000Y-124313000D01*
X113919000Y-124313000D01*
X113919000Y-124333000D01*
X113939000Y-124333000D01*
X113939000Y-124587000D01*
X113919000Y-124587000D01*
X113919000Y-125780819D01*
X114148892Y-125901486D01*
X114673358Y-125655183D01*
X115060647Y-125230214D01*
X115261375Y-125530625D01*
X115752582Y-125858839D01*
X116185744Y-125945000D01*
X116478256Y-125945000D01*
X116911418Y-125858839D01*
X117402625Y-125530625D01*
X117730839Y-125039418D01*
X117775102Y-124816890D01*
X122510524Y-124816890D01*
X122680355Y-125226924D01*
X123070642Y-125655183D01*
X123595108Y-125901486D01*
X123825000Y-125780819D01*
X123825000Y-124587000D01*
X122631845Y-124587000D01*
X122510524Y-124816890D01*
X117775102Y-124816890D01*
X117846092Y-124460000D01*
X117730839Y-123880582D01*
X117402625Y-123389375D01*
X117104239Y-123190000D01*
X117402625Y-122990625D01*
X117730839Y-122499418D01*
X117846092Y-121920000D01*
X117763484Y-121504700D01*
X121286599Y-121504700D01*
X122186371Y-122404473D01*
X122228771Y-122467929D01*
X122480163Y-122635904D01*
X122669526Y-122673571D01*
X122881375Y-122990625D01*
X123200478Y-123203843D01*
X123070642Y-123264817D01*
X122680355Y-123693076D01*
X122510524Y-124103110D01*
X122631845Y-124333000D01*
X123825000Y-124333000D01*
X123825000Y-124313000D01*
X124079000Y-124313000D01*
X124079000Y-124333000D01*
X124099000Y-124333000D01*
X124099000Y-124587000D01*
X124079000Y-124587000D01*
X124079000Y-125780819D01*
X124308892Y-125901486D01*
X124833358Y-125655183D01*
X125220647Y-125230214D01*
X125421375Y-125530625D01*
X125912582Y-125858839D01*
X126345744Y-125945000D01*
X126638256Y-125945000D01*
X127071418Y-125858839D01*
X127562625Y-125530625D01*
X127890839Y-125039418D01*
X128006092Y-124460000D01*
X127890839Y-123880582D01*
X127562625Y-123389375D01*
X127264239Y-123190000D01*
X127562625Y-122990625D01*
X127890839Y-122499418D01*
X128006092Y-121920000D01*
X127890839Y-121340582D01*
X127562625Y-120849375D01*
X127264239Y-120650000D01*
X127562625Y-120450625D01*
X127890839Y-119959418D01*
X128006092Y-119380000D01*
X127890839Y-118800582D01*
X127562625Y-118309375D01*
X127243522Y-118096157D01*
X127373358Y-118035183D01*
X127763645Y-117606924D01*
X127933476Y-117196890D01*
X127812155Y-116967000D01*
X126619000Y-116967000D01*
X126619000Y-116987000D01*
X126365000Y-116987000D01*
X126365000Y-116967000D01*
X126345000Y-116967000D01*
X126345000Y-116713000D01*
X126365000Y-116713000D01*
X126365000Y-116693000D01*
X126619000Y-116693000D01*
X126619000Y-116713000D01*
X127812155Y-116713000D01*
X127933476Y-116483110D01*
X127763645Y-116073076D01*
X127373358Y-115644817D01*
X127243522Y-115583843D01*
X127562625Y-115370625D01*
X127890839Y-114879418D01*
X128006092Y-114300000D01*
X127890839Y-113720582D01*
X127562625Y-113229375D01*
X127243522Y-113016157D01*
X127373358Y-112955183D01*
X127763645Y-112526924D01*
X127933476Y-112116890D01*
X127812155Y-111887000D01*
X126619000Y-111887000D01*
X126619000Y-111907000D01*
X126365000Y-111907000D01*
X126365000Y-111887000D01*
X126345000Y-111887000D01*
X126345000Y-111633000D01*
X126365000Y-111633000D01*
X126365000Y-111613000D01*
X126619000Y-111613000D01*
X126619000Y-111633000D01*
X127812155Y-111633000D01*
X127933476Y-111403110D01*
X127763645Y-110993076D01*
X127373358Y-110564817D01*
X127243522Y-110503843D01*
X127562625Y-110290625D01*
X127890839Y-109799418D01*
X128006092Y-109220000D01*
X127890839Y-108640582D01*
X127562625Y-108149375D01*
X127264239Y-107950000D01*
X127562625Y-107750625D01*
X127890839Y-107259418D01*
X128006092Y-106680000D01*
X127890839Y-106100582D01*
X127562625Y-105609375D01*
X127264239Y-105410000D01*
X127562625Y-105210625D01*
X127890839Y-104719418D01*
X128006092Y-104140000D01*
X127890839Y-103560582D01*
X127562625Y-103069375D01*
X127264239Y-102870000D01*
X127562625Y-102670625D01*
X127890839Y-102179418D01*
X128006092Y-101600000D01*
X127890839Y-101020582D01*
X127562625Y-100529375D01*
X127243522Y-100316157D01*
X127373358Y-100255183D01*
X127763645Y-99826924D01*
X127933476Y-99416890D01*
X127812155Y-99187000D01*
X126619000Y-99187000D01*
X126619000Y-99207000D01*
X126365000Y-99207000D01*
X126365000Y-99187000D01*
X126345000Y-99187000D01*
X126345000Y-98933000D01*
X126365000Y-98933000D01*
X126365000Y-98913000D01*
X126619000Y-98913000D01*
X126619000Y-98933000D01*
X127812155Y-98933000D01*
X127933476Y-98703110D01*
X127763645Y-98293076D01*
X127373358Y-97864817D01*
X127243522Y-97803843D01*
X127562625Y-97590625D01*
X127890839Y-97099418D01*
X128006092Y-96520000D01*
X127890839Y-95940582D01*
X127562625Y-95449375D01*
X127264239Y-95250000D01*
X127562625Y-95050625D01*
X127890839Y-94559418D01*
X128006092Y-93980000D01*
X127890839Y-93400582D01*
X127562625Y-92909375D01*
X127243522Y-92696157D01*
X127373358Y-92635183D01*
X127763645Y-92206924D01*
X127933476Y-91796890D01*
X127812155Y-91567000D01*
X126619000Y-91567000D01*
X126619000Y-91587000D01*
X126365000Y-91587000D01*
X126365000Y-91567000D01*
X126345000Y-91567000D01*
X126345000Y-91313000D01*
X126365000Y-91313000D01*
X126365000Y-91293000D01*
X126619000Y-91293000D01*
X126619000Y-91313000D01*
X127812155Y-91313000D01*
X127933476Y-91083110D01*
X127763645Y-90673076D01*
X127373358Y-90244817D01*
X127243522Y-90183843D01*
X127562625Y-89970625D01*
X127890839Y-89479418D01*
X128006092Y-88900000D01*
X127890839Y-88320582D01*
X127562625Y-87829375D01*
X127264239Y-87630000D01*
X127562625Y-87430625D01*
X127890839Y-86939418D01*
X128006092Y-86360000D01*
X127890839Y-85780582D01*
X127562625Y-85289375D01*
X127264239Y-85090000D01*
X127562625Y-84890625D01*
X127890839Y-84399418D01*
X128006092Y-83820000D01*
X127890839Y-83240582D01*
X127562625Y-82749375D01*
X127243522Y-82536157D01*
X127373358Y-82475183D01*
X127763645Y-82046924D01*
X127933476Y-81636890D01*
X127812155Y-81407000D01*
X126619000Y-81407000D01*
X126619000Y-81427000D01*
X126365000Y-81427000D01*
X126365000Y-81407000D01*
X126345000Y-81407000D01*
X126345000Y-81153000D01*
X126365000Y-81153000D01*
X126365000Y-81133000D01*
X126619000Y-81133000D01*
X126619000Y-81153000D01*
X127812155Y-81153000D01*
X127933476Y-80923110D01*
X127763645Y-80513076D01*
X127373358Y-80084817D01*
X127243522Y-80023843D01*
X127562625Y-79810625D01*
X127890839Y-79319418D01*
X128006092Y-78740000D01*
X127890839Y-78160582D01*
X127562625Y-77669375D01*
X127264239Y-77470000D01*
X127562625Y-77270625D01*
X127890839Y-76779418D01*
X128006092Y-76200000D01*
X127890839Y-75620582D01*
X127562625Y-75129375D01*
X127071418Y-74801161D01*
X126638256Y-74715000D01*
X126345744Y-74715000D01*
X125912582Y-74801161D01*
X125421375Y-75129375D01*
X125409184Y-75147619D01*
X125400157Y-75102235D01*
X125259809Y-74892191D01*
X125049765Y-74751843D01*
X124802000Y-74702560D01*
X123102000Y-74702560D01*
X122854235Y-74751843D01*
X122644191Y-74892191D01*
X122503843Y-75102235D01*
X122454560Y-75350000D01*
X122454560Y-75501203D01*
X122228771Y-75652071D01*
X122186371Y-75715527D01*
X118705199Y-79196700D01*
X117755249Y-79196700D01*
X117846092Y-78740000D01*
X117730839Y-78160582D01*
X117402625Y-77669375D01*
X117384381Y-77657184D01*
X117429765Y-77648157D01*
X117639809Y-77507809D01*
X117780157Y-77297765D01*
X117829440Y-77050000D01*
X117829440Y-75350000D01*
X117780157Y-75102235D01*
X117639809Y-74892191D01*
X117429765Y-74751843D01*
X117182000Y-74702560D01*
X115482000Y-74702560D01*
X115234235Y-74751843D01*
X115062000Y-74866928D01*
X114889765Y-74751843D01*
X114642000Y-74702560D01*
X112942000Y-74702560D01*
X112694235Y-74751843D01*
X112484191Y-74892191D01*
X112343843Y-75102235D01*
X112294560Y-75350000D01*
X112294560Y-77050000D01*
X112343843Y-77297765D01*
X112484191Y-77507809D01*
X112694235Y-77648157D01*
X112739619Y-77657184D01*
X112721375Y-77669375D01*
X112393161Y-78160582D01*
X112277908Y-78740000D01*
X107686092Y-78740000D01*
X107570839Y-78160582D01*
X107242625Y-77669375D01*
X106944239Y-77470000D01*
X107242625Y-77270625D01*
X107570839Y-76779418D01*
X107686092Y-76200000D01*
X107570839Y-75620582D01*
X107242625Y-75129375D01*
X106751418Y-74801161D01*
X106318256Y-74715000D01*
X106025744Y-74715000D01*
X105592582Y-74801161D01*
X105101375Y-75129375D01*
X104902000Y-75427761D01*
X104702625Y-75129375D01*
X104211418Y-74801161D01*
X103778256Y-74715000D01*
X103485744Y-74715000D01*
X103052582Y-74801161D01*
X102561375Y-75129375D01*
X102362000Y-75427761D01*
X102162625Y-75129375D01*
X101671418Y-74801161D01*
X101238256Y-74715000D01*
X100945744Y-74715000D01*
X100512582Y-74801161D01*
X100021375Y-75129375D01*
X99822000Y-75427761D01*
X99622625Y-75129375D01*
X99131418Y-74801161D01*
X98698256Y-74715000D01*
X98405744Y-74715000D01*
X97972582Y-74801161D01*
X97481375Y-75129375D01*
X97282000Y-75427761D01*
X97082625Y-75129375D01*
X96591418Y-74801161D01*
X96158256Y-74715000D01*
X95865744Y-74715000D01*
X95432582Y-74801161D01*
X94941375Y-75129375D01*
X94742000Y-75427761D01*
X94542625Y-75129375D01*
X94051418Y-74801161D01*
X93618256Y-74715000D01*
X93325744Y-74715000D01*
X92892582Y-74801161D01*
X92401375Y-75129375D01*
X92202000Y-75427761D01*
X92002625Y-75129375D01*
X91511418Y-74801161D01*
X91078256Y-74715000D01*
X90785744Y-74715000D01*
X90352582Y-74801161D01*
X89861375Y-75129375D01*
X89662000Y-75427761D01*
X89462625Y-75129375D01*
X88971418Y-74801161D01*
X88538256Y-74715000D01*
X88245744Y-74715000D01*
X87812582Y-74801161D01*
X87321375Y-75129375D01*
X87122000Y-75427761D01*
X86922625Y-75129375D01*
X86431418Y-74801161D01*
X85998256Y-74715000D01*
X85705744Y-74715000D01*
X85272582Y-74801161D01*
X84781375Y-75129375D01*
X84582000Y-75427761D01*
X84382625Y-75129375D01*
X83891418Y-74801161D01*
X83458256Y-74715000D01*
X83165744Y-74715000D01*
X82732582Y-74801161D01*
X82241375Y-75129375D01*
X82042000Y-75427761D01*
X81842625Y-75129375D01*
X81351418Y-74801161D01*
X80918256Y-74715000D01*
X80625744Y-74715000D01*
X80192582Y-74801161D01*
X79701375Y-75129375D01*
X79502000Y-75427761D01*
X79302625Y-75129375D01*
X78811418Y-74801161D01*
X78378256Y-74715000D01*
X78085744Y-74715000D01*
X77652582Y-74801161D01*
X77161375Y-75129375D01*
X76962000Y-75427761D01*
X76762625Y-75129375D01*
X76271418Y-74801161D01*
X75838256Y-74715000D01*
X75545744Y-74715000D01*
X75112582Y-74801161D01*
X74621375Y-75129375D01*
X74293161Y-75620582D01*
X74177908Y-76200000D01*
X72973000Y-76200000D01*
X72973000Y-71564021D01*
X72988951Y-71488980D01*
X72996993Y-71412468D01*
X73015849Y-71052678D01*
X73034462Y-70935159D01*
X74110000Y-70935159D01*
X74110000Y-71724841D01*
X74412199Y-72454412D01*
X74970588Y-73012801D01*
X75700159Y-73315000D01*
X76489841Y-73315000D01*
X77219412Y-73012801D01*
X77777801Y-72454412D01*
X78080000Y-71724841D01*
X78080000Y-70935159D01*
X123110000Y-70935159D01*
X123110000Y-71724841D01*
X123412199Y-72454412D01*
X123970588Y-73012801D01*
X124700159Y-73315000D01*
X125489841Y-73315000D01*
X126219412Y-73012801D01*
X126777801Y-72454412D01*
X127080000Y-71724841D01*
X127080000Y-70935159D01*
X126777801Y-70205588D01*
X126219412Y-69647199D01*
X125489841Y-69345000D01*
X124700159Y-69345000D01*
X123970588Y-69647199D01*
X123412199Y-70205588D01*
X123110000Y-70935159D01*
X78080000Y-70935159D01*
X77777801Y-70205588D01*
X77219412Y-69647199D01*
X76489841Y-69345000D01*
X75700159Y-69345000D01*
X74970588Y-69647199D01*
X74412199Y-70205588D01*
X74110000Y-70935159D01*
X73034462Y-70935159D01*
X73066184Y-70734877D01*
X73149462Y-70424082D01*
X73264770Y-70123694D01*
X73410847Y-69837001D01*
X73586093Y-69567147D01*
X73788579Y-69317097D01*
X74016101Y-69089576D01*
X74266151Y-68887090D01*
X74536001Y-68711847D01*
X74822691Y-68565771D01*
X75123090Y-68450459D01*
X75433876Y-68367184D01*
X75751678Y-68316849D01*
X76111468Y-68297993D01*
X76187980Y-68289951D01*
X76263021Y-68274000D01*
X124904979Y-68274000D01*
X124980020Y-68289951D01*
G36*
X122186371Y-117324473D02*
X122228771Y-117387929D01*
X122480163Y-117555904D01*
X122669526Y-117593571D01*
X122881375Y-117910625D01*
X123179761Y-118110000D01*
X122881375Y-118309375D01*
X122553161Y-118800582D01*
X122437908Y-119380000D01*
X122553161Y-119959418D01*
X122881375Y-120450625D01*
X123179761Y-120650000D01*
X122881375Y-120849375D01*
X122841121Y-120909619D01*
X122191731Y-120260230D01*
X122149329Y-120196771D01*
X121897937Y-120028796D01*
X121676252Y-119984700D01*
X121676247Y-119984700D01*
X121601400Y-119969812D01*
X121526553Y-119984700D01*
X117713946Y-119984700D01*
X117730839Y-119959418D01*
X117846092Y-119380000D01*
X117730839Y-118800582D01*
X117402625Y-118309375D01*
X117083522Y-118096157D01*
X117213358Y-118035183D01*
X117603645Y-117606924D01*
X117773476Y-117196890D01*
X117652155Y-116967000D01*
X116459000Y-116967000D01*
X116459000Y-116987000D01*
X116205000Y-116987000D01*
X116205000Y-116967000D01*
X116185000Y-116967000D01*
X116185000Y-116713000D01*
X116205000Y-116713000D01*
X116205000Y-116693000D01*
X116459000Y-116693000D01*
X116459000Y-116713000D01*
X117652155Y-116713000D01*
X117773476Y-116483110D01*
X117749283Y-116424700D01*
X121286599Y-116424700D01*
X122186371Y-117324473D01*
X122186371Y-117324473D01*
G37*
X122186371Y-117324473D02*
X122228771Y-117387929D01*
X122480163Y-117555904D01*
X122669526Y-117593571D01*
X122881375Y-117910625D01*
X123179761Y-118110000D01*
X122881375Y-118309375D01*
X122553161Y-118800582D01*
X122437908Y-119380000D01*
X122553161Y-119959418D01*
X122881375Y-120450625D01*
X123179761Y-120650000D01*
X122881375Y-120849375D01*
X122841121Y-120909619D01*
X122191731Y-120260230D01*
X122149329Y-120196771D01*
X121897937Y-120028796D01*
X121676252Y-119984700D01*
X121676247Y-119984700D01*
X121601400Y-119969812D01*
X121526553Y-119984700D01*
X117713946Y-119984700D01*
X117730839Y-119959418D01*
X117846092Y-119380000D01*
X117730839Y-118800582D01*
X117402625Y-118309375D01*
X117083522Y-118096157D01*
X117213358Y-118035183D01*
X117603645Y-117606924D01*
X117773476Y-117196890D01*
X117652155Y-116967000D01*
X116459000Y-116967000D01*
X116459000Y-116987000D01*
X116205000Y-116987000D01*
X116205000Y-116967000D01*
X116185000Y-116967000D01*
X116185000Y-116713000D01*
X116205000Y-116713000D01*
X116205000Y-116693000D01*
X116459000Y-116693000D01*
X116459000Y-116713000D01*
X117652155Y-116713000D01*
X117773476Y-116483110D01*
X117749283Y-116424700D01*
X121286599Y-116424700D01*
X122186371Y-117324473D01*
G36*
X122186371Y-112244473D02*
X122228771Y-112307929D01*
X122480163Y-112475904D01*
X122669526Y-112513571D01*
X122881375Y-112830625D01*
X123179761Y-113030000D01*
X122881375Y-113229375D01*
X122553161Y-113720582D01*
X122437908Y-114300000D01*
X122553161Y-114879418D01*
X122881375Y-115370625D01*
X123179761Y-115570000D01*
X122881375Y-115769375D01*
X122841121Y-115829619D01*
X122191731Y-115180230D01*
X122149329Y-115116771D01*
X121897937Y-114948796D01*
X121676252Y-114904700D01*
X121676247Y-114904700D01*
X121601400Y-114889812D01*
X121526553Y-114904700D01*
X117713946Y-114904700D01*
X117730839Y-114879418D01*
X117846092Y-114300000D01*
X117730839Y-113720582D01*
X117402625Y-113229375D01*
X117083522Y-113016157D01*
X117213358Y-112955183D01*
X117603645Y-112526924D01*
X117773476Y-112116890D01*
X117652155Y-111887000D01*
X116459000Y-111887000D01*
X116459000Y-111907000D01*
X116205000Y-111907000D01*
X116205000Y-111887000D01*
X116185000Y-111887000D01*
X116185000Y-111633000D01*
X116205000Y-111633000D01*
X116205000Y-111613000D01*
X116459000Y-111613000D01*
X116459000Y-111633000D01*
X117652155Y-111633000D01*
X117773476Y-111403110D01*
X117749283Y-111344700D01*
X121286599Y-111344700D01*
X122186371Y-112244473D01*
X122186371Y-112244473D01*
G37*
X122186371Y-112244473D02*
X122228771Y-112307929D01*
X122480163Y-112475904D01*
X122669526Y-112513571D01*
X122881375Y-112830625D01*
X123179761Y-113030000D01*
X122881375Y-113229375D01*
X122553161Y-113720582D01*
X122437908Y-114300000D01*
X122553161Y-114879418D01*
X122881375Y-115370625D01*
X123179761Y-115570000D01*
X122881375Y-115769375D01*
X122841121Y-115829619D01*
X122191731Y-115180230D01*
X122149329Y-115116771D01*
X121897937Y-114948796D01*
X121676252Y-114904700D01*
X121676247Y-114904700D01*
X121601400Y-114889812D01*
X121526553Y-114904700D01*
X117713946Y-114904700D01*
X117730839Y-114879418D01*
X117846092Y-114300000D01*
X117730839Y-113720582D01*
X117402625Y-113229375D01*
X117083522Y-113016157D01*
X117213358Y-112955183D01*
X117603645Y-112526924D01*
X117773476Y-112116890D01*
X117652155Y-111887000D01*
X116459000Y-111887000D01*
X116459000Y-111907000D01*
X116205000Y-111907000D01*
X116205000Y-111887000D01*
X116185000Y-111887000D01*
X116185000Y-111633000D01*
X116205000Y-111633000D01*
X116205000Y-111613000D01*
X116459000Y-111613000D01*
X116459000Y-111633000D01*
X117652155Y-111633000D01*
X117773476Y-111403110D01*
X117749283Y-111344700D01*
X121286599Y-111344700D01*
X122186371Y-112244473D01*
G36*
X122186371Y-104624473D02*
X122228771Y-104687929D01*
X122480163Y-104855904D01*
X122669526Y-104893571D01*
X122881375Y-105210625D01*
X123200478Y-105423843D01*
X123070642Y-105484817D01*
X122680355Y-105913076D01*
X122510524Y-106323110D01*
X122631845Y-106553000D01*
X123825000Y-106553000D01*
X123825000Y-106533000D01*
X124079000Y-106533000D01*
X124079000Y-106553000D01*
X124099000Y-106553000D01*
X124099000Y-106807000D01*
X124079000Y-106807000D01*
X124079000Y-106827000D01*
X123825000Y-106827000D01*
X123825000Y-106807000D01*
X122631845Y-106807000D01*
X122510524Y-107036890D01*
X122680355Y-107446924D01*
X123070642Y-107875183D01*
X123200478Y-107936157D01*
X122881375Y-108149375D01*
X122553161Y-108640582D01*
X122437908Y-109220000D01*
X122553161Y-109799418D01*
X122881375Y-110290625D01*
X123179761Y-110490000D01*
X122881375Y-110689375D01*
X122841121Y-110749619D01*
X122191731Y-110100230D01*
X122149329Y-110036771D01*
X121897937Y-109868796D01*
X121676252Y-109824700D01*
X121676247Y-109824700D01*
X121601400Y-109809812D01*
X121526553Y-109824700D01*
X117713946Y-109824700D01*
X117730839Y-109799418D01*
X117846092Y-109220000D01*
X117730839Y-108640582D01*
X117402625Y-108149375D01*
X117104239Y-107950000D01*
X117402625Y-107750625D01*
X117730839Y-107259418D01*
X117846092Y-106680000D01*
X117730839Y-106100582D01*
X117402625Y-105609375D01*
X117104239Y-105410000D01*
X117402625Y-105210625D01*
X117730839Y-104719418D01*
X117846092Y-104140000D01*
X117763484Y-103724700D01*
X121286599Y-103724700D01*
X122186371Y-104624473D01*
X122186371Y-104624473D01*
G37*
X122186371Y-104624473D02*
X122228771Y-104687929D01*
X122480163Y-104855904D01*
X122669526Y-104893571D01*
X122881375Y-105210625D01*
X123200478Y-105423843D01*
X123070642Y-105484817D01*
X122680355Y-105913076D01*
X122510524Y-106323110D01*
X122631845Y-106553000D01*
X123825000Y-106553000D01*
X123825000Y-106533000D01*
X124079000Y-106533000D01*
X124079000Y-106553000D01*
X124099000Y-106553000D01*
X124099000Y-106807000D01*
X124079000Y-106807000D01*
X124079000Y-106827000D01*
X123825000Y-106827000D01*
X123825000Y-106807000D01*
X122631845Y-106807000D01*
X122510524Y-107036890D01*
X122680355Y-107446924D01*
X123070642Y-107875183D01*
X123200478Y-107936157D01*
X122881375Y-108149375D01*
X122553161Y-108640582D01*
X122437908Y-109220000D01*
X122553161Y-109799418D01*
X122881375Y-110290625D01*
X123179761Y-110490000D01*
X122881375Y-110689375D01*
X122841121Y-110749619D01*
X122191731Y-110100230D01*
X122149329Y-110036771D01*
X121897937Y-109868796D01*
X121676252Y-109824700D01*
X121676247Y-109824700D01*
X121601400Y-109809812D01*
X121526553Y-109824700D01*
X117713946Y-109824700D01*
X117730839Y-109799418D01*
X117846092Y-109220000D01*
X117730839Y-108640582D01*
X117402625Y-108149375D01*
X117104239Y-107950000D01*
X117402625Y-107750625D01*
X117730839Y-107259418D01*
X117846092Y-106680000D01*
X117730839Y-106100582D01*
X117402625Y-105609375D01*
X117104239Y-105410000D01*
X117402625Y-105210625D01*
X117730839Y-104719418D01*
X117846092Y-104140000D01*
X117763484Y-103724700D01*
X121286599Y-103724700D01*
X122186371Y-104624473D01*
G36*
X122186371Y-99544473D02*
X122228771Y-99607929D01*
X122480163Y-99775904D01*
X122669526Y-99813571D01*
X122881375Y-100130625D01*
X123179761Y-100330000D01*
X122881375Y-100529375D01*
X122553161Y-101020582D01*
X122437908Y-101600000D01*
X122553161Y-102179418D01*
X122881375Y-102670625D01*
X123179761Y-102870000D01*
X122881375Y-103069375D01*
X122841121Y-103129619D01*
X122191731Y-102480230D01*
X122149329Y-102416771D01*
X121897937Y-102248796D01*
X121676252Y-102204700D01*
X121676247Y-102204700D01*
X121601400Y-102189812D01*
X121526553Y-102204700D01*
X117713946Y-102204700D01*
X117730839Y-102179418D01*
X117846092Y-101600000D01*
X117730839Y-101020582D01*
X117402625Y-100529375D01*
X117083522Y-100316157D01*
X117213358Y-100255183D01*
X117603645Y-99826924D01*
X117773476Y-99416890D01*
X117652155Y-99187000D01*
X116459000Y-99187000D01*
X116459000Y-99207000D01*
X116205000Y-99207000D01*
X116205000Y-99187000D01*
X116185000Y-99187000D01*
X116185000Y-98933000D01*
X116205000Y-98933000D01*
X116205000Y-98913000D01*
X116459000Y-98913000D01*
X116459000Y-98933000D01*
X117652155Y-98933000D01*
X117773476Y-98703110D01*
X117749283Y-98644700D01*
X121286599Y-98644700D01*
X122186371Y-99544473D01*
X122186371Y-99544473D01*
G37*
X122186371Y-99544473D02*
X122228771Y-99607929D01*
X122480163Y-99775904D01*
X122669526Y-99813571D01*
X122881375Y-100130625D01*
X123179761Y-100330000D01*
X122881375Y-100529375D01*
X122553161Y-101020582D01*
X122437908Y-101600000D01*
X122553161Y-102179418D01*
X122881375Y-102670625D01*
X123179761Y-102870000D01*
X122881375Y-103069375D01*
X122841121Y-103129619D01*
X122191731Y-102480230D01*
X122149329Y-102416771D01*
X121897937Y-102248796D01*
X121676252Y-102204700D01*
X121676247Y-102204700D01*
X121601400Y-102189812D01*
X121526553Y-102204700D01*
X117713946Y-102204700D01*
X117730839Y-102179418D01*
X117846092Y-101600000D01*
X117730839Y-101020582D01*
X117402625Y-100529375D01*
X117083522Y-100316157D01*
X117213358Y-100255183D01*
X117603645Y-99826924D01*
X117773476Y-99416890D01*
X117652155Y-99187000D01*
X116459000Y-99187000D01*
X116459000Y-99207000D01*
X116205000Y-99207000D01*
X116205000Y-99187000D01*
X116185000Y-99187000D01*
X116185000Y-98933000D01*
X116205000Y-98933000D01*
X116205000Y-98913000D01*
X116459000Y-98913000D01*
X116459000Y-98933000D01*
X117652155Y-98933000D01*
X117773476Y-98703110D01*
X117749283Y-98644700D01*
X121286599Y-98644700D01*
X122186371Y-99544473D01*
G36*
X122644191Y-77507809D02*
X122854235Y-77648157D01*
X122899619Y-77657184D01*
X122881375Y-77669375D01*
X122553161Y-78160582D01*
X122437908Y-78740000D01*
X122553161Y-79319418D01*
X122881375Y-79810625D01*
X123179761Y-80010000D01*
X122881375Y-80209375D01*
X122553161Y-80700582D01*
X122437908Y-81280000D01*
X122553161Y-81859418D01*
X122881375Y-82350625D01*
X123179761Y-82550000D01*
X122881375Y-82749375D01*
X122553161Y-83240582D01*
X122437908Y-83820000D01*
X122553161Y-84399418D01*
X122881375Y-84890625D01*
X123200478Y-85103843D01*
X123070642Y-85164817D01*
X122680355Y-85593076D01*
X122510524Y-86003110D01*
X122631845Y-86233000D01*
X123825000Y-86233000D01*
X123825000Y-86213000D01*
X124079000Y-86213000D01*
X124079000Y-86233000D01*
X124099000Y-86233000D01*
X124099000Y-86487000D01*
X124079000Y-86487000D01*
X124079000Y-86507000D01*
X123825000Y-86507000D01*
X123825000Y-86487000D01*
X122631845Y-86487000D01*
X122510524Y-86716890D01*
X122680355Y-87126924D01*
X123070642Y-87555183D01*
X123200478Y-87616157D01*
X122881375Y-87829375D01*
X122553161Y-88320582D01*
X122437908Y-88900000D01*
X122553161Y-89479418D01*
X122881375Y-89970625D01*
X123179761Y-90170000D01*
X122881375Y-90369375D01*
X122553161Y-90860582D01*
X122437908Y-91440000D01*
X122553161Y-92019418D01*
X122881375Y-92510625D01*
X123179761Y-92710000D01*
X122881375Y-92909375D01*
X122553161Y-93400582D01*
X122437908Y-93980000D01*
X122553161Y-94559418D01*
X122881375Y-95050625D01*
X123179761Y-95250000D01*
X122881375Y-95449375D01*
X122841121Y-95509619D01*
X122191731Y-94860230D01*
X122149329Y-94796771D01*
X121897937Y-94628796D01*
X121676252Y-94584700D01*
X121676247Y-94584700D01*
X121601400Y-94569812D01*
X121526553Y-94584700D01*
X117713946Y-94584700D01*
X117730839Y-94559418D01*
X117846092Y-93980000D01*
X117730839Y-93400582D01*
X117402625Y-92909375D01*
X117083522Y-92696157D01*
X117213358Y-92635183D01*
X117603645Y-92206924D01*
X117773476Y-91796890D01*
X117652155Y-91567000D01*
X116459000Y-91567000D01*
X116459000Y-91587000D01*
X116205000Y-91587000D01*
X116205000Y-91567000D01*
X116185000Y-91567000D01*
X116185000Y-91313000D01*
X116205000Y-91313000D01*
X116205000Y-91293000D01*
X116459000Y-91293000D01*
X116459000Y-91313000D01*
X117652155Y-91313000D01*
X117773476Y-91083110D01*
X117603645Y-90673076D01*
X117213358Y-90244817D01*
X117083522Y-90183843D01*
X117402625Y-89970625D01*
X117730839Y-89479418D01*
X117846092Y-88900000D01*
X117730839Y-88320582D01*
X117402625Y-87829375D01*
X117104239Y-87630000D01*
X117402625Y-87430625D01*
X117730839Y-86939418D01*
X117846092Y-86360000D01*
X117730839Y-85780582D01*
X117402625Y-85289375D01*
X117104239Y-85090000D01*
X117402625Y-84890625D01*
X117730839Y-84399418D01*
X117846092Y-83820000D01*
X117730839Y-83240582D01*
X117402625Y-82749375D01*
X117083522Y-82536157D01*
X117213358Y-82475183D01*
X117603645Y-82046924D01*
X117773476Y-81636890D01*
X117652155Y-81407000D01*
X116459000Y-81407000D01*
X116459000Y-81427000D01*
X116205000Y-81427000D01*
X116205000Y-81407000D01*
X116185000Y-81407000D01*
X116185000Y-81153000D01*
X116205000Y-81153000D01*
X116205000Y-81133000D01*
X116459000Y-81133000D01*
X116459000Y-81153000D01*
X117652155Y-81153000D01*
X117773476Y-80923110D01*
X117687984Y-80716700D01*
X118945153Y-80716700D01*
X119020000Y-80731588D01*
X119094847Y-80716700D01*
X119094852Y-80716700D01*
X119316537Y-80672604D01*
X119567929Y-80504629D01*
X119610331Y-80441170D01*
X122603937Y-77447565D01*
X122644191Y-77507809D01*
X122644191Y-77507809D01*
G37*
X122644191Y-77507809D02*
X122854235Y-77648157D01*
X122899619Y-77657184D01*
X122881375Y-77669375D01*
X122553161Y-78160582D01*
X122437908Y-78740000D01*
X122553161Y-79319418D01*
X122881375Y-79810625D01*
X123179761Y-80010000D01*
X122881375Y-80209375D01*
X122553161Y-80700582D01*
X122437908Y-81280000D01*
X122553161Y-81859418D01*
X122881375Y-82350625D01*
X123179761Y-82550000D01*
X122881375Y-82749375D01*
X122553161Y-83240582D01*
X122437908Y-83820000D01*
X122553161Y-84399418D01*
X122881375Y-84890625D01*
X123200478Y-85103843D01*
X123070642Y-85164817D01*
X122680355Y-85593076D01*
X122510524Y-86003110D01*
X122631845Y-86233000D01*
X123825000Y-86233000D01*
X123825000Y-86213000D01*
X124079000Y-86213000D01*
X124079000Y-86233000D01*
X124099000Y-86233000D01*
X124099000Y-86487000D01*
X124079000Y-86487000D01*
X124079000Y-86507000D01*
X123825000Y-86507000D01*
X123825000Y-86487000D01*
X122631845Y-86487000D01*
X122510524Y-86716890D01*
X122680355Y-87126924D01*
X123070642Y-87555183D01*
X123200478Y-87616157D01*
X122881375Y-87829375D01*
X122553161Y-88320582D01*
X122437908Y-88900000D01*
X122553161Y-89479418D01*
X122881375Y-89970625D01*
X123179761Y-90170000D01*
X122881375Y-90369375D01*
X122553161Y-90860582D01*
X122437908Y-91440000D01*
X122553161Y-92019418D01*
X122881375Y-92510625D01*
X123179761Y-92710000D01*
X122881375Y-92909375D01*
X122553161Y-93400582D01*
X122437908Y-93980000D01*
X122553161Y-94559418D01*
X122881375Y-95050625D01*
X123179761Y-95250000D01*
X122881375Y-95449375D01*
X122841121Y-95509619D01*
X122191731Y-94860230D01*
X122149329Y-94796771D01*
X121897937Y-94628796D01*
X121676252Y-94584700D01*
X121676247Y-94584700D01*
X121601400Y-94569812D01*
X121526553Y-94584700D01*
X117713946Y-94584700D01*
X117730839Y-94559418D01*
X117846092Y-93980000D01*
X117730839Y-93400582D01*
X117402625Y-92909375D01*
X117083522Y-92696157D01*
X117213358Y-92635183D01*
X117603645Y-92206924D01*
X117773476Y-91796890D01*
X117652155Y-91567000D01*
X116459000Y-91567000D01*
X116459000Y-91587000D01*
X116205000Y-91587000D01*
X116205000Y-91567000D01*
X116185000Y-91567000D01*
X116185000Y-91313000D01*
X116205000Y-91313000D01*
X116205000Y-91293000D01*
X116459000Y-91293000D01*
X116459000Y-91313000D01*
X117652155Y-91313000D01*
X117773476Y-91083110D01*
X117603645Y-90673076D01*
X117213358Y-90244817D01*
X117083522Y-90183843D01*
X117402625Y-89970625D01*
X117730839Y-89479418D01*
X117846092Y-88900000D01*
X117730839Y-88320582D01*
X117402625Y-87829375D01*
X117104239Y-87630000D01*
X117402625Y-87430625D01*
X117730839Y-86939418D01*
X117846092Y-86360000D01*
X117730839Y-85780582D01*
X117402625Y-85289375D01*
X117104239Y-85090000D01*
X117402625Y-84890625D01*
X117730839Y-84399418D01*
X117846092Y-83820000D01*
X117730839Y-83240582D01*
X117402625Y-82749375D01*
X117083522Y-82536157D01*
X117213358Y-82475183D01*
X117603645Y-82046924D01*
X117773476Y-81636890D01*
X117652155Y-81407000D01*
X116459000Y-81407000D01*
X116459000Y-81427000D01*
X116205000Y-81427000D01*
X116205000Y-81407000D01*
X116185000Y-81407000D01*
X116185000Y-81153000D01*
X116205000Y-81153000D01*
X116205000Y-81133000D01*
X116459000Y-81133000D01*
X116459000Y-81153000D01*
X117652155Y-81153000D01*
X117773476Y-80923110D01*
X117687984Y-80716700D01*
X118945153Y-80716700D01*
X119020000Y-80731588D01*
X119094847Y-80716700D01*
X119094852Y-80716700D01*
X119316537Y-80672604D01*
X119567929Y-80504629D01*
X119610331Y-80441170D01*
X122603937Y-77447565D01*
X122644191Y-77507809D01*
M02*
