G04 #@! TF.GenerationSoftware,KiCad,Pcbnew,5.0.0-rc1-44a33f2~62~ubuntu17.10.1*
G04 #@! TF.CreationDate,2018-04-10T00:15:36+09:00*
G04 #@! TF.ProjectId,RaspiUniversalHat,5261737069556E6976657273616C4861,rev?*
G04 #@! TF.SameCoordinates,Original*
G04 #@! TF.FileFunction,Legend,Top*
G04 #@! TF.FilePolarity,Positive*
%FSLAX46Y46*%
G04 Gerber Fmt 4.6, Leading zero omitted, Abs format (unit mm)*
G04 Created by KiCad (PCBNEW 5.0.0-rc1-44a33f2~62~ubuntu17.10.1) date Tue Apr 10 00:15:36 2018*
%MOMM*%
%LPD*%
G01*
G04 APERTURE LIST*
%ADD10C,0.200000*%
%ADD11C,0.175000*%
%ADD12C,0.250000*%
%ADD13C,0.300000*%
%ADD14C,0.120000*%
G04 APERTURE END LIST*
D10*
X107442000Y-113030000D02*
X74422000Y-113030000D01*
X74422000Y-100330000D02*
X107442000Y-100330000D01*
X107442000Y-87630000D02*
X74422000Y-87630000D01*
X104902000Y-125730000D02*
X104902000Y-74930000D01*
X102362000Y-74930000D02*
X102362000Y-125730000D01*
X99822000Y-125730000D02*
X99822000Y-74930000D01*
X97282000Y-74930000D02*
X97282000Y-125730000D01*
X94742000Y-125730000D02*
X94742000Y-74930000D01*
X92202000Y-74930000D02*
X92202000Y-125730000D01*
X89662000Y-125730000D02*
X89662000Y-74930000D01*
X87122000Y-74930000D02*
X87122000Y-125730000D01*
X84582000Y-125730000D02*
X84582000Y-74930000D01*
X82042000Y-74930000D02*
X82042000Y-125730000D01*
X79502000Y-125730000D02*
X79502000Y-74930000D01*
X76962000Y-74930000D02*
X76962000Y-125730000D01*
X107442000Y-74930000D02*
X74422000Y-74930000D01*
X107442000Y-125730000D02*
X107442000Y-74930000D01*
X74422000Y-125730000D02*
X107442000Y-125730000D01*
X74422000Y-74930000D02*
X74422000Y-125730000D01*
D11*
X118275166Y-116490000D02*
X118208500Y-116456666D01*
X118108500Y-116456666D01*
X118008500Y-116490000D01*
X117941833Y-116556666D01*
X117908500Y-116623333D01*
X117875166Y-116756666D01*
X117875166Y-116856666D01*
X117908500Y-116990000D01*
X117941833Y-117056666D01*
X118008500Y-117123333D01*
X118108500Y-117156666D01*
X118175166Y-117156666D01*
X118275166Y-117123333D01*
X118308500Y-117090000D01*
X118308500Y-116856666D01*
X118175166Y-116856666D01*
X118608500Y-117156666D02*
X118608500Y-116456666D01*
X119008500Y-117156666D01*
X119008500Y-116456666D01*
X119341833Y-117156666D02*
X119341833Y-116456666D01*
X119508500Y-116456666D01*
X119608500Y-116490000D01*
X119675166Y-116556666D01*
X119708500Y-116623333D01*
X119741833Y-116756666D01*
X119741833Y-116856666D01*
X119708500Y-116990000D01*
X119675166Y-117056666D01*
X119608500Y-117123333D01*
X119508500Y-117156666D01*
X119341833Y-117156666D01*
X110718666Y-124110000D02*
X110652000Y-124076666D01*
X110552000Y-124076666D01*
X110452000Y-124110000D01*
X110385333Y-124176666D01*
X110352000Y-124243333D01*
X110318666Y-124376666D01*
X110318666Y-124476666D01*
X110352000Y-124610000D01*
X110385333Y-124676666D01*
X110452000Y-124743333D01*
X110552000Y-124776666D01*
X110618666Y-124776666D01*
X110718666Y-124743333D01*
X110752000Y-124710000D01*
X110752000Y-124476666D01*
X110618666Y-124476666D01*
X111052000Y-124776666D02*
X111052000Y-124076666D01*
X111452000Y-124776666D01*
X111452000Y-124076666D01*
X111785333Y-124776666D02*
X111785333Y-124076666D01*
X111952000Y-124076666D01*
X112052000Y-124110000D01*
X112118666Y-124176666D01*
X112152000Y-124243333D01*
X112185333Y-124376666D01*
X112185333Y-124476666D01*
X112152000Y-124610000D01*
X112118666Y-124676666D01*
X112052000Y-124743333D01*
X111952000Y-124776666D01*
X111785333Y-124776666D01*
X110091666Y-98764166D02*
X110091666Y-98064166D01*
X110558333Y-98064166D02*
X110691666Y-98064166D01*
X110758333Y-98097500D01*
X110825000Y-98164166D01*
X110858333Y-98297500D01*
X110858333Y-98530833D01*
X110825000Y-98664166D01*
X110758333Y-98730833D01*
X110691666Y-98764166D01*
X110558333Y-98764166D01*
X110491666Y-98730833D01*
X110425000Y-98664166D01*
X110391666Y-98530833D01*
X110391666Y-98297500D01*
X110425000Y-98164166D01*
X110491666Y-98097500D01*
X110558333Y-98064166D01*
X111525000Y-98764166D02*
X111125000Y-98764166D01*
X111325000Y-98764166D02*
X111325000Y-98064166D01*
X111258333Y-98164166D01*
X111191666Y-98230833D01*
X111125000Y-98264166D01*
X111958333Y-98064166D02*
X112025000Y-98064166D01*
X112091666Y-98097500D01*
X112125000Y-98130833D01*
X112158333Y-98197500D01*
X112191666Y-98330833D01*
X112191666Y-98497500D01*
X112158333Y-98630833D01*
X112125000Y-98697500D01*
X112091666Y-98730833D01*
X112025000Y-98764166D01*
X111958333Y-98764166D01*
X111891666Y-98730833D01*
X111858333Y-98697500D01*
X111825000Y-98630833D01*
X111791666Y-98497500D01*
X111791666Y-98330833D01*
X111825000Y-98197500D01*
X111858333Y-98130833D01*
X111891666Y-98097500D01*
X111958333Y-98064166D01*
X110025000Y-99989166D02*
X110025000Y-99289166D01*
X110258333Y-99789166D01*
X110491666Y-99289166D01*
X110491666Y-99989166D01*
X110958333Y-99289166D02*
X111091666Y-99289166D01*
X111158333Y-99322500D01*
X111225000Y-99389166D01*
X111258333Y-99522500D01*
X111258333Y-99755833D01*
X111225000Y-99889166D01*
X111158333Y-99955833D01*
X111091666Y-99989166D01*
X110958333Y-99989166D01*
X110891666Y-99955833D01*
X110825000Y-99889166D01*
X110791666Y-99755833D01*
X110791666Y-99522500D01*
X110825000Y-99389166D01*
X110891666Y-99322500D01*
X110958333Y-99289166D01*
X111525000Y-99955833D02*
X111625000Y-99989166D01*
X111791666Y-99989166D01*
X111858333Y-99955833D01*
X111891666Y-99922500D01*
X111925000Y-99855833D01*
X111925000Y-99789166D01*
X111891666Y-99722500D01*
X111858333Y-99689166D01*
X111791666Y-99655833D01*
X111658333Y-99622500D01*
X111591666Y-99589166D01*
X111558333Y-99555833D01*
X111525000Y-99489166D01*
X111525000Y-99422500D01*
X111558333Y-99355833D01*
X111591666Y-99322500D01*
X111658333Y-99289166D01*
X111825000Y-99289166D01*
X111925000Y-99322500D01*
X112225000Y-99989166D02*
X112225000Y-99289166D01*
X117902166Y-96836666D02*
X117902166Y-96136666D01*
X118368833Y-96136666D02*
X118502166Y-96136666D01*
X118568833Y-96170000D01*
X118635500Y-96236666D01*
X118668833Y-96370000D01*
X118668833Y-96603333D01*
X118635500Y-96736666D01*
X118568833Y-96803333D01*
X118502166Y-96836666D01*
X118368833Y-96836666D01*
X118302166Y-96803333D01*
X118235500Y-96736666D01*
X118202166Y-96603333D01*
X118202166Y-96370000D01*
X118235500Y-96236666D01*
X118302166Y-96170000D01*
X118368833Y-96136666D01*
X118935500Y-96203333D02*
X118968833Y-96170000D01*
X119035500Y-96136666D01*
X119202166Y-96136666D01*
X119268833Y-96170000D01*
X119302166Y-96203333D01*
X119335500Y-96270000D01*
X119335500Y-96336666D01*
X119302166Y-96436666D01*
X118902166Y-96836666D01*
X119335500Y-96836666D01*
X119935500Y-96370000D02*
X119935500Y-96836666D01*
X119768833Y-96103333D02*
X119602166Y-96603333D01*
X120035500Y-96603333D01*
X118275166Y-98710000D02*
X118208500Y-98676666D01*
X118108500Y-98676666D01*
X118008500Y-98710000D01*
X117941833Y-98776666D01*
X117908500Y-98843333D01*
X117875166Y-98976666D01*
X117875166Y-99076666D01*
X117908500Y-99210000D01*
X117941833Y-99276666D01*
X118008500Y-99343333D01*
X118108500Y-99376666D01*
X118175166Y-99376666D01*
X118275166Y-99343333D01*
X118308500Y-99310000D01*
X118308500Y-99076666D01*
X118175166Y-99076666D01*
X118608500Y-99376666D02*
X118608500Y-98676666D01*
X119008500Y-99376666D01*
X119008500Y-98676666D01*
X119341833Y-99376666D02*
X119341833Y-98676666D01*
X119508500Y-98676666D01*
X119608500Y-98710000D01*
X119675166Y-98776666D01*
X119708500Y-98843333D01*
X119741833Y-98976666D01*
X119741833Y-99076666D01*
X119708500Y-99210000D01*
X119675166Y-99276666D01*
X119608500Y-99343333D01*
X119508500Y-99376666D01*
X119341833Y-99376666D01*
X117902166Y-88540666D02*
X117902166Y-87840666D01*
X118368833Y-87840666D02*
X118502166Y-87840666D01*
X118568833Y-87874000D01*
X118635500Y-87940666D01*
X118668833Y-88074000D01*
X118668833Y-88307333D01*
X118635500Y-88440666D01*
X118568833Y-88507333D01*
X118502166Y-88540666D01*
X118368833Y-88540666D01*
X118302166Y-88507333D01*
X118235500Y-88440666D01*
X118202166Y-88307333D01*
X118202166Y-88074000D01*
X118235500Y-87940666D01*
X118302166Y-87874000D01*
X118368833Y-87840666D01*
X119335500Y-88540666D02*
X118935500Y-88540666D01*
X119135500Y-88540666D02*
X119135500Y-87840666D01*
X119068833Y-87940666D01*
X119002166Y-88007333D01*
X118935500Y-88040666D01*
X119735500Y-88140666D02*
X119668833Y-88107333D01*
X119635500Y-88074000D01*
X119602166Y-88007333D01*
X119602166Y-87974000D01*
X119635500Y-87907333D01*
X119668833Y-87874000D01*
X119735500Y-87840666D01*
X119868833Y-87840666D01*
X119935500Y-87874000D01*
X119968833Y-87907333D01*
X120002166Y-87974000D01*
X120002166Y-88007333D01*
X119968833Y-88074000D01*
X119935500Y-88107333D01*
X119868833Y-88140666D01*
X119735500Y-88140666D01*
X119668833Y-88174000D01*
X119635500Y-88207333D01*
X119602166Y-88274000D01*
X119602166Y-88407333D01*
X119635500Y-88474000D01*
X119668833Y-88507333D01*
X119735500Y-88540666D01*
X119868833Y-88540666D01*
X119935500Y-88507333D01*
X119968833Y-88474000D01*
X120002166Y-88407333D01*
X120002166Y-88274000D01*
X119968833Y-88207333D01*
X119935500Y-88174000D01*
X119868833Y-88140666D01*
X118518833Y-89699000D02*
X118485500Y-89732333D01*
X118385500Y-89765666D01*
X118318833Y-89765666D01*
X118218833Y-89732333D01*
X118152166Y-89665666D01*
X118118833Y-89599000D01*
X118085500Y-89465666D01*
X118085500Y-89365666D01*
X118118833Y-89232333D01*
X118152166Y-89165666D01*
X118218833Y-89099000D01*
X118318833Y-89065666D01*
X118385500Y-89065666D01*
X118485500Y-89099000D01*
X118518833Y-89132333D01*
X119152166Y-89765666D02*
X118818833Y-89765666D01*
X118818833Y-89065666D01*
X119385500Y-89765666D02*
X119385500Y-89065666D01*
X119785500Y-89765666D02*
X119485500Y-89365666D01*
X119785500Y-89065666D02*
X119385500Y-89465666D01*
X117902166Y-101916666D02*
X117902166Y-101216666D01*
X118368833Y-101216666D02*
X118502166Y-101216666D01*
X118568833Y-101250000D01*
X118635500Y-101316666D01*
X118668833Y-101450000D01*
X118668833Y-101683333D01*
X118635500Y-101816666D01*
X118568833Y-101883333D01*
X118502166Y-101916666D01*
X118368833Y-101916666D01*
X118302166Y-101883333D01*
X118235500Y-101816666D01*
X118202166Y-101683333D01*
X118202166Y-101450000D01*
X118235500Y-101316666D01*
X118302166Y-101250000D01*
X118368833Y-101216666D01*
X118935500Y-101283333D02*
X118968833Y-101250000D01*
X119035500Y-101216666D01*
X119202166Y-101216666D01*
X119268833Y-101250000D01*
X119302166Y-101283333D01*
X119335500Y-101350000D01*
X119335500Y-101416666D01*
X119302166Y-101516666D01*
X118902166Y-101916666D01*
X119335500Y-101916666D01*
X119968833Y-101216666D02*
X119635500Y-101216666D01*
X119602166Y-101550000D01*
X119635500Y-101516666D01*
X119702166Y-101483333D01*
X119868833Y-101483333D01*
X119935500Y-101516666D01*
X119968833Y-101550000D01*
X120002166Y-101616666D01*
X120002166Y-101783333D01*
X119968833Y-101850000D01*
X119935500Y-101883333D01*
X119868833Y-101916666D01*
X119702166Y-101916666D01*
X119635500Y-101883333D01*
X119602166Y-101850000D01*
X117902166Y-86064166D02*
X117902166Y-85364166D01*
X118368833Y-85364166D02*
X118502166Y-85364166D01*
X118568833Y-85397500D01*
X118635500Y-85464166D01*
X118668833Y-85597500D01*
X118668833Y-85830833D01*
X118635500Y-85964166D01*
X118568833Y-86030833D01*
X118502166Y-86064166D01*
X118368833Y-86064166D01*
X118302166Y-86030833D01*
X118235500Y-85964166D01*
X118202166Y-85830833D01*
X118202166Y-85597500D01*
X118235500Y-85464166D01*
X118302166Y-85397500D01*
X118368833Y-85364166D01*
X119335500Y-86064166D02*
X118935500Y-86064166D01*
X119135500Y-86064166D02*
X119135500Y-85364166D01*
X119068833Y-85464166D01*
X119002166Y-85530833D01*
X118935500Y-85564166D01*
X119968833Y-85364166D02*
X119635500Y-85364166D01*
X119602166Y-85697500D01*
X119635500Y-85664166D01*
X119702166Y-85630833D01*
X119868833Y-85630833D01*
X119935500Y-85664166D01*
X119968833Y-85697500D01*
X120002166Y-85764166D01*
X120002166Y-85930833D01*
X119968833Y-85997500D01*
X119935500Y-86030833D01*
X119868833Y-86064166D01*
X119702166Y-86064166D01*
X119635500Y-86030833D01*
X119602166Y-85997500D01*
X118468833Y-87289166D02*
X118235500Y-86955833D01*
X118068833Y-87289166D02*
X118068833Y-86589166D01*
X118335500Y-86589166D01*
X118402166Y-86622500D01*
X118435500Y-86655833D01*
X118468833Y-86722500D01*
X118468833Y-86822500D01*
X118435500Y-86889166D01*
X118402166Y-86922500D01*
X118335500Y-86955833D01*
X118068833Y-86955833D01*
X118702166Y-86589166D02*
X119168833Y-87289166D01*
X119168833Y-86589166D02*
X118702166Y-87289166D01*
X119435500Y-87289166D02*
X119435500Y-86589166D01*
X119602166Y-86589166D01*
X119702166Y-86622500D01*
X119768833Y-86689166D01*
X119802166Y-86755833D01*
X119835500Y-86889166D01*
X119835500Y-86989166D01*
X119802166Y-87122500D01*
X119768833Y-87189166D01*
X119702166Y-87255833D01*
X119602166Y-87289166D01*
X119435500Y-87289166D01*
X118275166Y-80930000D02*
X118208500Y-80896666D01*
X118108500Y-80896666D01*
X118008500Y-80930000D01*
X117941833Y-80996666D01*
X117908500Y-81063333D01*
X117875166Y-81196666D01*
X117875166Y-81296666D01*
X117908500Y-81430000D01*
X117941833Y-81496666D01*
X118008500Y-81563333D01*
X118108500Y-81596666D01*
X118175166Y-81596666D01*
X118275166Y-81563333D01*
X118308500Y-81530000D01*
X118308500Y-81296666D01*
X118175166Y-81296666D01*
X118608500Y-81596666D02*
X118608500Y-80896666D01*
X119008500Y-81596666D01*
X119008500Y-80896666D01*
X119341833Y-81596666D02*
X119341833Y-80896666D01*
X119508500Y-80896666D01*
X119608500Y-80930000D01*
X119675166Y-80996666D01*
X119708500Y-81063333D01*
X119741833Y-81196666D01*
X119741833Y-81296666D01*
X119708500Y-81430000D01*
X119675166Y-81496666D01*
X119608500Y-81563333D01*
X119508500Y-81596666D01*
X119341833Y-81596666D01*
X118294166Y-78356666D02*
X117960833Y-78356666D01*
X117927500Y-78690000D01*
X117960833Y-78656666D01*
X118027500Y-78623333D01*
X118194166Y-78623333D01*
X118260833Y-78656666D01*
X118294166Y-78690000D01*
X118327500Y-78756666D01*
X118327500Y-78923333D01*
X118294166Y-78990000D01*
X118260833Y-79023333D01*
X118194166Y-79056666D01*
X118027500Y-79056666D01*
X117960833Y-79023333D01*
X117927500Y-78990000D01*
X118527500Y-78356666D02*
X118760833Y-79056666D01*
X118994166Y-78356666D01*
X117889500Y-109536666D02*
X117889500Y-108836666D01*
X118222833Y-109536666D02*
X118222833Y-108836666D01*
X118389500Y-108836666D01*
X118489500Y-108870000D01*
X118556166Y-108936666D01*
X118589500Y-109003333D01*
X118622833Y-109136666D01*
X118622833Y-109236666D01*
X118589500Y-109370000D01*
X118556166Y-109436666D01*
X118489500Y-109503333D01*
X118389500Y-109536666D01*
X118222833Y-109536666D01*
X118756166Y-109603333D02*
X119289500Y-109603333D01*
X119422833Y-109503333D02*
X119522833Y-109536666D01*
X119689500Y-109536666D01*
X119756166Y-109503333D01*
X119789500Y-109470000D01*
X119822833Y-109403333D01*
X119822833Y-109336666D01*
X119789500Y-109270000D01*
X119756166Y-109236666D01*
X119689500Y-109203333D01*
X119556166Y-109170000D01*
X119489500Y-109136666D01*
X119456166Y-109103333D01*
X119422833Y-109036666D01*
X119422833Y-108970000D01*
X119456166Y-108903333D01*
X119489500Y-108870000D01*
X119556166Y-108836666D01*
X119722833Y-108836666D01*
X119822833Y-108870000D01*
X120522833Y-109470000D02*
X120489500Y-109503333D01*
X120389500Y-109536666D01*
X120322833Y-109536666D01*
X120222833Y-109503333D01*
X120156166Y-109436666D01*
X120122833Y-109370000D01*
X120089500Y-109236666D01*
X120089500Y-109136666D01*
X120122833Y-109003333D01*
X120156166Y-108936666D01*
X120222833Y-108870000D01*
X120322833Y-108836666D01*
X120389500Y-108836666D01*
X120489500Y-108870000D01*
X120522833Y-108903333D01*
X117902166Y-114616666D02*
X117902166Y-113916666D01*
X118368833Y-113916666D02*
X118502166Y-113916666D01*
X118568833Y-113950000D01*
X118635500Y-114016666D01*
X118668833Y-114150000D01*
X118668833Y-114383333D01*
X118635500Y-114516666D01*
X118568833Y-114583333D01*
X118502166Y-114616666D01*
X118368833Y-114616666D01*
X118302166Y-114583333D01*
X118235500Y-114516666D01*
X118202166Y-114383333D01*
X118202166Y-114150000D01*
X118235500Y-114016666D01*
X118302166Y-113950000D01*
X118368833Y-113916666D01*
X119335500Y-114616666D02*
X118935500Y-114616666D01*
X119135500Y-114616666D02*
X119135500Y-113916666D01*
X119068833Y-114016666D01*
X119002166Y-114083333D01*
X118935500Y-114116666D01*
X119602166Y-113983333D02*
X119635500Y-113950000D01*
X119702166Y-113916666D01*
X119868833Y-113916666D01*
X119935500Y-113950000D01*
X119968833Y-113983333D01*
X120002166Y-114050000D01*
X120002166Y-114116666D01*
X119968833Y-114216666D01*
X119568833Y-114616666D01*
X120002166Y-114616666D01*
X118680000Y-103844166D02*
X118680000Y-103144166D01*
X119146666Y-103144166D02*
X119280000Y-103144166D01*
X119346666Y-103177500D01*
X119413333Y-103244166D01*
X119446666Y-103377500D01*
X119446666Y-103610833D01*
X119413333Y-103744166D01*
X119346666Y-103810833D01*
X119280000Y-103844166D01*
X119146666Y-103844166D01*
X119080000Y-103810833D01*
X119013333Y-103744166D01*
X118980000Y-103610833D01*
X118980000Y-103377500D01*
X119013333Y-103244166D01*
X119080000Y-103177500D01*
X119146666Y-103144166D01*
X119846666Y-103444166D02*
X119780000Y-103410833D01*
X119746666Y-103377500D01*
X119713333Y-103310833D01*
X119713333Y-103277500D01*
X119746666Y-103210833D01*
X119780000Y-103177500D01*
X119846666Y-103144166D01*
X119980000Y-103144166D01*
X120046666Y-103177500D01*
X120080000Y-103210833D01*
X120113333Y-103277500D01*
X120113333Y-103310833D01*
X120080000Y-103377500D01*
X120046666Y-103410833D01*
X119980000Y-103444166D01*
X119846666Y-103444166D01*
X119780000Y-103477500D01*
X119746666Y-103510833D01*
X119713333Y-103577500D01*
X119713333Y-103710833D01*
X119746666Y-103777500D01*
X119780000Y-103810833D01*
X119846666Y-103844166D01*
X119980000Y-103844166D01*
X120046666Y-103810833D01*
X120080000Y-103777500D01*
X120113333Y-103710833D01*
X120113333Y-103577500D01*
X120080000Y-103510833D01*
X120046666Y-103477500D01*
X119980000Y-103444166D01*
X118313333Y-105002500D02*
X118280000Y-105035833D01*
X118180000Y-105069166D01*
X118113333Y-105069166D01*
X118013333Y-105035833D01*
X117946666Y-104969166D01*
X117913333Y-104902500D01*
X117880000Y-104769166D01*
X117880000Y-104669166D01*
X117913333Y-104535833D01*
X117946666Y-104469166D01*
X118013333Y-104402500D01*
X118113333Y-104369166D01*
X118180000Y-104369166D01*
X118280000Y-104402500D01*
X118313333Y-104435833D01*
X118613333Y-104702500D02*
X118846666Y-104702500D01*
X118946666Y-105069166D02*
X118613333Y-105069166D01*
X118613333Y-104369166D01*
X118946666Y-104369166D01*
X119380000Y-104369166D02*
X119446666Y-104369166D01*
X119513333Y-104402500D01*
X119546666Y-104435833D01*
X119580000Y-104502500D01*
X119613333Y-104635833D01*
X119613333Y-104802500D01*
X119580000Y-104935833D01*
X119546666Y-105002500D01*
X119513333Y-105035833D01*
X119446666Y-105069166D01*
X119380000Y-105069166D01*
X119313333Y-105035833D01*
X119280000Y-105002500D01*
X119246666Y-104935833D01*
X119213333Y-104802500D01*
X119213333Y-104635833D01*
X119246666Y-104502500D01*
X119280000Y-104435833D01*
X119313333Y-104402500D01*
X119380000Y-104369166D01*
X119746666Y-105135833D02*
X120280000Y-105135833D01*
X120446666Y-105069166D02*
X120446666Y-104369166D01*
X120846666Y-105069166D01*
X120846666Y-104369166D01*
X118275166Y-91090000D02*
X118208500Y-91056666D01*
X118108500Y-91056666D01*
X118008500Y-91090000D01*
X117941833Y-91156666D01*
X117908500Y-91223333D01*
X117875166Y-91356666D01*
X117875166Y-91456666D01*
X117908500Y-91590000D01*
X117941833Y-91656666D01*
X118008500Y-91723333D01*
X118108500Y-91756666D01*
X118175166Y-91756666D01*
X118275166Y-91723333D01*
X118308500Y-91690000D01*
X118308500Y-91456666D01*
X118175166Y-91456666D01*
X118608500Y-91756666D02*
X118608500Y-91056666D01*
X119008500Y-91756666D01*
X119008500Y-91056666D01*
X119341833Y-91756666D02*
X119341833Y-91056666D01*
X119508500Y-91056666D01*
X119608500Y-91090000D01*
X119675166Y-91156666D01*
X119708500Y-91223333D01*
X119741833Y-91356666D01*
X119741833Y-91456666D01*
X119708500Y-91590000D01*
X119675166Y-91656666D01*
X119608500Y-91723333D01*
X119508500Y-91756666D01*
X119341833Y-91756666D01*
X118275166Y-111410000D02*
X118208500Y-111376666D01*
X118108500Y-111376666D01*
X118008500Y-111410000D01*
X117941833Y-111476666D01*
X117908500Y-111543333D01*
X117875166Y-111676666D01*
X117875166Y-111776666D01*
X117908500Y-111910000D01*
X117941833Y-111976666D01*
X118008500Y-112043333D01*
X118108500Y-112076666D01*
X118175166Y-112076666D01*
X118275166Y-112043333D01*
X118308500Y-112010000D01*
X118308500Y-111776666D01*
X118175166Y-111776666D01*
X118608500Y-112076666D02*
X118608500Y-111376666D01*
X119008500Y-112076666D01*
X119008500Y-111376666D01*
X119341833Y-112076666D02*
X119341833Y-111376666D01*
X119508500Y-111376666D01*
X119608500Y-111410000D01*
X119675166Y-111476666D01*
X119708500Y-111543333D01*
X119741833Y-111676666D01*
X119741833Y-111776666D01*
X119708500Y-111910000D01*
X119675166Y-111976666D01*
X119608500Y-112043333D01*
X119508500Y-112076666D01*
X119341833Y-112076666D01*
X117902166Y-83524166D02*
X117902166Y-82824166D01*
X118368833Y-82824166D02*
X118502166Y-82824166D01*
X118568833Y-82857500D01*
X118635500Y-82924166D01*
X118668833Y-83057500D01*
X118668833Y-83290833D01*
X118635500Y-83424166D01*
X118568833Y-83490833D01*
X118502166Y-83524166D01*
X118368833Y-83524166D01*
X118302166Y-83490833D01*
X118235500Y-83424166D01*
X118202166Y-83290833D01*
X118202166Y-83057500D01*
X118235500Y-82924166D01*
X118302166Y-82857500D01*
X118368833Y-82824166D01*
X119335500Y-83524166D02*
X118935500Y-83524166D01*
X119135500Y-83524166D02*
X119135500Y-82824166D01*
X119068833Y-82924166D01*
X119002166Y-82990833D01*
X118935500Y-83024166D01*
X119935500Y-83057500D02*
X119935500Y-83524166D01*
X119768833Y-82790833D02*
X119602166Y-83290833D01*
X120035500Y-83290833D01*
X118052166Y-84049166D02*
X118452166Y-84049166D01*
X118252166Y-84749166D02*
X118252166Y-84049166D01*
X118618833Y-84049166D02*
X119085500Y-84749166D01*
X119085500Y-84049166D02*
X118618833Y-84749166D01*
X119352166Y-84749166D02*
X119352166Y-84049166D01*
X119518833Y-84049166D01*
X119618833Y-84082500D01*
X119685500Y-84149166D01*
X119718833Y-84215833D01*
X119752166Y-84349166D01*
X119752166Y-84449166D01*
X119718833Y-84582500D01*
X119685500Y-84649166D01*
X119618833Y-84715833D01*
X119518833Y-84749166D01*
X119352166Y-84749166D01*
X118294166Y-75816666D02*
X117960833Y-75816666D01*
X117927500Y-76150000D01*
X117960833Y-76116666D01*
X118027500Y-76083333D01*
X118194166Y-76083333D01*
X118260833Y-76116666D01*
X118294166Y-76150000D01*
X118327500Y-76216666D01*
X118327500Y-76383333D01*
X118294166Y-76450000D01*
X118260833Y-76483333D01*
X118194166Y-76516666D01*
X118027500Y-76516666D01*
X117960833Y-76483333D01*
X117927500Y-76450000D01*
X118527500Y-75816666D02*
X118760833Y-76516666D01*
X118994166Y-75816666D01*
X117902166Y-94296666D02*
X117902166Y-93596666D01*
X118368833Y-93596666D02*
X118502166Y-93596666D01*
X118568833Y-93630000D01*
X118635500Y-93696666D01*
X118668833Y-93830000D01*
X118668833Y-94063333D01*
X118635500Y-94196666D01*
X118568833Y-94263333D01*
X118502166Y-94296666D01*
X118368833Y-94296666D01*
X118302166Y-94263333D01*
X118235500Y-94196666D01*
X118202166Y-94063333D01*
X118202166Y-93830000D01*
X118235500Y-93696666D01*
X118302166Y-93630000D01*
X118368833Y-93596666D01*
X118935500Y-93663333D02*
X118968833Y-93630000D01*
X119035500Y-93596666D01*
X119202166Y-93596666D01*
X119268833Y-93630000D01*
X119302166Y-93663333D01*
X119335500Y-93730000D01*
X119335500Y-93796666D01*
X119302166Y-93896666D01*
X118902166Y-94296666D01*
X119335500Y-94296666D01*
X119568833Y-93596666D02*
X120002166Y-93596666D01*
X119768833Y-93863333D01*
X119868833Y-93863333D01*
X119935500Y-93896666D01*
X119968833Y-93930000D01*
X120002166Y-93996666D01*
X120002166Y-94163333D01*
X119968833Y-94230000D01*
X119935500Y-94263333D01*
X119868833Y-94296666D01*
X119668833Y-94296666D01*
X119602166Y-94263333D01*
X119568833Y-94230000D01*
X118680000Y-106384166D02*
X118680000Y-105684166D01*
X119146666Y-105684166D02*
X119280000Y-105684166D01*
X119346666Y-105717500D01*
X119413333Y-105784166D01*
X119446666Y-105917500D01*
X119446666Y-106150833D01*
X119413333Y-106284166D01*
X119346666Y-106350833D01*
X119280000Y-106384166D01*
X119146666Y-106384166D01*
X119080000Y-106350833D01*
X119013333Y-106284166D01*
X118980000Y-106150833D01*
X118980000Y-105917500D01*
X119013333Y-105784166D01*
X119080000Y-105717500D01*
X119146666Y-105684166D01*
X119680000Y-105684166D02*
X120146666Y-105684166D01*
X119846666Y-106384166D01*
X118313333Y-107542500D02*
X118280000Y-107575833D01*
X118180000Y-107609166D01*
X118113333Y-107609166D01*
X118013333Y-107575833D01*
X117946666Y-107509166D01*
X117913333Y-107442500D01*
X117880000Y-107309166D01*
X117880000Y-107209166D01*
X117913333Y-107075833D01*
X117946666Y-107009166D01*
X118013333Y-106942500D01*
X118113333Y-106909166D01*
X118180000Y-106909166D01*
X118280000Y-106942500D01*
X118313333Y-106975833D01*
X118613333Y-107242500D02*
X118846666Y-107242500D01*
X118946666Y-107609166D02*
X118613333Y-107609166D01*
X118613333Y-106909166D01*
X118946666Y-106909166D01*
X119613333Y-107609166D02*
X119213333Y-107609166D01*
X119413333Y-107609166D02*
X119413333Y-106909166D01*
X119346666Y-107009166D01*
X119280000Y-107075833D01*
X119213333Y-107109166D01*
X119746666Y-107675833D02*
X120280000Y-107675833D01*
X120446666Y-107609166D02*
X120446666Y-106909166D01*
X120846666Y-107609166D01*
X120846666Y-106909166D01*
D12*
X108418523Y-131643380D02*
X108085190Y-131167190D01*
X107847095Y-131643380D02*
X107847095Y-130643380D01*
X108228047Y-130643380D01*
X108323285Y-130691000D01*
X108370904Y-130738619D01*
X108418523Y-130833857D01*
X108418523Y-130976714D01*
X108370904Y-131071952D01*
X108323285Y-131119571D01*
X108228047Y-131167190D01*
X107847095Y-131167190D01*
X109228047Y-131595761D02*
X109132809Y-131643380D01*
X108942333Y-131643380D01*
X108847095Y-131595761D01*
X108799476Y-131500523D01*
X108799476Y-131119571D01*
X108847095Y-131024333D01*
X108942333Y-130976714D01*
X109132809Y-130976714D01*
X109228047Y-131024333D01*
X109275666Y-131119571D01*
X109275666Y-131214809D01*
X108799476Y-131310047D01*
X109609000Y-130976714D02*
X109847095Y-131643380D01*
X110085190Y-130976714D01*
X110989952Y-131643380D02*
X110418523Y-131643380D01*
X110704238Y-131643380D02*
X110704238Y-130643380D01*
X110609000Y-130786238D01*
X110513761Y-130881476D01*
X110418523Y-130929095D01*
X111418523Y-131548142D02*
X111466142Y-131595761D01*
X111418523Y-131643380D01*
X111370904Y-131595761D01*
X111418523Y-131548142D01*
X111418523Y-131643380D01*
X112085190Y-130643380D02*
X112180428Y-130643380D01*
X112275666Y-130691000D01*
X112323285Y-130738619D01*
X112370904Y-130833857D01*
X112418523Y-131024333D01*
X112418523Y-131262428D01*
X112370904Y-131452904D01*
X112323285Y-131548142D01*
X112275666Y-131595761D01*
X112180428Y-131643380D01*
X112085190Y-131643380D01*
X111989952Y-131595761D01*
X111942333Y-131548142D01*
X111894714Y-131452904D01*
X111847095Y-131262428D01*
X111847095Y-131024333D01*
X111894714Y-130833857D01*
X111942333Y-130738619D01*
X111989952Y-130691000D01*
X112085190Y-130643380D01*
D13*
X87591428Y-131615571D02*
X87091428Y-130901285D01*
X86734285Y-131615571D02*
X86734285Y-130115571D01*
X87305714Y-130115571D01*
X87448571Y-130187000D01*
X87520000Y-130258428D01*
X87591428Y-130401285D01*
X87591428Y-130615571D01*
X87520000Y-130758428D01*
X87448571Y-130829857D01*
X87305714Y-130901285D01*
X86734285Y-130901285D01*
X88877142Y-131615571D02*
X88877142Y-130829857D01*
X88805714Y-130687000D01*
X88662857Y-130615571D01*
X88377142Y-130615571D01*
X88234285Y-130687000D01*
X88877142Y-131544142D02*
X88734285Y-131615571D01*
X88377142Y-131615571D01*
X88234285Y-131544142D01*
X88162857Y-131401285D01*
X88162857Y-131258428D01*
X88234285Y-131115571D01*
X88377142Y-131044142D01*
X88734285Y-131044142D01*
X88877142Y-130972714D01*
X89520000Y-131544142D02*
X89662857Y-131615571D01*
X89948571Y-131615571D01*
X90091428Y-131544142D01*
X90162857Y-131401285D01*
X90162857Y-131329857D01*
X90091428Y-131187000D01*
X89948571Y-131115571D01*
X89734285Y-131115571D01*
X89591428Y-131044142D01*
X89520000Y-130901285D01*
X89520000Y-130829857D01*
X89591428Y-130687000D01*
X89734285Y-130615571D01*
X89948571Y-130615571D01*
X90091428Y-130687000D01*
X90805714Y-130615571D02*
X90805714Y-132115571D01*
X90805714Y-130687000D02*
X90948571Y-130615571D01*
X91234285Y-130615571D01*
X91377142Y-130687000D01*
X91448571Y-130758428D01*
X91520000Y-130901285D01*
X91520000Y-131329857D01*
X91448571Y-131472714D01*
X91377142Y-131544142D01*
X91234285Y-131615571D01*
X90948571Y-131615571D01*
X90805714Y-131544142D01*
X92162857Y-131615571D02*
X92162857Y-130615571D01*
X92162857Y-130115571D02*
X92091428Y-130187000D01*
X92162857Y-130258428D01*
X92234285Y-130187000D01*
X92162857Y-130115571D01*
X92162857Y-130258428D01*
X92877142Y-130115571D02*
X92877142Y-131329857D01*
X92948571Y-131472714D01*
X93020000Y-131544142D01*
X93162857Y-131615571D01*
X93448571Y-131615571D01*
X93591428Y-131544142D01*
X93662857Y-131472714D01*
X93734285Y-131329857D01*
X93734285Y-130115571D01*
X94448571Y-130615571D02*
X94448571Y-131615571D01*
X94448571Y-130758428D02*
X94520000Y-130687000D01*
X94662857Y-130615571D01*
X94877142Y-130615571D01*
X95020000Y-130687000D01*
X95091428Y-130829857D01*
X95091428Y-131615571D01*
X95805714Y-131615571D02*
X95805714Y-130615571D01*
X95805714Y-130115571D02*
X95734285Y-130187000D01*
X95805714Y-130258428D01*
X95877142Y-130187000D01*
X95805714Y-130115571D01*
X95805714Y-130258428D01*
X96377142Y-130615571D02*
X96734285Y-131615571D01*
X97091428Y-130615571D01*
X98234285Y-131544142D02*
X98091428Y-131615571D01*
X97805714Y-131615571D01*
X97662857Y-131544142D01*
X97591428Y-131401285D01*
X97591428Y-130829857D01*
X97662857Y-130687000D01*
X97805714Y-130615571D01*
X98091428Y-130615571D01*
X98234285Y-130687000D01*
X98305714Y-130829857D01*
X98305714Y-130972714D01*
X97591428Y-131115571D01*
X98948571Y-131615571D02*
X98948571Y-130615571D01*
X98948571Y-130901285D02*
X99020000Y-130758428D01*
X99091428Y-130687000D01*
X99234285Y-130615571D01*
X99377142Y-130615571D01*
X99805714Y-131544142D02*
X99948571Y-131615571D01*
X100234285Y-131615571D01*
X100377142Y-131544142D01*
X100448571Y-131401285D01*
X100448571Y-131329857D01*
X100377142Y-131187000D01*
X100234285Y-131115571D01*
X100020000Y-131115571D01*
X99877142Y-131044142D01*
X99805714Y-130901285D01*
X99805714Y-130829857D01*
X99877142Y-130687000D01*
X100020000Y-130615571D01*
X100234285Y-130615571D01*
X100377142Y-130687000D01*
X101734285Y-131615571D02*
X101734285Y-130829857D01*
X101662857Y-130687000D01*
X101520000Y-130615571D01*
X101234285Y-130615571D01*
X101091428Y-130687000D01*
X101734285Y-131544142D02*
X101591428Y-131615571D01*
X101234285Y-131615571D01*
X101091428Y-131544142D01*
X101020000Y-131401285D01*
X101020000Y-131258428D01*
X101091428Y-131115571D01*
X101234285Y-131044142D01*
X101591428Y-131044142D01*
X101734285Y-130972714D01*
X102662857Y-131615571D02*
X102520000Y-131544142D01*
X102448571Y-131401285D01*
X102448571Y-130115571D01*
X103234285Y-131615571D02*
X103234285Y-130115571D01*
X103234285Y-130829857D02*
X104091428Y-130829857D01*
X104091428Y-131615571D02*
X104091428Y-130115571D01*
X105448571Y-131615571D02*
X105448571Y-130829857D01*
X105377142Y-130687000D01*
X105234285Y-130615571D01*
X104948571Y-130615571D01*
X104805714Y-130687000D01*
X105448571Y-131544142D02*
X105305714Y-131615571D01*
X104948571Y-131615571D01*
X104805714Y-131544142D01*
X104734285Y-131401285D01*
X104734285Y-131258428D01*
X104805714Y-131115571D01*
X104948571Y-131044142D01*
X105305714Y-131044142D01*
X105448571Y-130972714D01*
X105948571Y-130615571D02*
X106520000Y-130615571D01*
X106162857Y-130115571D02*
X106162857Y-131401285D01*
X106234285Y-131544142D01*
X106377142Y-131615571D01*
X106520000Y-131615571D01*
X105828642Y-67903785D02*
X105657214Y-67846642D01*
X105371500Y-67846642D01*
X105257214Y-67903785D01*
X105200071Y-67960928D01*
X105142928Y-68075214D01*
X105142928Y-68189500D01*
X105200071Y-68303785D01*
X105257214Y-68360928D01*
X105371500Y-68418071D01*
X105600071Y-68475214D01*
X105714357Y-68532357D01*
X105771500Y-68589500D01*
X105828642Y-68703785D01*
X105828642Y-68818071D01*
X105771500Y-68932357D01*
X105714357Y-68989500D01*
X105600071Y-69046642D01*
X105314357Y-69046642D01*
X105142928Y-68989500D01*
X104628642Y-67846642D02*
X104628642Y-69046642D01*
X104342928Y-69046642D01*
X104171500Y-68989500D01*
X104057214Y-68875214D01*
X104000071Y-68760928D01*
X103942928Y-68532357D01*
X103942928Y-68360928D01*
X104000071Y-68132357D01*
X104057214Y-68018071D01*
X104171500Y-67903785D01*
X104342928Y-67846642D01*
X104628642Y-67846642D01*
X102914357Y-67903785D02*
X103028642Y-67846642D01*
X103257214Y-67846642D01*
X103371500Y-67903785D01*
X103428642Y-67960928D01*
X103485785Y-68075214D01*
X103485785Y-68418071D01*
X103428642Y-68532357D01*
X103371500Y-68589500D01*
X103257214Y-68646642D01*
X103028642Y-68646642D01*
X102914357Y-68589500D01*
X101885785Y-67846642D02*
X101885785Y-68475214D01*
X101942928Y-68589500D01*
X102057214Y-68646642D01*
X102285785Y-68646642D01*
X102400071Y-68589500D01*
X101885785Y-67903785D02*
X102000071Y-67846642D01*
X102285785Y-67846642D01*
X102400071Y-67903785D01*
X102457214Y-68018071D01*
X102457214Y-68132357D01*
X102400071Y-68246642D01*
X102285785Y-68303785D01*
X102000071Y-68303785D01*
X101885785Y-68360928D01*
X101314357Y-67846642D02*
X101314357Y-68646642D01*
X101314357Y-68418071D02*
X101257214Y-68532357D01*
X101200071Y-68589500D01*
X101085785Y-68646642D01*
X100971500Y-68646642D01*
X100057214Y-67846642D02*
X100057214Y-69046642D01*
X100057214Y-67903785D02*
X100171500Y-67846642D01*
X100400071Y-67846642D01*
X100514357Y-67903785D01*
X100571500Y-67960928D01*
X100628642Y-68075214D01*
X100628642Y-68418071D01*
X100571500Y-68532357D01*
X100514357Y-68589500D01*
X100400071Y-68646642D01*
X100171500Y-68646642D01*
X100057214Y-68589500D01*
X98571500Y-68703785D02*
X98571500Y-68760928D01*
X98628642Y-68589500D02*
X98628642Y-68760928D01*
X98685785Y-68475214D02*
X98685785Y-68760928D01*
X98742928Y-68360928D02*
X98742928Y-68760928D01*
X98800071Y-68303785D02*
X98800071Y-68760928D01*
X98857214Y-68189500D02*
X98857214Y-68760928D01*
X98914357Y-68075214D02*
X98914357Y-68760928D01*
X98971500Y-67960928D02*
X98971500Y-68760928D01*
X99028642Y-67846642D02*
X99028642Y-68760928D01*
X99085785Y-67960928D02*
X99085785Y-68760928D01*
X99142928Y-68075214D02*
X99142928Y-68760928D01*
X99200071Y-68189500D02*
X99200071Y-68760928D01*
X99257214Y-68303785D02*
X99257214Y-68760928D01*
X99314357Y-68360928D02*
X99314357Y-68760928D01*
X99371500Y-68475214D02*
X99371500Y-68760928D01*
X99428642Y-68589500D02*
X99428642Y-68760928D01*
X99485785Y-68760928D02*
X99028642Y-67903785D01*
X98571500Y-68760928D01*
X99485785Y-68703785D02*
X99485785Y-68760928D01*
X99028642Y-67846642D02*
X99542928Y-68760928D01*
X98514357Y-68760928D01*
X99028642Y-67846642D01*
D11*
X117902166Y-119696666D02*
X117902166Y-118996666D01*
X118368833Y-118996666D02*
X118502166Y-118996666D01*
X118568833Y-119030000D01*
X118635500Y-119096666D01*
X118668833Y-119230000D01*
X118668833Y-119463333D01*
X118635500Y-119596666D01*
X118568833Y-119663333D01*
X118502166Y-119696666D01*
X118368833Y-119696666D01*
X118302166Y-119663333D01*
X118235500Y-119596666D01*
X118202166Y-119463333D01*
X118202166Y-119230000D01*
X118235500Y-119096666D01*
X118302166Y-119030000D01*
X118368833Y-118996666D01*
X119335500Y-119696666D02*
X118935500Y-119696666D01*
X119135500Y-119696666D02*
X119135500Y-118996666D01*
X119068833Y-119096666D01*
X119002166Y-119163333D01*
X118935500Y-119196666D01*
X119935500Y-118996666D02*
X119802166Y-118996666D01*
X119735500Y-119030000D01*
X119702166Y-119063333D01*
X119635500Y-119163333D01*
X119602166Y-119296666D01*
X119602166Y-119563333D01*
X119635500Y-119630000D01*
X119668833Y-119663333D01*
X119735500Y-119696666D01*
X119868833Y-119696666D01*
X119935500Y-119663333D01*
X119968833Y-119630000D01*
X120002166Y-119563333D01*
X120002166Y-119396666D01*
X119968833Y-119330000D01*
X119935500Y-119296666D01*
X119868833Y-119263333D01*
X119735500Y-119263333D01*
X119668833Y-119296666D01*
X119635500Y-119330000D01*
X119602166Y-119396666D01*
X110028166Y-122236666D02*
X110028166Y-121536666D01*
X110494833Y-121536666D02*
X110628166Y-121536666D01*
X110694833Y-121570000D01*
X110761500Y-121636666D01*
X110794833Y-121770000D01*
X110794833Y-122003333D01*
X110761500Y-122136666D01*
X110694833Y-122203333D01*
X110628166Y-122236666D01*
X110494833Y-122236666D01*
X110428166Y-122203333D01*
X110361500Y-122136666D01*
X110328166Y-122003333D01*
X110328166Y-121770000D01*
X110361500Y-121636666D01*
X110428166Y-121570000D01*
X110494833Y-121536666D01*
X111061500Y-121603333D02*
X111094833Y-121570000D01*
X111161500Y-121536666D01*
X111328166Y-121536666D01*
X111394833Y-121570000D01*
X111428166Y-121603333D01*
X111461500Y-121670000D01*
X111461500Y-121736666D01*
X111428166Y-121836666D01*
X111028166Y-122236666D01*
X111461500Y-122236666D01*
X112061500Y-121536666D02*
X111928166Y-121536666D01*
X111861500Y-121570000D01*
X111828166Y-121603333D01*
X111761500Y-121703333D01*
X111728166Y-121836666D01*
X111728166Y-122103333D01*
X111761500Y-122170000D01*
X111794833Y-122203333D01*
X111861500Y-122236666D01*
X111994833Y-122236666D01*
X112061500Y-122203333D01*
X112094833Y-122170000D01*
X112128166Y-122103333D01*
X112128166Y-121936666D01*
X112094833Y-121870000D01*
X112061500Y-121836666D01*
X111994833Y-121803333D01*
X111861500Y-121803333D01*
X111794833Y-121836666D01*
X111761500Y-121870000D01*
X111728166Y-121936666D01*
X117902166Y-122236666D02*
X117902166Y-121536666D01*
X118368833Y-121536666D02*
X118502166Y-121536666D01*
X118568833Y-121570000D01*
X118635500Y-121636666D01*
X118668833Y-121770000D01*
X118668833Y-122003333D01*
X118635500Y-122136666D01*
X118568833Y-122203333D01*
X118502166Y-122236666D01*
X118368833Y-122236666D01*
X118302166Y-122203333D01*
X118235500Y-122136666D01*
X118202166Y-122003333D01*
X118202166Y-121770000D01*
X118235500Y-121636666D01*
X118302166Y-121570000D01*
X118368833Y-121536666D01*
X118935500Y-121603333D02*
X118968833Y-121570000D01*
X119035500Y-121536666D01*
X119202166Y-121536666D01*
X119268833Y-121570000D01*
X119302166Y-121603333D01*
X119335500Y-121670000D01*
X119335500Y-121736666D01*
X119302166Y-121836666D01*
X118902166Y-122236666D01*
X119335500Y-122236666D01*
X119768833Y-121536666D02*
X119835500Y-121536666D01*
X119902166Y-121570000D01*
X119935500Y-121603333D01*
X119968833Y-121670000D01*
X120002166Y-121803333D01*
X120002166Y-121970000D01*
X119968833Y-122103333D01*
X119935500Y-122170000D01*
X119902166Y-122203333D01*
X119835500Y-122236666D01*
X119768833Y-122236666D01*
X119702166Y-122203333D01*
X119668833Y-122170000D01*
X119635500Y-122103333D01*
X119602166Y-121970000D01*
X119602166Y-121803333D01*
X119635500Y-121670000D01*
X119668833Y-121603333D01*
X119702166Y-121570000D01*
X119768833Y-121536666D01*
X117902166Y-124776666D02*
X117902166Y-124076666D01*
X118368833Y-124076666D02*
X118502166Y-124076666D01*
X118568833Y-124110000D01*
X118635500Y-124176666D01*
X118668833Y-124310000D01*
X118668833Y-124543333D01*
X118635500Y-124676666D01*
X118568833Y-124743333D01*
X118502166Y-124776666D01*
X118368833Y-124776666D01*
X118302166Y-124743333D01*
X118235500Y-124676666D01*
X118202166Y-124543333D01*
X118202166Y-124310000D01*
X118235500Y-124176666D01*
X118302166Y-124110000D01*
X118368833Y-124076666D01*
X118935500Y-124143333D02*
X118968833Y-124110000D01*
X119035500Y-124076666D01*
X119202166Y-124076666D01*
X119268833Y-124110000D01*
X119302166Y-124143333D01*
X119335500Y-124210000D01*
X119335500Y-124276666D01*
X119302166Y-124376666D01*
X118902166Y-124776666D01*
X119335500Y-124776666D01*
X120002166Y-124776666D02*
X119602166Y-124776666D01*
X119802166Y-124776666D02*
X119802166Y-124076666D01*
X119735500Y-124176666D01*
X119668833Y-124243333D01*
X119602166Y-124276666D01*
X109964666Y-103844166D02*
X109964666Y-103144166D01*
X110431333Y-103144166D02*
X110564666Y-103144166D01*
X110631333Y-103177500D01*
X110698000Y-103244166D01*
X110731333Y-103377500D01*
X110731333Y-103610833D01*
X110698000Y-103744166D01*
X110631333Y-103810833D01*
X110564666Y-103844166D01*
X110431333Y-103844166D01*
X110364666Y-103810833D01*
X110298000Y-103744166D01*
X110264666Y-103610833D01*
X110264666Y-103377500D01*
X110298000Y-103244166D01*
X110364666Y-103177500D01*
X110431333Y-103144166D01*
X111398000Y-103844166D02*
X110998000Y-103844166D01*
X111198000Y-103844166D02*
X111198000Y-103144166D01*
X111131333Y-103244166D01*
X111064666Y-103310833D01*
X110998000Y-103344166D01*
X112064666Y-103844166D02*
X111664666Y-103844166D01*
X111864666Y-103844166D02*
X111864666Y-103144166D01*
X111798000Y-103244166D01*
X111731333Y-103310833D01*
X111664666Y-103344166D01*
X109814666Y-105035833D02*
X109914666Y-105069166D01*
X110081333Y-105069166D01*
X110148000Y-105035833D01*
X110181333Y-105002500D01*
X110214666Y-104935833D01*
X110214666Y-104869166D01*
X110181333Y-104802500D01*
X110148000Y-104769166D01*
X110081333Y-104735833D01*
X109948000Y-104702500D01*
X109881333Y-104669166D01*
X109848000Y-104635833D01*
X109814666Y-104569166D01*
X109814666Y-104502500D01*
X109848000Y-104435833D01*
X109881333Y-104402500D01*
X109948000Y-104369166D01*
X110114666Y-104369166D01*
X110214666Y-104402500D01*
X110914666Y-105002500D02*
X110881333Y-105035833D01*
X110781333Y-105069166D01*
X110714666Y-105069166D01*
X110614666Y-105035833D01*
X110548000Y-104969166D01*
X110514666Y-104902500D01*
X110481333Y-104769166D01*
X110481333Y-104669166D01*
X110514666Y-104535833D01*
X110548000Y-104469166D01*
X110614666Y-104402500D01*
X110714666Y-104369166D01*
X110781333Y-104369166D01*
X110881333Y-104402500D01*
X110914666Y-104435833D01*
X111548000Y-105069166D02*
X111214666Y-105069166D01*
X111214666Y-104369166D01*
X111781333Y-105069166D02*
X111781333Y-104369166D01*
X112181333Y-105069166D02*
X111881333Y-104669166D01*
X112181333Y-104369166D02*
X111781333Y-104769166D01*
X109571000Y-109536666D02*
X109571000Y-108836666D01*
X109904333Y-109536666D02*
X109904333Y-108836666D01*
X110071000Y-108836666D01*
X110171000Y-108870000D01*
X110237666Y-108936666D01*
X110271000Y-109003333D01*
X110304333Y-109136666D01*
X110304333Y-109236666D01*
X110271000Y-109370000D01*
X110237666Y-109436666D01*
X110171000Y-109503333D01*
X110071000Y-109536666D01*
X109904333Y-109536666D01*
X110437666Y-109603333D02*
X110971000Y-109603333D01*
X111104333Y-109503333D02*
X111204333Y-109536666D01*
X111371000Y-109536666D01*
X111437666Y-109503333D01*
X111471000Y-109470000D01*
X111504333Y-109403333D01*
X111504333Y-109336666D01*
X111471000Y-109270000D01*
X111437666Y-109236666D01*
X111371000Y-109203333D01*
X111237666Y-109170000D01*
X111171000Y-109136666D01*
X111137666Y-109103333D01*
X111104333Y-109036666D01*
X111104333Y-108970000D01*
X111137666Y-108903333D01*
X111171000Y-108870000D01*
X111237666Y-108836666D01*
X111404333Y-108836666D01*
X111504333Y-108870000D01*
X111804333Y-109536666D02*
X111804333Y-108836666D01*
X111971000Y-108836666D01*
X112071000Y-108870000D01*
X112137666Y-108936666D01*
X112171000Y-109003333D01*
X112204333Y-109136666D01*
X112204333Y-109236666D01*
X112171000Y-109370000D01*
X112137666Y-109436666D01*
X112071000Y-109503333D01*
X111971000Y-109536666D01*
X111804333Y-109536666D01*
X110512333Y-96136666D02*
X110945666Y-96136666D01*
X110712333Y-96403333D01*
X110812333Y-96403333D01*
X110879000Y-96436666D01*
X110912333Y-96470000D01*
X110945666Y-96536666D01*
X110945666Y-96703333D01*
X110912333Y-96770000D01*
X110879000Y-96803333D01*
X110812333Y-96836666D01*
X110612333Y-96836666D01*
X110545666Y-96803333D01*
X110512333Y-96770000D01*
X111145666Y-96136666D02*
X111379000Y-96836666D01*
X111612333Y-96136666D01*
X111779000Y-96136666D02*
X112212333Y-96136666D01*
X111979000Y-96403333D01*
X112079000Y-96403333D01*
X112145666Y-96436666D01*
X112179000Y-96470000D01*
X112212333Y-96536666D01*
X112212333Y-96703333D01*
X112179000Y-96770000D01*
X112145666Y-96803333D01*
X112079000Y-96836666D01*
X111879000Y-96836666D01*
X111812333Y-96803333D01*
X111779000Y-96770000D01*
X110425000Y-101304166D02*
X110425000Y-100604166D01*
X110891666Y-100604166D02*
X111025000Y-100604166D01*
X111091666Y-100637500D01*
X111158333Y-100704166D01*
X111191666Y-100837500D01*
X111191666Y-101070833D01*
X111158333Y-101204166D01*
X111091666Y-101270833D01*
X111025000Y-101304166D01*
X110891666Y-101304166D01*
X110825000Y-101270833D01*
X110758333Y-101204166D01*
X110725000Y-101070833D01*
X110725000Y-100837500D01*
X110758333Y-100704166D01*
X110825000Y-100637500D01*
X110891666Y-100604166D01*
X111525000Y-101304166D02*
X111658333Y-101304166D01*
X111725000Y-101270833D01*
X111758333Y-101237500D01*
X111825000Y-101137500D01*
X111858333Y-101004166D01*
X111858333Y-100737500D01*
X111825000Y-100670833D01*
X111791666Y-100637500D01*
X111725000Y-100604166D01*
X111591666Y-100604166D01*
X111525000Y-100637500D01*
X111491666Y-100670833D01*
X111458333Y-100737500D01*
X111458333Y-100904166D01*
X111491666Y-100970833D01*
X111525000Y-101004166D01*
X111591666Y-101037500D01*
X111725000Y-101037500D01*
X111791666Y-101004166D01*
X111825000Y-100970833D01*
X111858333Y-100904166D01*
X110025000Y-102529166D02*
X110025000Y-101829166D01*
X110258333Y-102329166D01*
X110491666Y-101829166D01*
X110491666Y-102529166D01*
X110825000Y-102529166D02*
X110825000Y-101829166D01*
X111125000Y-102495833D02*
X111225000Y-102529166D01*
X111391666Y-102529166D01*
X111458333Y-102495833D01*
X111491666Y-102462500D01*
X111525000Y-102395833D01*
X111525000Y-102329166D01*
X111491666Y-102262500D01*
X111458333Y-102229166D01*
X111391666Y-102195833D01*
X111258333Y-102162500D01*
X111191666Y-102129166D01*
X111158333Y-102095833D01*
X111125000Y-102029166D01*
X111125000Y-101962500D01*
X111158333Y-101895833D01*
X111191666Y-101862500D01*
X111258333Y-101829166D01*
X111425000Y-101829166D01*
X111525000Y-101862500D01*
X111958333Y-101829166D02*
X112091666Y-101829166D01*
X112158333Y-101862500D01*
X112225000Y-101929166D01*
X112258333Y-102062500D01*
X112258333Y-102295833D01*
X112225000Y-102429166D01*
X112158333Y-102495833D01*
X112091666Y-102529166D01*
X111958333Y-102529166D01*
X111891666Y-102495833D01*
X111825000Y-102429166D01*
X111791666Y-102295833D01*
X111791666Y-102062500D01*
X111825000Y-101929166D01*
X111891666Y-101862500D01*
X111958333Y-101829166D01*
X110806000Y-114616666D02*
X110806000Y-113916666D01*
X111272666Y-113916666D02*
X111406000Y-113916666D01*
X111472666Y-113950000D01*
X111539333Y-114016666D01*
X111572666Y-114150000D01*
X111572666Y-114383333D01*
X111539333Y-114516666D01*
X111472666Y-114583333D01*
X111406000Y-114616666D01*
X111272666Y-114616666D01*
X111206000Y-114583333D01*
X111139333Y-114516666D01*
X111106000Y-114383333D01*
X111106000Y-114150000D01*
X111139333Y-114016666D01*
X111206000Y-113950000D01*
X111272666Y-113916666D01*
X112172666Y-113916666D02*
X112039333Y-113916666D01*
X111972666Y-113950000D01*
X111939333Y-113983333D01*
X111872666Y-114083333D01*
X111839333Y-114216666D01*
X111839333Y-114483333D01*
X111872666Y-114550000D01*
X111906000Y-114583333D01*
X111972666Y-114616666D01*
X112106000Y-114616666D01*
X112172666Y-114583333D01*
X112206000Y-114550000D01*
X112239333Y-114483333D01*
X112239333Y-114316666D01*
X112206000Y-114250000D01*
X112172666Y-114216666D01*
X112106000Y-114183333D01*
X111972666Y-114183333D01*
X111906000Y-114216666D01*
X111872666Y-114250000D01*
X111839333Y-114316666D01*
X110806000Y-112076666D02*
X110806000Y-111376666D01*
X111272666Y-111376666D02*
X111406000Y-111376666D01*
X111472666Y-111410000D01*
X111539333Y-111476666D01*
X111572666Y-111610000D01*
X111572666Y-111843333D01*
X111539333Y-111976666D01*
X111472666Y-112043333D01*
X111406000Y-112076666D01*
X111272666Y-112076666D01*
X111206000Y-112043333D01*
X111139333Y-111976666D01*
X111106000Y-111843333D01*
X111106000Y-111610000D01*
X111139333Y-111476666D01*
X111206000Y-111410000D01*
X111272666Y-111376666D01*
X112206000Y-111376666D02*
X111872666Y-111376666D01*
X111839333Y-111710000D01*
X111872666Y-111676666D01*
X111939333Y-111643333D01*
X112106000Y-111643333D01*
X112172666Y-111676666D01*
X112206000Y-111710000D01*
X112239333Y-111776666D01*
X112239333Y-111943333D01*
X112206000Y-112010000D01*
X112172666Y-112043333D01*
X112106000Y-112076666D01*
X111939333Y-112076666D01*
X111872666Y-112043333D01*
X111839333Y-112010000D01*
X110718666Y-106330000D02*
X110652000Y-106296666D01*
X110552000Y-106296666D01*
X110452000Y-106330000D01*
X110385333Y-106396666D01*
X110352000Y-106463333D01*
X110318666Y-106596666D01*
X110318666Y-106696666D01*
X110352000Y-106830000D01*
X110385333Y-106896666D01*
X110452000Y-106963333D01*
X110552000Y-106996666D01*
X110618666Y-106996666D01*
X110718666Y-106963333D01*
X110752000Y-106930000D01*
X110752000Y-106696666D01*
X110618666Y-106696666D01*
X111052000Y-106996666D02*
X111052000Y-106296666D01*
X111452000Y-106996666D01*
X111452000Y-106296666D01*
X111785333Y-106996666D02*
X111785333Y-106296666D01*
X111952000Y-106296666D01*
X112052000Y-106330000D01*
X112118666Y-106396666D01*
X112152000Y-106463333D01*
X112185333Y-106596666D01*
X112185333Y-106696666D01*
X112152000Y-106830000D01*
X112118666Y-106896666D01*
X112052000Y-106963333D01*
X111952000Y-106996666D01*
X111785333Y-106996666D01*
X110091666Y-94296666D02*
X110091666Y-93596666D01*
X110558333Y-93596666D02*
X110691666Y-93596666D01*
X110758333Y-93630000D01*
X110825000Y-93696666D01*
X110858333Y-93830000D01*
X110858333Y-94063333D01*
X110825000Y-94196666D01*
X110758333Y-94263333D01*
X110691666Y-94296666D01*
X110558333Y-94296666D01*
X110491666Y-94263333D01*
X110425000Y-94196666D01*
X110391666Y-94063333D01*
X110391666Y-93830000D01*
X110425000Y-93696666D01*
X110491666Y-93630000D01*
X110558333Y-93596666D01*
X111125000Y-93663333D02*
X111158333Y-93630000D01*
X111225000Y-93596666D01*
X111391666Y-93596666D01*
X111458333Y-93630000D01*
X111491666Y-93663333D01*
X111525000Y-93730000D01*
X111525000Y-93796666D01*
X111491666Y-93896666D01*
X111091666Y-94296666D01*
X111525000Y-94296666D01*
X111791666Y-93663333D02*
X111825000Y-93630000D01*
X111891666Y-93596666D01*
X112058333Y-93596666D01*
X112125000Y-93630000D01*
X112158333Y-93663333D01*
X112191666Y-93730000D01*
X112191666Y-93796666D01*
X112158333Y-93896666D01*
X111758333Y-94296666D01*
X112191666Y-94296666D01*
X110718666Y-86010000D02*
X110652000Y-85976666D01*
X110552000Y-85976666D01*
X110452000Y-86010000D01*
X110385333Y-86076666D01*
X110352000Y-86143333D01*
X110318666Y-86276666D01*
X110318666Y-86376666D01*
X110352000Y-86510000D01*
X110385333Y-86576666D01*
X110452000Y-86643333D01*
X110552000Y-86676666D01*
X110618666Y-86676666D01*
X110718666Y-86643333D01*
X110752000Y-86610000D01*
X110752000Y-86376666D01*
X110618666Y-86376666D01*
X111052000Y-86676666D02*
X111052000Y-85976666D01*
X111452000Y-86676666D01*
X111452000Y-85976666D01*
X111785333Y-86676666D02*
X111785333Y-85976666D01*
X111952000Y-85976666D01*
X112052000Y-86010000D01*
X112118666Y-86076666D01*
X112152000Y-86143333D01*
X112185333Y-86276666D01*
X112185333Y-86376666D01*
X112152000Y-86510000D01*
X112118666Y-86576666D01*
X112052000Y-86643333D01*
X111952000Y-86676666D01*
X111785333Y-86676666D01*
X110091666Y-89216666D02*
X110091666Y-88516666D01*
X110558333Y-88516666D02*
X110691666Y-88516666D01*
X110758333Y-88550000D01*
X110825000Y-88616666D01*
X110858333Y-88750000D01*
X110858333Y-88983333D01*
X110825000Y-89116666D01*
X110758333Y-89183333D01*
X110691666Y-89216666D01*
X110558333Y-89216666D01*
X110491666Y-89183333D01*
X110425000Y-89116666D01*
X110391666Y-88983333D01*
X110391666Y-88750000D01*
X110425000Y-88616666D01*
X110491666Y-88550000D01*
X110558333Y-88516666D01*
X111525000Y-89216666D02*
X111125000Y-89216666D01*
X111325000Y-89216666D02*
X111325000Y-88516666D01*
X111258333Y-88616666D01*
X111191666Y-88683333D01*
X111125000Y-88716666D01*
X111758333Y-88516666D02*
X112225000Y-88516666D01*
X111925000Y-89216666D01*
X110091666Y-91756666D02*
X110091666Y-91056666D01*
X110558333Y-91056666D02*
X110691666Y-91056666D01*
X110758333Y-91090000D01*
X110825000Y-91156666D01*
X110858333Y-91290000D01*
X110858333Y-91523333D01*
X110825000Y-91656666D01*
X110758333Y-91723333D01*
X110691666Y-91756666D01*
X110558333Y-91756666D01*
X110491666Y-91723333D01*
X110425000Y-91656666D01*
X110391666Y-91523333D01*
X110391666Y-91290000D01*
X110425000Y-91156666D01*
X110491666Y-91090000D01*
X110558333Y-91056666D01*
X111125000Y-91123333D02*
X111158333Y-91090000D01*
X111225000Y-91056666D01*
X111391666Y-91056666D01*
X111458333Y-91090000D01*
X111491666Y-91123333D01*
X111525000Y-91190000D01*
X111525000Y-91256666D01*
X111491666Y-91356666D01*
X111091666Y-91756666D01*
X111525000Y-91756666D01*
X111758333Y-91056666D02*
X112225000Y-91056666D01*
X111925000Y-91756666D01*
X110091666Y-117156666D02*
X110091666Y-116456666D01*
X110558333Y-116456666D02*
X110691666Y-116456666D01*
X110758333Y-116490000D01*
X110825000Y-116556666D01*
X110858333Y-116690000D01*
X110858333Y-116923333D01*
X110825000Y-117056666D01*
X110758333Y-117123333D01*
X110691666Y-117156666D01*
X110558333Y-117156666D01*
X110491666Y-117123333D01*
X110425000Y-117056666D01*
X110391666Y-116923333D01*
X110391666Y-116690000D01*
X110425000Y-116556666D01*
X110491666Y-116490000D01*
X110558333Y-116456666D01*
X111525000Y-117156666D02*
X111125000Y-117156666D01*
X111325000Y-117156666D02*
X111325000Y-116456666D01*
X111258333Y-116556666D01*
X111191666Y-116623333D01*
X111125000Y-116656666D01*
X111758333Y-116456666D02*
X112191666Y-116456666D01*
X111958333Y-116723333D01*
X112058333Y-116723333D01*
X112125000Y-116756666D01*
X112158333Y-116790000D01*
X112191666Y-116856666D01*
X112191666Y-117023333D01*
X112158333Y-117090000D01*
X112125000Y-117123333D01*
X112058333Y-117156666D01*
X111858333Y-117156666D01*
X111791666Y-117123333D01*
X111758333Y-117090000D01*
X110028166Y-119696666D02*
X110028166Y-118996666D01*
X110494833Y-118996666D02*
X110628166Y-118996666D01*
X110694833Y-119030000D01*
X110761500Y-119096666D01*
X110794833Y-119230000D01*
X110794833Y-119463333D01*
X110761500Y-119596666D01*
X110694833Y-119663333D01*
X110628166Y-119696666D01*
X110494833Y-119696666D01*
X110428166Y-119663333D01*
X110361500Y-119596666D01*
X110328166Y-119463333D01*
X110328166Y-119230000D01*
X110361500Y-119096666D01*
X110428166Y-119030000D01*
X110494833Y-118996666D01*
X111461500Y-119696666D02*
X111061500Y-119696666D01*
X111261500Y-119696666D02*
X111261500Y-118996666D01*
X111194833Y-119096666D01*
X111128166Y-119163333D01*
X111061500Y-119196666D01*
X111794833Y-119696666D02*
X111928166Y-119696666D01*
X111994833Y-119663333D01*
X112028166Y-119630000D01*
X112094833Y-119530000D01*
X112128166Y-119396666D01*
X112128166Y-119130000D01*
X112094833Y-119063333D01*
X112061500Y-119030000D01*
X111994833Y-118996666D01*
X111861500Y-118996666D01*
X111794833Y-119030000D01*
X111761500Y-119063333D01*
X111728166Y-119130000D01*
X111728166Y-119296666D01*
X111761500Y-119363333D01*
X111794833Y-119396666D01*
X111861500Y-119430000D01*
X111994833Y-119430000D01*
X112061500Y-119396666D01*
X112094833Y-119363333D01*
X112128166Y-119296666D01*
X110552000Y-80984166D02*
X110552000Y-80284166D01*
X111018666Y-80284166D02*
X111152000Y-80284166D01*
X111218666Y-80317500D01*
X111285333Y-80384166D01*
X111318666Y-80517500D01*
X111318666Y-80750833D01*
X111285333Y-80884166D01*
X111218666Y-80950833D01*
X111152000Y-80984166D01*
X111018666Y-80984166D01*
X110952000Y-80950833D01*
X110885333Y-80884166D01*
X110852000Y-80750833D01*
X110852000Y-80517500D01*
X110885333Y-80384166D01*
X110952000Y-80317500D01*
X111018666Y-80284166D01*
X111552000Y-80284166D02*
X111985333Y-80284166D01*
X111752000Y-80550833D01*
X111852000Y-80550833D01*
X111918666Y-80584166D01*
X111952000Y-80617500D01*
X111985333Y-80684166D01*
X111985333Y-80850833D01*
X111952000Y-80917500D01*
X111918666Y-80950833D01*
X111852000Y-80984166D01*
X111652000Y-80984166D01*
X111585333Y-80950833D01*
X111552000Y-80917500D01*
X110418666Y-82175833D02*
X110518666Y-82209166D01*
X110685333Y-82209166D01*
X110752000Y-82175833D01*
X110785333Y-82142500D01*
X110818666Y-82075833D01*
X110818666Y-82009166D01*
X110785333Y-81942500D01*
X110752000Y-81909166D01*
X110685333Y-81875833D01*
X110552000Y-81842500D01*
X110485333Y-81809166D01*
X110452000Y-81775833D01*
X110418666Y-81709166D01*
X110418666Y-81642500D01*
X110452000Y-81575833D01*
X110485333Y-81542500D01*
X110552000Y-81509166D01*
X110718666Y-81509166D01*
X110818666Y-81542500D01*
X111518666Y-82142500D02*
X111485333Y-82175833D01*
X111385333Y-82209166D01*
X111318666Y-82209166D01*
X111218666Y-82175833D01*
X111152000Y-82109166D01*
X111118666Y-82042500D01*
X111085333Y-81909166D01*
X111085333Y-81809166D01*
X111118666Y-81675833D01*
X111152000Y-81609166D01*
X111218666Y-81542500D01*
X111318666Y-81509166D01*
X111385333Y-81509166D01*
X111485333Y-81542500D01*
X111518666Y-81575833D01*
X112152000Y-82209166D02*
X111818666Y-82209166D01*
X111818666Y-81509166D01*
X110298000Y-83524166D02*
X110298000Y-82824166D01*
X110764666Y-82824166D02*
X110898000Y-82824166D01*
X110964666Y-82857500D01*
X111031333Y-82924166D01*
X111064666Y-83057500D01*
X111064666Y-83290833D01*
X111031333Y-83424166D01*
X110964666Y-83490833D01*
X110898000Y-83524166D01*
X110764666Y-83524166D01*
X110698000Y-83490833D01*
X110631333Y-83424166D01*
X110598000Y-83290833D01*
X110598000Y-83057500D01*
X110631333Y-82924166D01*
X110698000Y-82857500D01*
X110764666Y-82824166D01*
X111664666Y-83057500D02*
X111664666Y-83524166D01*
X111498000Y-82790833D02*
X111331333Y-83290833D01*
X111764666Y-83290833D01*
X110198000Y-84082500D02*
X110131333Y-84049166D01*
X110031333Y-84049166D01*
X109931333Y-84082500D01*
X109864666Y-84149166D01*
X109831333Y-84215833D01*
X109798000Y-84349166D01*
X109798000Y-84449166D01*
X109831333Y-84582500D01*
X109864666Y-84649166D01*
X109931333Y-84715833D01*
X110031333Y-84749166D01*
X110098000Y-84749166D01*
X110198000Y-84715833D01*
X110231333Y-84682500D01*
X110231333Y-84449166D01*
X110098000Y-84449166D01*
X110931333Y-84682500D02*
X110898000Y-84715833D01*
X110798000Y-84749166D01*
X110731333Y-84749166D01*
X110631333Y-84715833D01*
X110564666Y-84649166D01*
X110531333Y-84582500D01*
X110498000Y-84449166D01*
X110498000Y-84349166D01*
X110531333Y-84215833D01*
X110564666Y-84149166D01*
X110631333Y-84082500D01*
X110731333Y-84049166D01*
X110798000Y-84049166D01*
X110898000Y-84082500D01*
X110931333Y-84115833D01*
X111564666Y-84749166D02*
X111231333Y-84749166D01*
X111231333Y-84049166D01*
X111798000Y-84749166D02*
X111798000Y-84049166D01*
X112198000Y-84749166D02*
X111898000Y-84349166D01*
X112198000Y-84049166D02*
X111798000Y-84449166D01*
X110552000Y-78444166D02*
X110552000Y-77744166D01*
X111018666Y-77744166D02*
X111152000Y-77744166D01*
X111218666Y-77777500D01*
X111285333Y-77844166D01*
X111318666Y-77977500D01*
X111318666Y-78210833D01*
X111285333Y-78344166D01*
X111218666Y-78410833D01*
X111152000Y-78444166D01*
X111018666Y-78444166D01*
X110952000Y-78410833D01*
X110885333Y-78344166D01*
X110852000Y-78210833D01*
X110852000Y-77977500D01*
X110885333Y-77844166D01*
X110952000Y-77777500D01*
X111018666Y-77744166D01*
X111585333Y-77810833D02*
X111618666Y-77777500D01*
X111685333Y-77744166D01*
X111852000Y-77744166D01*
X111918666Y-77777500D01*
X111952000Y-77810833D01*
X111985333Y-77877500D01*
X111985333Y-77944166D01*
X111952000Y-78044166D01*
X111552000Y-78444166D01*
X111985333Y-78444166D01*
X110402000Y-79635833D02*
X110502000Y-79669166D01*
X110668666Y-79669166D01*
X110735333Y-79635833D01*
X110768666Y-79602500D01*
X110802000Y-79535833D01*
X110802000Y-79469166D01*
X110768666Y-79402500D01*
X110735333Y-79369166D01*
X110668666Y-79335833D01*
X110535333Y-79302500D01*
X110468666Y-79269166D01*
X110435333Y-79235833D01*
X110402000Y-79169166D01*
X110402000Y-79102500D01*
X110435333Y-79035833D01*
X110468666Y-79002500D01*
X110535333Y-78969166D01*
X110702000Y-78969166D01*
X110802000Y-79002500D01*
X111102000Y-79669166D02*
X111102000Y-78969166D01*
X111268666Y-78969166D01*
X111368666Y-79002500D01*
X111435333Y-79069166D01*
X111468666Y-79135833D01*
X111502000Y-79269166D01*
X111502000Y-79369166D01*
X111468666Y-79502500D01*
X111435333Y-79569166D01*
X111368666Y-79635833D01*
X111268666Y-79669166D01*
X111102000Y-79669166D01*
X111768666Y-79469166D02*
X112102000Y-79469166D01*
X111702000Y-79669166D02*
X111935333Y-78969166D01*
X112168666Y-79669166D01*
X110512333Y-75816666D02*
X110945666Y-75816666D01*
X110712333Y-76083333D01*
X110812333Y-76083333D01*
X110879000Y-76116666D01*
X110912333Y-76150000D01*
X110945666Y-76216666D01*
X110945666Y-76383333D01*
X110912333Y-76450000D01*
X110879000Y-76483333D01*
X110812333Y-76516666D01*
X110612333Y-76516666D01*
X110545666Y-76483333D01*
X110512333Y-76450000D01*
X111145666Y-75816666D02*
X111379000Y-76516666D01*
X111612333Y-75816666D01*
X111779000Y-75816666D02*
X112212333Y-75816666D01*
X111979000Y-76083333D01*
X112079000Y-76083333D01*
X112145666Y-76116666D01*
X112179000Y-76150000D01*
X112212333Y-76216666D01*
X112212333Y-76383333D01*
X112179000Y-76450000D01*
X112145666Y-76483333D01*
X112079000Y-76516666D01*
X111879000Y-76516666D01*
X111812333Y-76483333D01*
X111779000Y-76450000D01*
D14*
X122622000Y-125790000D02*
X127822000Y-125790000D01*
X122622000Y-77470000D02*
X122622000Y-125790000D01*
X127822000Y-74870000D02*
X127822000Y-125790000D01*
X122622000Y-77470000D02*
X125222000Y-77470000D01*
X125222000Y-77470000D02*
X125222000Y-74870000D01*
X125222000Y-74870000D02*
X127822000Y-74870000D01*
X122622000Y-76200000D02*
X122622000Y-74870000D01*
X122622000Y-74870000D02*
X123952000Y-74870000D01*
X112462000Y-77470000D02*
X115122000Y-77470000D01*
X112462000Y-77470000D02*
X112462000Y-125790000D01*
X112462000Y-125790000D02*
X115122000Y-125790000D01*
X115122000Y-77470000D02*
X115122000Y-125790000D01*
X115122000Y-74870000D02*
X115122000Y-76200000D01*
X113792000Y-74870000D02*
X115122000Y-74870000D01*
X116332000Y-74870000D02*
X117662000Y-74870000D01*
X117662000Y-74870000D02*
X117662000Y-76200000D01*
X117662000Y-77470000D02*
X117662000Y-125790000D01*
X115002000Y-125790000D02*
X117662000Y-125790000D01*
X115002000Y-77470000D02*
X115002000Y-125790000D01*
X115002000Y-77470000D02*
X117662000Y-77470000D01*
M02*
