G04 #@! TF.GenerationSoftware,KiCad,Pcbnew,5.0.0-rc1-44a33f2~62~ubuntu17.10.1*
G04 #@! TF.CreationDate,2018-04-10T00:15:36+09:00*
G04 #@! TF.ProjectId,RaspiUniversalHat,5261737069556E6976657273616C4861,rev?*
G04 #@! TF.SameCoordinates,Original*
G04 #@! TF.FileFunction,Legend,Bot*
G04 #@! TF.FilePolarity,Positive*
%FSLAX46Y46*%
G04 Gerber Fmt 4.6, Leading zero omitted, Abs format (unit mm)*
G04 Created by KiCad (PCBNEW 5.0.0-rc1-44a33f2~62~ubuntu17.10.1) date Tue Apr 10 00:15:36 2018*
%MOMM*%
%LPD*%
G01*
G04 APERTURE LIST*
%ADD10C,0.250000*%
G04 APERTURE END LIST*
D10*
X115099857Y-130976714D02*
X115099857Y-131786238D01*
X115147476Y-131881476D01*
X115195095Y-131929095D01*
X115290333Y-131976714D01*
X115433190Y-131976714D01*
X115528428Y-131929095D01*
X115099857Y-131595761D02*
X115195095Y-131643380D01*
X115385571Y-131643380D01*
X115480809Y-131595761D01*
X115528428Y-131548142D01*
X115576047Y-131452904D01*
X115576047Y-131167190D01*
X115528428Y-131071952D01*
X115480809Y-131024333D01*
X115385571Y-130976714D01*
X115195095Y-130976714D01*
X115099857Y-131024333D01*
X114623666Y-131643380D02*
X114623666Y-130976714D01*
X114623666Y-130643380D02*
X114671285Y-130691000D01*
X114623666Y-130738619D01*
X114576047Y-130691000D01*
X114623666Y-130643380D01*
X114623666Y-130738619D01*
X114290333Y-130976714D02*
X113909380Y-130976714D01*
X114147476Y-130643380D02*
X114147476Y-131500523D01*
X114099857Y-131595761D01*
X114004619Y-131643380D01*
X113909380Y-131643380D01*
X113576047Y-131643380D02*
X113576047Y-130643380D01*
X113147476Y-131643380D02*
X113147476Y-131119571D01*
X113195095Y-131024333D01*
X113290333Y-130976714D01*
X113433190Y-130976714D01*
X113528428Y-131024333D01*
X113576047Y-131071952D01*
X112242714Y-130976714D02*
X112242714Y-131643380D01*
X112671285Y-130976714D02*
X112671285Y-131500523D01*
X112623666Y-131595761D01*
X112528428Y-131643380D01*
X112385571Y-131643380D01*
X112290333Y-131595761D01*
X112242714Y-131548142D01*
X111766523Y-131643380D02*
X111766523Y-130643380D01*
X111766523Y-131024333D02*
X111671285Y-130976714D01*
X111480809Y-130976714D01*
X111385571Y-131024333D01*
X111337952Y-131071952D01*
X111290333Y-131167190D01*
X111290333Y-131452904D01*
X111337952Y-131548142D01*
X111385571Y-131595761D01*
X111480809Y-131643380D01*
X111671285Y-131643380D01*
X111766523Y-131595761D01*
X110861761Y-131548142D02*
X110814142Y-131595761D01*
X110861761Y-131643380D01*
X110909380Y-131595761D01*
X110861761Y-131548142D01*
X110861761Y-131643380D01*
X109957000Y-131595761D02*
X110052238Y-131643380D01*
X110242714Y-131643380D01*
X110337952Y-131595761D01*
X110385571Y-131548142D01*
X110433190Y-131452904D01*
X110433190Y-131167190D01*
X110385571Y-131071952D01*
X110337952Y-131024333D01*
X110242714Y-130976714D01*
X110052238Y-130976714D01*
X109957000Y-131024333D01*
X109385571Y-131643380D02*
X109480809Y-131595761D01*
X109528428Y-131548142D01*
X109576047Y-131452904D01*
X109576047Y-131167190D01*
X109528428Y-131071952D01*
X109480809Y-131024333D01*
X109385571Y-130976714D01*
X109242714Y-130976714D01*
X109147476Y-131024333D01*
X109099857Y-131071952D01*
X109052238Y-131167190D01*
X109052238Y-131452904D01*
X109099857Y-131548142D01*
X109147476Y-131595761D01*
X109242714Y-131643380D01*
X109385571Y-131643380D01*
X108623666Y-131643380D02*
X108623666Y-130976714D01*
X108623666Y-131071952D02*
X108576047Y-131024333D01*
X108480809Y-130976714D01*
X108337952Y-130976714D01*
X108242714Y-131024333D01*
X108195095Y-131119571D01*
X108195095Y-131643380D01*
X108195095Y-131119571D02*
X108147476Y-131024333D01*
X108052238Y-130976714D01*
X107909380Y-130976714D01*
X107814142Y-131024333D01*
X107766523Y-131119571D01*
X107766523Y-131643380D01*
X106576047Y-130595761D02*
X107433190Y-131881476D01*
X105814142Y-131643380D02*
X105814142Y-131119571D01*
X105861761Y-131024333D01*
X105957000Y-130976714D01*
X106147476Y-130976714D01*
X106242714Y-131024333D01*
X105814142Y-131595761D02*
X105909380Y-131643380D01*
X106147476Y-131643380D01*
X106242714Y-131595761D01*
X106290333Y-131500523D01*
X106290333Y-131405285D01*
X106242714Y-131310047D01*
X106147476Y-131262428D01*
X105909380Y-131262428D01*
X105814142Y-131214809D01*
X105385571Y-131595761D02*
X105290333Y-131643380D01*
X105099857Y-131643380D01*
X105004619Y-131595761D01*
X104957000Y-131500523D01*
X104957000Y-131452904D01*
X105004619Y-131357666D01*
X105099857Y-131310047D01*
X105242714Y-131310047D01*
X105337952Y-131262428D01*
X105385571Y-131167190D01*
X105385571Y-131119571D01*
X105337952Y-131024333D01*
X105242714Y-130976714D01*
X105099857Y-130976714D01*
X105004619Y-131024333D01*
X104099857Y-130976714D02*
X104099857Y-131643380D01*
X104528428Y-130976714D02*
X104528428Y-131500523D01*
X104480809Y-131595761D01*
X104385571Y-131643380D01*
X104242714Y-131643380D01*
X104147476Y-131595761D01*
X104099857Y-131548142D01*
X103623666Y-131643380D02*
X103623666Y-130643380D01*
X103528428Y-131262428D02*
X103242714Y-131643380D01*
X103242714Y-130976714D02*
X103623666Y-131357666D01*
X102814142Y-131643380D02*
X102814142Y-130976714D01*
X102814142Y-130643380D02*
X102861761Y-130691000D01*
X102814142Y-130738619D01*
X102766523Y-130691000D01*
X102814142Y-130643380D01*
X102814142Y-130738619D01*
X101909380Y-131643380D02*
X101909380Y-131119571D01*
X101957000Y-131024333D01*
X102052238Y-130976714D01*
X102242714Y-130976714D01*
X102337952Y-131024333D01*
X101909380Y-131595761D02*
X102004619Y-131643380D01*
X102242714Y-131643380D01*
X102337952Y-131595761D01*
X102385571Y-131500523D01*
X102385571Y-131405285D01*
X102337952Y-131310047D01*
X102242714Y-131262428D01*
X102004619Y-131262428D01*
X101909380Y-131214809D01*
X101004619Y-131643380D02*
X101004619Y-131119571D01*
X101052238Y-131024333D01*
X101147476Y-130976714D01*
X101337952Y-130976714D01*
X101433190Y-131024333D01*
X101004619Y-131595761D02*
X101099857Y-131643380D01*
X101337952Y-131643380D01*
X101433190Y-131595761D01*
X101480809Y-131500523D01*
X101480809Y-131405285D01*
X101433190Y-131310047D01*
X101337952Y-131262428D01*
X101099857Y-131262428D01*
X101004619Y-131214809D01*
X100099857Y-131643380D02*
X100099857Y-131119571D01*
X100147476Y-131024333D01*
X100242714Y-130976714D01*
X100433190Y-130976714D01*
X100528428Y-131024333D01*
X100099857Y-131595761D02*
X100195095Y-131643380D01*
X100433190Y-131643380D01*
X100528428Y-131595761D01*
X100576047Y-131500523D01*
X100576047Y-131405285D01*
X100528428Y-131310047D01*
X100433190Y-131262428D01*
X100195095Y-131262428D01*
X100099857Y-131214809D01*
X98909380Y-130595761D02*
X99766523Y-131881476D01*
X98004619Y-131643380D02*
X98337952Y-131167190D01*
X98576047Y-131643380D02*
X98576047Y-130643380D01*
X98195095Y-130643380D01*
X98099857Y-130691000D01*
X98052238Y-130738619D01*
X98004619Y-130833857D01*
X98004619Y-130976714D01*
X98052238Y-131071952D01*
X98099857Y-131119571D01*
X98195095Y-131167190D01*
X98576047Y-131167190D01*
X97147476Y-131643380D02*
X97147476Y-131119571D01*
X97195095Y-131024333D01*
X97290333Y-130976714D01*
X97480809Y-130976714D01*
X97576047Y-131024333D01*
X97147476Y-131595761D02*
X97242714Y-131643380D01*
X97480809Y-131643380D01*
X97576047Y-131595761D01*
X97623666Y-131500523D01*
X97623666Y-131405285D01*
X97576047Y-131310047D01*
X97480809Y-131262428D01*
X97242714Y-131262428D01*
X97147476Y-131214809D01*
X96718904Y-131595761D02*
X96623666Y-131643380D01*
X96433190Y-131643380D01*
X96337952Y-131595761D01*
X96290333Y-131500523D01*
X96290333Y-131452904D01*
X96337952Y-131357666D01*
X96433190Y-131310047D01*
X96576047Y-131310047D01*
X96671285Y-131262428D01*
X96718904Y-131167190D01*
X96718904Y-131119571D01*
X96671285Y-131024333D01*
X96576047Y-130976714D01*
X96433190Y-130976714D01*
X96337952Y-131024333D01*
X95861761Y-130976714D02*
X95861761Y-131976714D01*
X95861761Y-131024333D02*
X95766523Y-130976714D01*
X95576047Y-130976714D01*
X95480809Y-131024333D01*
X95433190Y-131071952D01*
X95385571Y-131167190D01*
X95385571Y-131452904D01*
X95433190Y-131548142D01*
X95480809Y-131595761D01*
X95576047Y-131643380D01*
X95766523Y-131643380D01*
X95861761Y-131595761D01*
X94957000Y-131643380D02*
X94957000Y-130976714D01*
X94957000Y-130643380D02*
X95004619Y-130691000D01*
X94957000Y-130738619D01*
X94909380Y-130691000D01*
X94957000Y-130643380D01*
X94957000Y-130738619D01*
X94480809Y-130643380D02*
X94480809Y-131452904D01*
X94433190Y-131548142D01*
X94385571Y-131595761D01*
X94290333Y-131643380D01*
X94099857Y-131643380D01*
X94004619Y-131595761D01*
X93957000Y-131548142D01*
X93909380Y-131452904D01*
X93909380Y-130643380D01*
X93433190Y-130976714D02*
X93433190Y-131643380D01*
X93433190Y-131071952D02*
X93385571Y-131024333D01*
X93290333Y-130976714D01*
X93147476Y-130976714D01*
X93052238Y-131024333D01*
X93004619Y-131119571D01*
X93004619Y-131643380D01*
X92528428Y-131643380D02*
X92528428Y-130976714D01*
X92528428Y-130643380D02*
X92576047Y-130691000D01*
X92528428Y-130738619D01*
X92480809Y-130691000D01*
X92528428Y-130643380D01*
X92528428Y-130738619D01*
X92052238Y-131643380D02*
X92052238Y-130643380D01*
X92052238Y-131024333D02*
X91957000Y-130976714D01*
X91766523Y-130976714D01*
X91671285Y-131024333D01*
X91623666Y-131071952D01*
X91576047Y-131167190D01*
X91576047Y-131452904D01*
X91623666Y-131548142D01*
X91671285Y-131595761D01*
X91766523Y-131643380D01*
X91957000Y-131643380D01*
X92052238Y-131595761D01*
X90766523Y-131595761D02*
X90861761Y-131643380D01*
X91052238Y-131643380D01*
X91147476Y-131595761D01*
X91195095Y-131500523D01*
X91195095Y-131119571D01*
X91147476Y-131024333D01*
X91052238Y-130976714D01*
X90861761Y-130976714D01*
X90766523Y-131024333D01*
X90718904Y-131119571D01*
X90718904Y-131214809D01*
X91195095Y-131310047D01*
X90290333Y-131643380D02*
X90290333Y-130976714D01*
X90290333Y-131167190D02*
X90242714Y-131071952D01*
X90195095Y-131024333D01*
X90099857Y-130976714D01*
X90004619Y-130976714D01*
X89718904Y-131595761D02*
X89623666Y-131643380D01*
X89433190Y-131643380D01*
X89337952Y-131595761D01*
X89290333Y-131500523D01*
X89290333Y-131452904D01*
X89337952Y-131357666D01*
X89433190Y-131310047D01*
X89576047Y-131310047D01*
X89671285Y-131262428D01*
X89718904Y-131167190D01*
X89718904Y-131119571D01*
X89671285Y-131024333D01*
X89576047Y-130976714D01*
X89433190Y-130976714D01*
X89337952Y-131024333D01*
X88433190Y-131643380D02*
X88433190Y-131119571D01*
X88480809Y-131024333D01*
X88576047Y-130976714D01*
X88766523Y-130976714D01*
X88861761Y-131024333D01*
X88433190Y-131595761D02*
X88528428Y-131643380D01*
X88766523Y-131643380D01*
X88861761Y-131595761D01*
X88909380Y-131500523D01*
X88909380Y-131405285D01*
X88861761Y-131310047D01*
X88766523Y-131262428D01*
X88528428Y-131262428D01*
X88433190Y-131214809D01*
X87814142Y-131643380D02*
X87909380Y-131595761D01*
X87957000Y-131500523D01*
X87957000Y-130643380D01*
X87433190Y-131643380D02*
X87433190Y-130643380D01*
X87433190Y-131119571D02*
X86861761Y-131119571D01*
X86861761Y-131643380D02*
X86861761Y-130643380D01*
X85957000Y-131643380D02*
X85957000Y-131119571D01*
X86004619Y-131024333D01*
X86099857Y-130976714D01*
X86290333Y-130976714D01*
X86385571Y-131024333D01*
X85957000Y-131595761D02*
X86052238Y-131643380D01*
X86290333Y-131643380D01*
X86385571Y-131595761D01*
X86433190Y-131500523D01*
X86433190Y-131405285D01*
X86385571Y-131310047D01*
X86290333Y-131262428D01*
X86052238Y-131262428D01*
X85957000Y-131214809D01*
X85623666Y-130976714D02*
X85242714Y-130976714D01*
X85480809Y-130643380D02*
X85480809Y-131500523D01*
X85433190Y-131595761D01*
X85337952Y-131643380D01*
X85242714Y-131643380D01*
M02*
